<?xml version="1.0" encoding="utf-8" standalone="no"?>
<!DOCTYPE svg PUBLIC "-//W3C//DTD SVG 1.1//EN"
  "http://www.w3.org/Graphics/SVG/1.1/DTD/svg11.dtd">
<svg xmlns:xlink="http://www.w3.org/1999/xlink" width="720pt" height="576pt" viewBox="0 0 720 576" xmlns="http://www.w3.org/2000/svg" version="1.1">
 <metadata>
  <rdf:RDF xmlns:dc="http://purl.org/dc/elements/1.1/" xmlns:cc="http://creativecommons.org/ns#" xmlns:rdf="http://www.w3.org/1999/02/22-rdf-syntax-ns#">
   <cc:Work>
    <dc:type rdf:resource="http://purl.org/dc/dcmitype/StillImage"/>
    <dc:date>2024-09-30T16:20:33.844728</dc:date>
    <dc:format>image/svg+xml</dc:format>
    <dc:creator>
     <cc:Agent>
      <dc:title>Matplotlib v3.9.2, https://matplotlib.org/</dc:title>
     </cc:Agent>
    </dc:creator>
   </cc:Work>
  </rdf:RDF>
 </metadata>
 <defs>
  <style type="text/css">*{stroke-linejoin: round; stroke-linecap: butt}</style>
 </defs>
 <g id="figure_1">
  <g id="patch_1">
   <path d="M 0 576 
L 720 576 
L 720 0 
L 0 0 
z
" style="fill: #ffffff"/>
  </g>
  <g id="axes_1">
   <g id="patch_2">
    <path d="M 54.2 130.885 
L 709.2 130.885 
L 709.2 25.44 
L 54.2 25.44 
z
" style="fill: #ffffff"/>
   </g>
   <g id="matplotlib.axis_1">
    <g id="xtick_1">
     <g id="line2d_1">
      <path d="M 83.972727 130.885 
L 83.972727 25.44 
" clip-path="url(#p23d98c7bb2)" style="fill: none; stroke: #b0b0b0; stroke-width: 0.8; stroke-linecap: square"/>
     </g>
     <g id="line2d_2">
      <defs>
       <path id="mb3b84984d4" d="M 0 0 
L 0 3.5 
" style="stroke: #000000; stroke-width: 0.8"/>
      </defs>
      <g>
       <use xlink:href="#mb3b84984d4" x="83.972727" y="130.885" style="stroke: #000000; stroke-width: 0.8"/>
      </g>
     </g>
    </g>
    <g id="xtick_2">
     <g id="line2d_3">
      <path d="M 221.812618 130.885 
L 221.812618 25.44 
" clip-path="url(#p23d98c7bb2)" style="fill: none; stroke: #b0b0b0; stroke-width: 0.8; stroke-linecap: square"/>
     </g>
     <g id="line2d_4">
      <g>
       <use xlink:href="#mb3b84984d4" x="221.812618" y="130.885" style="stroke: #000000; stroke-width: 0.8"/>
      </g>
     </g>
    </g>
    <g id="xtick_3">
     <g id="line2d_5">
      <path d="M 359.652509 130.885 
L 359.652509 25.44 
" clip-path="url(#p23d98c7bb2)" style="fill: none; stroke: #b0b0b0; stroke-width: 0.8; stroke-linecap: square"/>
     </g>
     <g id="line2d_6">
      <g>
       <use xlink:href="#mb3b84984d4" x="359.652509" y="130.885" style="stroke: #000000; stroke-width: 0.8"/>
      </g>
     </g>
    </g>
    <g id="xtick_4">
     <g id="line2d_7">
      <path d="M 497.4924 130.885 
L 497.4924 25.44 
" clip-path="url(#p23d98c7bb2)" style="fill: none; stroke: #b0b0b0; stroke-width: 0.8; stroke-linecap: square"/>
     </g>
     <g id="line2d_8">
      <g>
       <use xlink:href="#mb3b84984d4" x="497.4924" y="130.885" style="stroke: #000000; stroke-width: 0.8"/>
      </g>
     </g>
    </g>
    <g id="xtick_5">
     <g id="line2d_9">
      <path d="M 635.332292 130.885 
L 635.332292 25.44 
" clip-path="url(#p23d98c7bb2)" style="fill: none; stroke: #b0b0b0; stroke-width: 0.8; stroke-linecap: square"/>
     </g>
     <g id="line2d_10">
      <g>
       <use xlink:href="#mb3b84984d4" x="635.332292" y="130.885" style="stroke: #000000; stroke-width: 0.8"/>
      </g>
     </g>
    </g>
   </g>
   <g id="matplotlib.axis_2">
    <g id="ytick_1">
     <g id="line2d_11">
      <path d="M 54.2 126.092045 
L 709.2 126.092045 
" clip-path="url(#p23d98c7bb2)" style="fill: none; stroke: #b0b0b0; stroke-width: 0.8; stroke-linecap: square"/>
     </g>
     <g id="line2d_12">
      <defs>
       <path id="mcf634d523b" d="M 0 0 
L -3.5 0 
" style="stroke: #000000; stroke-width: 0.8"/>
      </defs>
      <g>
       <use xlink:href="#mcf634d523b" x="54.2" y="126.092045" style="stroke: #000000; stroke-width: 0.8"/>
      </g>
     </g>
     <g id="text_1">
      <!-- 0.0 -->
      <g transform="translate(31.296875 129.891264) scale(0.1 -0.1)">
       <defs>
        <path id="DejaVuSans-30" d="M 2034 4250 
Q 1547 4250 1301 3770 
Q 1056 3291 1056 2328 
Q 1056 1369 1301 889 
Q 1547 409 2034 409 
Q 2525 409 2770 889 
Q 3016 1369 3016 2328 
Q 3016 3291 2770 3770 
Q 2525 4250 2034 4250 
z
M 2034 4750 
Q 2819 4750 3233 4129 
Q 3647 3509 3647 2328 
Q 3647 1150 3233 529 
Q 2819 -91 2034 -91 
Q 1250 -91 836 529 
Q 422 1150 422 2328 
Q 422 3509 836 4129 
Q 1250 4750 2034 4750 
z
" transform="scale(0.015625)"/>
        <path id="DejaVuSans-2e" d="M 684 794 
L 1344 794 
L 1344 0 
L 684 0 
L 684 794 
z
" transform="scale(0.015625)"/>
       </defs>
       <use xlink:href="#DejaVuSans-30"/>
       <use xlink:href="#DejaVuSans-2e" x="63.623047"/>
       <use xlink:href="#DejaVuSans-30" x="95.410156"/>
      </g>
     </g>
    </g>
    <g id="ytick_2">
     <g id="line2d_13">
      <path d="M 54.2 104.790025 
L 709.2 104.790025 
" clip-path="url(#p23d98c7bb2)" style="fill: none; stroke: #b0b0b0; stroke-width: 0.8; stroke-linecap: square"/>
     </g>
     <g id="line2d_14">
      <g>
       <use xlink:href="#mcf634d523b" x="54.2" y="104.790025" style="stroke: #000000; stroke-width: 0.8"/>
      </g>
     </g>
     <g id="text_2">
      <!-- 0.2 -->
      <g transform="translate(31.296875 108.589244) scale(0.1 -0.1)">
       <defs>
        <path id="DejaVuSans-32" d="M 1228 531 
L 3431 531 
L 3431 0 
L 469 0 
L 469 531 
Q 828 903 1448 1529 
Q 2069 2156 2228 2338 
Q 2531 2678 2651 2914 
Q 2772 3150 2772 3378 
Q 2772 3750 2511 3984 
Q 2250 4219 1831 4219 
Q 1534 4219 1204 4116 
Q 875 4013 500 3803 
L 500 4441 
Q 881 4594 1212 4672 
Q 1544 4750 1819 4750 
Q 2544 4750 2975 4387 
Q 3406 4025 3406 3419 
Q 3406 3131 3298 2873 
Q 3191 2616 2906 2266 
Q 2828 2175 2409 1742 
Q 1991 1309 1228 531 
z
" transform="scale(0.015625)"/>
       </defs>
       <use xlink:href="#DejaVuSans-30"/>
       <use xlink:href="#DejaVuSans-2e" x="63.623047"/>
       <use xlink:href="#DejaVuSans-32" x="95.410156"/>
      </g>
     </g>
    </g>
    <g id="ytick_3">
     <g id="line2d_15">
      <path d="M 54.2 83.488005 
L 709.2 83.488005 
" clip-path="url(#p23d98c7bb2)" style="fill: none; stroke: #b0b0b0; stroke-width: 0.8; stroke-linecap: square"/>
     </g>
     <g id="line2d_16">
      <g>
       <use xlink:href="#mcf634d523b" x="54.2" y="83.488005" style="stroke: #000000; stroke-width: 0.8"/>
      </g>
     </g>
     <g id="text_3">
      <!-- 0.4 -->
      <g transform="translate(31.296875 87.287224) scale(0.1 -0.1)">
       <defs>
        <path id="DejaVuSans-34" d="M 2419 4116 
L 825 1625 
L 2419 1625 
L 2419 4116 
z
M 2253 4666 
L 3047 4666 
L 3047 1625 
L 3713 1625 
L 3713 1100 
L 3047 1100 
L 3047 0 
L 2419 0 
L 2419 1100 
L 313 1100 
L 313 1709 
L 2253 4666 
z
" transform="scale(0.015625)"/>
       </defs>
       <use xlink:href="#DejaVuSans-30"/>
       <use xlink:href="#DejaVuSans-2e" x="63.623047"/>
       <use xlink:href="#DejaVuSans-34" x="95.410156"/>
      </g>
     </g>
    </g>
    <g id="ytick_4">
     <g id="line2d_17">
      <path d="M 54.2 62.185985 
L 709.2 62.185985 
" clip-path="url(#p23d98c7bb2)" style="fill: none; stroke: #b0b0b0; stroke-width: 0.8; stroke-linecap: square"/>
     </g>
     <g id="line2d_18">
      <g>
       <use xlink:href="#mcf634d523b" x="54.2" y="62.185985" style="stroke: #000000; stroke-width: 0.8"/>
      </g>
     </g>
     <g id="text_4">
      <!-- 0.6 -->
      <g transform="translate(31.296875 65.985204) scale(0.1 -0.1)">
       <defs>
        <path id="DejaVuSans-36" d="M 2113 2584 
Q 1688 2584 1439 2293 
Q 1191 2003 1191 1497 
Q 1191 994 1439 701 
Q 1688 409 2113 409 
Q 2538 409 2786 701 
Q 3034 994 3034 1497 
Q 3034 2003 2786 2293 
Q 2538 2584 2113 2584 
z
M 3366 4563 
L 3366 3988 
Q 3128 4100 2886 4159 
Q 2644 4219 2406 4219 
Q 1781 4219 1451 3797 
Q 1122 3375 1075 2522 
Q 1259 2794 1537 2939 
Q 1816 3084 2150 3084 
Q 2853 3084 3261 2657 
Q 3669 2231 3669 1497 
Q 3669 778 3244 343 
Q 2819 -91 2113 -91 
Q 1303 -91 875 529 
Q 447 1150 447 2328 
Q 447 3434 972 4092 
Q 1497 4750 2381 4750 
Q 2619 4750 2861 4703 
Q 3103 4656 3366 4563 
z
" transform="scale(0.015625)"/>
       </defs>
       <use xlink:href="#DejaVuSans-30"/>
       <use xlink:href="#DejaVuSans-2e" x="63.623047"/>
       <use xlink:href="#DejaVuSans-36" x="95.410156"/>
      </g>
     </g>
    </g>
    <g id="ytick_5">
     <g id="line2d_19">
      <path d="M 54.2 40.883965 
L 709.2 40.883965 
" clip-path="url(#p23d98c7bb2)" style="fill: none; stroke: #b0b0b0; stroke-width: 0.8; stroke-linecap: square"/>
     </g>
     <g id="line2d_20">
      <g>
       <use xlink:href="#mcf634d523b" x="54.2" y="40.883965" style="stroke: #000000; stroke-width: 0.8"/>
      </g>
     </g>
     <g id="text_5">
      <!-- 0.8 -->
      <g transform="translate(31.296875 44.683183) scale(0.1 -0.1)">
       <defs>
        <path id="DejaVuSans-38" d="M 2034 2216 
Q 1584 2216 1326 1975 
Q 1069 1734 1069 1313 
Q 1069 891 1326 650 
Q 1584 409 2034 409 
Q 2484 409 2743 651 
Q 3003 894 3003 1313 
Q 3003 1734 2745 1975 
Q 2488 2216 2034 2216 
z
M 1403 2484 
Q 997 2584 770 2862 
Q 544 3141 544 3541 
Q 544 4100 942 4425 
Q 1341 4750 2034 4750 
Q 2731 4750 3128 4425 
Q 3525 4100 3525 3541 
Q 3525 3141 3298 2862 
Q 3072 2584 2669 2484 
Q 3125 2378 3379 2068 
Q 3634 1759 3634 1313 
Q 3634 634 3220 271 
Q 2806 -91 2034 -91 
Q 1263 -91 848 271 
Q 434 634 434 1313 
Q 434 1759 690 2068 
Q 947 2378 1403 2484 
z
M 1172 3481 
Q 1172 3119 1398 2916 
Q 1625 2713 2034 2713 
Q 2441 2713 2670 2916 
Q 2900 3119 2900 3481 
Q 2900 3844 2670 4047 
Q 2441 4250 2034 4250 
Q 1625 4250 1398 4047 
Q 1172 3844 1172 3481 
z
" transform="scale(0.015625)"/>
       </defs>
       <use xlink:href="#DejaVuSans-30"/>
       <use xlink:href="#DejaVuSans-2e" x="63.623047"/>
       <use xlink:href="#DejaVuSans-38" x="95.410156"/>
      </g>
     </g>
    </g>
    <g id="text_6">
     <!-- SOC (%) -->
     <g transform="translate(25.217188 99.005469) rotate(-90) scale(0.1 -0.1)">
      <defs>
       <path id="DejaVuSans-53" d="M 3425 4513 
L 3425 3897 
Q 3066 4069 2747 4153 
Q 2428 4238 2131 4238 
Q 1616 4238 1336 4038 
Q 1056 3838 1056 3469 
Q 1056 3159 1242 3001 
Q 1428 2844 1947 2747 
L 2328 2669 
Q 3034 2534 3370 2195 
Q 3706 1856 3706 1288 
Q 3706 609 3251 259 
Q 2797 -91 1919 -91 
Q 1588 -91 1214 -16 
Q 841 59 441 206 
L 441 856 
Q 825 641 1194 531 
Q 1563 422 1919 422 
Q 2459 422 2753 634 
Q 3047 847 3047 1241 
Q 3047 1584 2836 1778 
Q 2625 1972 2144 2069 
L 1759 2144 
Q 1053 2284 737 2584 
Q 422 2884 422 3419 
Q 422 4038 858 4394 
Q 1294 4750 2059 4750 
Q 2388 4750 2728 4690 
Q 3069 4631 3425 4513 
z
" transform="scale(0.015625)"/>
       <path id="DejaVuSans-4f" d="M 2522 4238 
Q 1834 4238 1429 3725 
Q 1025 3213 1025 2328 
Q 1025 1447 1429 934 
Q 1834 422 2522 422 
Q 3209 422 3611 934 
Q 4013 1447 4013 2328 
Q 4013 3213 3611 3725 
Q 3209 4238 2522 4238 
z
M 2522 4750 
Q 3503 4750 4090 4092 
Q 4678 3434 4678 2328 
Q 4678 1225 4090 567 
Q 3503 -91 2522 -91 
Q 1538 -91 948 565 
Q 359 1222 359 2328 
Q 359 3434 948 4092 
Q 1538 4750 2522 4750 
z
" transform="scale(0.015625)"/>
       <path id="DejaVuSans-43" d="M 4122 4306 
L 4122 3641 
Q 3803 3938 3442 4084 
Q 3081 4231 2675 4231 
Q 1875 4231 1450 3742 
Q 1025 3253 1025 2328 
Q 1025 1406 1450 917 
Q 1875 428 2675 428 
Q 3081 428 3442 575 
Q 3803 722 4122 1019 
L 4122 359 
Q 3791 134 3420 21 
Q 3050 -91 2638 -91 
Q 1578 -91 968 557 
Q 359 1206 359 2328 
Q 359 3453 968 4101 
Q 1578 4750 2638 4750 
Q 3056 4750 3426 4639 
Q 3797 4528 4122 4306 
z
" transform="scale(0.015625)"/>
       <path id="DejaVuSans-20" transform="scale(0.015625)"/>
       <path id="DejaVuSans-28" d="M 1984 4856 
Q 1566 4138 1362 3434 
Q 1159 2731 1159 2009 
Q 1159 1288 1364 580 
Q 1569 -128 1984 -844 
L 1484 -844 
Q 1016 -109 783 600 
Q 550 1309 550 2009 
Q 550 2706 781 3412 
Q 1013 4119 1484 4856 
L 1984 4856 
z
" transform="scale(0.015625)"/>
       <path id="DejaVuSans-25" d="M 4653 2053 
Q 4381 2053 4226 1822 
Q 4072 1591 4072 1178 
Q 4072 772 4226 539 
Q 4381 306 4653 306 
Q 4919 306 5073 539 
Q 5228 772 5228 1178 
Q 5228 1588 5073 1820 
Q 4919 2053 4653 2053 
z
M 4653 2450 
Q 5147 2450 5437 2106 
Q 5728 1763 5728 1178 
Q 5728 594 5436 251 
Q 5144 -91 4653 -91 
Q 4153 -91 3862 251 
Q 3572 594 3572 1178 
Q 3572 1766 3864 2108 
Q 4156 2450 4653 2450 
z
M 1428 4353 
Q 1159 4353 1004 4120 
Q 850 3888 850 3481 
Q 850 3069 1003 2837 
Q 1156 2606 1428 2606 
Q 1700 2606 1854 2837 
Q 2009 3069 2009 3481 
Q 2009 3884 1853 4118 
Q 1697 4353 1428 4353 
z
M 4250 4750 
L 4750 4750 
L 1831 -91 
L 1331 -91 
L 4250 4750 
z
M 1428 4750 
Q 1922 4750 2215 4408 
Q 2509 4066 2509 3481 
Q 2509 2891 2217 2550 
Q 1925 2209 1428 2209 
Q 931 2209 642 2551 
Q 353 2894 353 3481 
Q 353 4063 643 4406 
Q 934 4750 1428 4750 
z
" transform="scale(0.015625)"/>
       <path id="DejaVuSans-29" d="M 513 4856 
L 1013 4856 
Q 1481 4119 1714 3412 
Q 1947 2706 1947 2009 
Q 1947 1309 1714 600 
Q 1481 -109 1013 -844 
L 513 -844 
Q 928 -128 1133 580 
Q 1338 1288 1338 2009 
Q 1338 2731 1133 3434 
Q 928 4138 513 4856 
z
" transform="scale(0.015625)"/>
      </defs>
      <use xlink:href="#DejaVuSans-53"/>
      <use xlink:href="#DejaVuSans-4f" x="63.476562"/>
      <use xlink:href="#DejaVuSans-43" x="142.1875"/>
      <use xlink:href="#DejaVuSans-20" x="212.011719"/>
      <use xlink:href="#DejaVuSans-28" x="243.798828"/>
      <use xlink:href="#DejaVuSans-25" x="282.8125"/>
      <use xlink:href="#DejaVuSans-29" x="377.832031"/>
     </g>
    </g>
   </g>
   <g id="line2d_21">
    <path d="M 83.972727 30.232955 
L 118.970276 30.232955 
L 119.094332 126.092045 
L 123.105472 126.092045 
L 123.229528 42.414503 
L 123.863592 30.232955 
L 132.202905 30.232955 
L 132.326961 126.092045 
L 132.478585 126.092045 
L 132.602641 30.232955 
L 136.475942 30.232955 
L 136.599998 126.092045 
L 141.162498 126.092045 
L 141.286554 42.896831 
L 141.934401 30.232955 
L 158.530324 30.232955 
L 158.65438 126.092045 
L 158.943844 126.092045 
L 159.0679 48.469093 
L 159.963859 30.232955 
L 175.898151 30.232955 
L 176.022207 126.092045 
L 177.414389 126.092045 
L 177.538445 45.619109 
L 178.310349 30.232955 
L 193.265977 30.232955 
L 193.390033 126.092045 
L 195.057895 126.092045 
L 195.181951 50.299259 
L 196.146831 30.232955 
L 198.366053 30.232955 
L 198.490109 126.092045 
L 198.641733 126.092045 
L 198.765789 34.360646 
L 199.041468 30.232955 
L 212.425722 30.232955 
L 212.549778 126.092045 
L 213.252761 126.092045 
L 213.376817 39.670613 
L 213.886825 30.232955 
L 214.769 30.232955 
L 214.893056 126.092045 
L 215.871719 126.092045 
L 215.995775 40.630125 
L 216.147399 37.115292 
L 216.271455 126.092045 
L 217.387958 126.092045 
L 217.512014 46.313072 
L 218.311485 30.232955 
L 257.912886 30.232955 
L 258.036942 126.092045 
L 262.048083 126.092045 
L 262.172138 48.384228 
L 263.054314 30.232955 
L 271.145515 30.232955 
L 271.269571 126.092045 
L 271.421195 126.092045 
L 271.545251 30.232955 
L 275.418552 30.232955 
L 275.542608 126.092045 
L 280.105108 126.092045 
L 280.229164 44.611747 
L 280.959716 30.232955 
L 297.472935 30.232955 
L 297.59699 126.092045 
L 297.886454 126.092045 
L 298.01051 56.585667 
L 299.251069 30.232955 
L 314.840761 30.232955 
L 314.964817 126.092045 
L 316.357 126.092045 
L 316.481056 42.22447 
L 317.101335 30.232955 
L 332.208587 30.232955 
L 332.332643 126.092045 
L 334.000506 126.092045 
L 334.124562 49.708032 
L 335.075657 30.232955 
L 337.308663 30.232955 
L 337.432719 126.092045 
L 337.584343 126.092045 
L 337.708399 34.860838 
L 338.011647 30.232955 
L 351.368332 30.232955 
L 351.492388 126.092045 
L 352.195371 126.092045 
L 352.319427 42.153414 
L 352.939707 30.232955 
L 353.71161 30.232955 
L 353.835666 126.092045 
L 354.814329 126.092045 
L 354.938385 48.426652 
L 355.090009 44.911818 
L 355.214065 126.092045 
L 356.330568 126.092045 
L 356.454624 50.800319 
L 357.447071 30.232955 
L 396.855496 30.232955 
L 396.979552 126.092045 
L 400.990693 126.092045 
L 401.114749 48.827891 
L 402.024492 30.232955 
L 410.088126 30.232955 
L 410.212181 126.092045 
L 410.363805 126.092045 
L 410.487861 30.232955 
L 414.361162 30.232955 
L 414.485218 126.092045 
L 419.047718 126.092045 
L 419.171774 39.910657 
L 419.695566 30.232955 
L 436.415545 30.232955 
L 436.539601 126.092045 
L 436.829064 126.092045 
L 436.95312 59.832889 
L 438.331519 30.232955 
L 453.783371 30.232955 
L 453.907427 126.092045 
L 455.29961 126.092045 
L 455.423666 49.490154 
L 456.360977 30.232955 
L 471.151197 30.232955 
L 471.275253 126.092045 
L 472.943116 126.092045 
L 473.067172 45.623667 
L 473.839075 30.232955 
L 476.251273 30.232955 
L 476.375329 126.092045 
L 476.526953 126.092045 
L 476.651009 32.804414 
L 476.871553 30.232955 
L 490.310942 30.232955 
L 490.434998 126.092045 
L 491.137982 126.092045 
L 491.262037 33.675254 
L 491.510149 30.232955 
L 492.65422 30.232955 
L 492.778276 126.092045 
L 493.756939 126.092045 
L 493.880995 41.895478 
L 494.032619 38.380644 
L 494.156675 126.092045 
L 495.273178 126.092045 
L 495.397234 42.933785 
L 496.045082 30.232955 
L 535.798106 30.232955 
L 535.922162 126.092045 
L 539.933303 126.092045 
L 540.057359 46.931344 
L 540.884398 30.232955 
L 549.030736 30.232955 
L 549.154792 126.092045 
L 549.306416 126.092045 
L 549.430471 30.749335 
L 549.554527 30.232955 
L 553.303772 30.232955 
L 553.427828 126.092045 
L 557.990329 126.092045 
L 558.114385 50.721382 
L 559.106832 30.232955 
L 575.358155 30.232955 
L 575.482211 126.092045 
L 575.771675 126.092045 
L 575.895731 48.364159 
L 576.777906 30.232955 
L 592.725981 30.232955 
L 592.850037 126.092045 
L 594.24222 126.092045 
L 594.366276 49.600147 
L 595.303587 30.232955 
L 610.093808 30.232955 
L 610.217863 126.092045 
L 611.885726 126.092045 
L 612.009782 44.247563 
L 612.712765 30.232955 
L 615.193883 30.232955 
L 615.317939 126.092045 
L 615.469563 126.092045 
L 615.593619 32.216671 
L 615.786595 30.232955 
L 629.253552 30.232955 
L 629.377608 126.092045 
L 630.080592 126.092045 
L 630.204648 37.590391 
L 630.631951 30.232955 
L 631.596831 30.232955 
L 631.720886 126.092045 
L 632.69955 126.092045 
L 632.823606 43.25535 
L 632.975229 39.740517 
L 633.099285 126.092045 
L 634.215788 126.092045 
L 634.339844 51.346673 
L 635.35986 30.232955 
L 674.740716 30.232955 
L 674.864772 126.092045 
L 678.875913 126.092045 
L 678.999969 50.916388 
L 679.427273 41.010949 
L 679.427273 41.010949 
" clip-path="url(#p23d98c7bb2)" style="fill: none; stroke: #0000ff; stroke-width: 1.5; stroke-linecap: square"/>
   </g>
   <g id="patch_3">
    <path d="M 54.2 130.885 
L 54.2 25.44 
" style="fill: none; stroke: #000000; stroke-width: 0.8; stroke-linejoin: miter; stroke-linecap: square"/>
   </g>
   <g id="patch_4">
    <path d="M 709.2 130.885 
L 709.2 25.44 
" style="fill: none; stroke: #000000; stroke-width: 0.8; stroke-linejoin: miter; stroke-linecap: square"/>
   </g>
   <g id="patch_5">
    <path d="M 54.2 130.885 
L 709.2 130.885 
" style="fill: none; stroke: #000000; stroke-width: 0.8; stroke-linejoin: miter; stroke-linecap: square"/>
   </g>
   <g id="patch_6">
    <path d="M 54.2 25.44 
L 709.2 25.44 
" style="fill: none; stroke: #000000; stroke-width: 0.8; stroke-linejoin: miter; stroke-linecap: square"/>
   </g>
   <g id="text_7">
    <!-- State of Charge Over Time -->
    <g transform="translate(301.762187 19.44) scale(0.12 -0.12)">
     <defs>
      <path id="DejaVuSans-74" d="M 1172 4494 
L 1172 3500 
L 2356 3500 
L 2356 3053 
L 1172 3053 
L 1172 1153 
Q 1172 725 1289 603 
Q 1406 481 1766 481 
L 2356 481 
L 2356 0 
L 1766 0 
Q 1100 0 847 248 
Q 594 497 594 1153 
L 594 3053 
L 172 3053 
L 172 3500 
L 594 3500 
L 594 4494 
L 1172 4494 
z
" transform="scale(0.015625)"/>
      <path id="DejaVuSans-61" d="M 2194 1759 
Q 1497 1759 1228 1600 
Q 959 1441 959 1056 
Q 959 750 1161 570 
Q 1363 391 1709 391 
Q 2188 391 2477 730 
Q 2766 1069 2766 1631 
L 2766 1759 
L 2194 1759 
z
M 3341 1997 
L 3341 0 
L 2766 0 
L 2766 531 
Q 2569 213 2275 61 
Q 1981 -91 1556 -91 
Q 1019 -91 701 211 
Q 384 513 384 1019 
Q 384 1609 779 1909 
Q 1175 2209 1959 2209 
L 2766 2209 
L 2766 2266 
Q 2766 2663 2505 2880 
Q 2244 3097 1772 3097 
Q 1472 3097 1187 3025 
Q 903 2953 641 2809 
L 641 3341 
Q 956 3463 1253 3523 
Q 1550 3584 1831 3584 
Q 2591 3584 2966 3190 
Q 3341 2797 3341 1997 
z
" transform="scale(0.015625)"/>
      <path id="DejaVuSans-65" d="M 3597 1894 
L 3597 1613 
L 953 1613 
Q 991 1019 1311 708 
Q 1631 397 2203 397 
Q 2534 397 2845 478 
Q 3156 559 3463 722 
L 3463 178 
Q 3153 47 2828 -22 
Q 2503 -91 2169 -91 
Q 1331 -91 842 396 
Q 353 884 353 1716 
Q 353 2575 817 3079 
Q 1281 3584 2069 3584 
Q 2775 3584 3186 3129 
Q 3597 2675 3597 1894 
z
M 3022 2063 
Q 3016 2534 2758 2815 
Q 2500 3097 2075 3097 
Q 1594 3097 1305 2825 
Q 1016 2553 972 2059 
L 3022 2063 
z
" transform="scale(0.015625)"/>
      <path id="DejaVuSans-6f" d="M 1959 3097 
Q 1497 3097 1228 2736 
Q 959 2375 959 1747 
Q 959 1119 1226 758 
Q 1494 397 1959 397 
Q 2419 397 2687 759 
Q 2956 1122 2956 1747 
Q 2956 2369 2687 2733 
Q 2419 3097 1959 3097 
z
M 1959 3584 
Q 2709 3584 3137 3096 
Q 3566 2609 3566 1747 
Q 3566 888 3137 398 
Q 2709 -91 1959 -91 
Q 1206 -91 779 398 
Q 353 888 353 1747 
Q 353 2609 779 3096 
Q 1206 3584 1959 3584 
z
" transform="scale(0.015625)"/>
      <path id="DejaVuSans-66" d="M 2375 4863 
L 2375 4384 
L 1825 4384 
Q 1516 4384 1395 4259 
Q 1275 4134 1275 3809 
L 1275 3500 
L 2222 3500 
L 2222 3053 
L 1275 3053 
L 1275 0 
L 697 0 
L 697 3053 
L 147 3053 
L 147 3500 
L 697 3500 
L 697 3744 
Q 697 4328 969 4595 
Q 1241 4863 1831 4863 
L 2375 4863 
z
" transform="scale(0.015625)"/>
      <path id="DejaVuSans-68" d="M 3513 2113 
L 3513 0 
L 2938 0 
L 2938 2094 
Q 2938 2591 2744 2837 
Q 2550 3084 2163 3084 
Q 1697 3084 1428 2787 
Q 1159 2491 1159 1978 
L 1159 0 
L 581 0 
L 581 4863 
L 1159 4863 
L 1159 2956 
Q 1366 3272 1645 3428 
Q 1925 3584 2291 3584 
Q 2894 3584 3203 3211 
Q 3513 2838 3513 2113 
z
" transform="scale(0.015625)"/>
      <path id="DejaVuSans-72" d="M 2631 2963 
Q 2534 3019 2420 3045 
Q 2306 3072 2169 3072 
Q 1681 3072 1420 2755 
Q 1159 2438 1159 1844 
L 1159 0 
L 581 0 
L 581 3500 
L 1159 3500 
L 1159 2956 
Q 1341 3275 1631 3429 
Q 1922 3584 2338 3584 
Q 2397 3584 2469 3576 
Q 2541 3569 2628 3553 
L 2631 2963 
z
" transform="scale(0.015625)"/>
      <path id="DejaVuSans-67" d="M 2906 1791 
Q 2906 2416 2648 2759 
Q 2391 3103 1925 3103 
Q 1463 3103 1205 2759 
Q 947 2416 947 1791 
Q 947 1169 1205 825 
Q 1463 481 1925 481 
Q 2391 481 2648 825 
Q 2906 1169 2906 1791 
z
M 3481 434 
Q 3481 -459 3084 -895 
Q 2688 -1331 1869 -1331 
Q 1566 -1331 1297 -1286 
Q 1028 -1241 775 -1147 
L 775 -588 
Q 1028 -725 1275 -790 
Q 1522 -856 1778 -856 
Q 2344 -856 2625 -561 
Q 2906 -266 2906 331 
L 2906 616 
Q 2728 306 2450 153 
Q 2172 0 1784 0 
Q 1141 0 747 490 
Q 353 981 353 1791 
Q 353 2603 747 3093 
Q 1141 3584 1784 3584 
Q 2172 3584 2450 3431 
Q 2728 3278 2906 2969 
L 2906 3500 
L 3481 3500 
L 3481 434 
z
" transform="scale(0.015625)"/>
      <path id="DejaVuSans-76" d="M 191 3500 
L 800 3500 
L 1894 563 
L 2988 3500 
L 3597 3500 
L 2284 0 
L 1503 0 
L 191 3500 
z
" transform="scale(0.015625)"/>
      <path id="DejaVuSans-54" d="M -19 4666 
L 3928 4666 
L 3928 4134 
L 2272 4134 
L 2272 0 
L 1638 0 
L 1638 4134 
L -19 4134 
L -19 4666 
z
" transform="scale(0.015625)"/>
      <path id="DejaVuSans-69" d="M 603 3500 
L 1178 3500 
L 1178 0 
L 603 0 
L 603 3500 
z
M 603 4863 
L 1178 4863 
L 1178 4134 
L 603 4134 
L 603 4863 
z
" transform="scale(0.015625)"/>
      <path id="DejaVuSans-6d" d="M 3328 2828 
Q 3544 3216 3844 3400 
Q 4144 3584 4550 3584 
Q 5097 3584 5394 3201 
Q 5691 2819 5691 2113 
L 5691 0 
L 5113 0 
L 5113 2094 
Q 5113 2597 4934 2840 
Q 4756 3084 4391 3084 
Q 3944 3084 3684 2787 
Q 3425 2491 3425 1978 
L 3425 0 
L 2847 0 
L 2847 2094 
Q 2847 2600 2669 2842 
Q 2491 3084 2119 3084 
Q 1678 3084 1418 2786 
Q 1159 2488 1159 1978 
L 1159 0 
L 581 0 
L 581 3500 
L 1159 3500 
L 1159 2956 
Q 1356 3278 1631 3431 
Q 1906 3584 2284 3584 
Q 2666 3584 2933 3390 
Q 3200 3197 3328 2828 
z
" transform="scale(0.015625)"/>
     </defs>
     <use xlink:href="#DejaVuSans-53"/>
     <use xlink:href="#DejaVuSans-74" x="63.476562"/>
     <use xlink:href="#DejaVuSans-61" x="102.685547"/>
     <use xlink:href="#DejaVuSans-74" x="163.964844"/>
     <use xlink:href="#DejaVuSans-65" x="203.173828"/>
     <use xlink:href="#DejaVuSans-20" x="264.697266"/>
     <use xlink:href="#DejaVuSans-6f" x="296.484375"/>
     <use xlink:href="#DejaVuSans-66" x="357.666016"/>
     <use xlink:href="#DejaVuSans-20" x="392.871094"/>
     <use xlink:href="#DejaVuSans-43" x="424.658203"/>
     <use xlink:href="#DejaVuSans-68" x="494.482422"/>
     <use xlink:href="#DejaVuSans-61" x="557.861328"/>
     <use xlink:href="#DejaVuSans-72" x="619.140625"/>
     <use xlink:href="#DejaVuSans-67" x="658.503906"/>
     <use xlink:href="#DejaVuSans-65" x="721.980469"/>
     <use xlink:href="#DejaVuSans-20" x="783.503906"/>
     <use xlink:href="#DejaVuSans-4f" x="815.291016"/>
     <use xlink:href="#DejaVuSans-76" x="894.001953"/>
     <use xlink:href="#DejaVuSans-65" x="953.181641"/>
     <use xlink:href="#DejaVuSans-72" x="1014.705078"/>
     <use xlink:href="#DejaVuSans-20" x="1055.818359"/>
     <use xlink:href="#DejaVuSans-54" x="1087.605469"/>
     <use xlink:href="#DejaVuSans-69" x="1145.564453"/>
     <use xlink:href="#DejaVuSans-6d" x="1173.347656"/>
     <use xlink:href="#DejaVuSans-65" x="1270.759766"/>
    </g>
   </g>
  </g>
  <g id="axes_2">
   <g id="patch_7">
    <path d="M 54.2 265.27 
L 709.2 265.27 
L 709.2 159.825 
L 54.2 159.825 
z
" style="fill: #ffffff"/>
   </g>
   <g id="matplotlib.axis_3">
    <g id="xtick_6">
     <g id="line2d_22">
      <path d="M 83.972727 265.27 
L 83.972727 159.825 
" clip-path="url(#pac66098eed)" style="fill: none; stroke: #b0b0b0; stroke-width: 0.8; stroke-linecap: square"/>
     </g>
     <g id="line2d_23">
      <g>
       <use xlink:href="#mb3b84984d4" x="83.972727" y="265.27" style="stroke: #000000; stroke-width: 0.8"/>
      </g>
     </g>
    </g>
    <g id="xtick_7">
     <g id="line2d_24">
      <path d="M 221.812618 265.27 
L 221.812618 159.825 
" clip-path="url(#pac66098eed)" style="fill: none; stroke: #b0b0b0; stroke-width: 0.8; stroke-linecap: square"/>
     </g>
     <g id="line2d_25">
      <g>
       <use xlink:href="#mb3b84984d4" x="221.812618" y="265.27" style="stroke: #000000; stroke-width: 0.8"/>
      </g>
     </g>
    </g>
    <g id="xtick_8">
     <g id="line2d_26">
      <path d="M 359.652509 265.27 
L 359.652509 159.825 
" clip-path="url(#pac66098eed)" style="fill: none; stroke: #b0b0b0; stroke-width: 0.8; stroke-linecap: square"/>
     </g>
     <g id="line2d_27">
      <g>
       <use xlink:href="#mb3b84984d4" x="359.652509" y="265.27" style="stroke: #000000; stroke-width: 0.8"/>
      </g>
     </g>
    </g>
    <g id="xtick_9">
     <g id="line2d_28">
      <path d="M 497.4924 265.27 
L 497.4924 159.825 
" clip-path="url(#pac66098eed)" style="fill: none; stroke: #b0b0b0; stroke-width: 0.8; stroke-linecap: square"/>
     </g>
     <g id="line2d_29">
      <g>
       <use xlink:href="#mb3b84984d4" x="497.4924" y="265.27" style="stroke: #000000; stroke-width: 0.8"/>
      </g>
     </g>
    </g>
    <g id="xtick_10">
     <g id="line2d_30">
      <path d="M 635.332292 265.27 
L 635.332292 159.825 
" clip-path="url(#pac66098eed)" style="fill: none; stroke: #b0b0b0; stroke-width: 0.8; stroke-linecap: square"/>
     </g>
     <g id="line2d_31">
      <g>
       <use xlink:href="#mb3b84984d4" x="635.332292" y="265.27" style="stroke: #000000; stroke-width: 0.8"/>
      </g>
     </g>
    </g>
   </g>
   <g id="matplotlib.axis_4">
    <g id="ytick_6">
     <g id="line2d_32">
      <path d="M 54.2 260.477045 
L 709.2 260.477045 
" clip-path="url(#pac66098eed)" style="fill: none; stroke: #b0b0b0; stroke-width: 0.8; stroke-linecap: square"/>
     </g>
     <g id="line2d_33">
      <g>
       <use xlink:href="#mcf634d523b" x="54.2" y="260.477045" style="stroke: #000000; stroke-width: 0.8"/>
      </g>
     </g>
     <g id="text_8">
      <!-- 0.00 -->
      <g transform="translate(24.934375 264.276264) scale(0.1 -0.1)">
       <use xlink:href="#DejaVuSans-30"/>
       <use xlink:href="#DejaVuSans-2e" x="63.623047"/>
       <use xlink:href="#DejaVuSans-30" x="95.410156"/>
       <use xlink:href="#DejaVuSans-30" x="159.033203"/>
      </g>
     </g>
    </g>
    <g id="ytick_7">
     <g id="line2d_34">
      <path d="M 54.2 236.512273 
L 709.2 236.512273 
" clip-path="url(#pac66098eed)" style="fill: none; stroke: #b0b0b0; stroke-width: 0.8; stroke-linecap: square"/>
     </g>
     <g id="line2d_35">
      <g>
       <use xlink:href="#mcf634d523b" x="54.2" y="236.512273" style="stroke: #000000; stroke-width: 0.8"/>
      </g>
     </g>
     <g id="text_9">
      <!-- 0.25 -->
      <g transform="translate(24.934375 240.311491) scale(0.1 -0.1)">
       <defs>
        <path id="DejaVuSans-35" d="M 691 4666 
L 3169 4666 
L 3169 4134 
L 1269 4134 
L 1269 2991 
Q 1406 3038 1543 3061 
Q 1681 3084 1819 3084 
Q 2600 3084 3056 2656 
Q 3513 2228 3513 1497 
Q 3513 744 3044 326 
Q 2575 -91 1722 -91 
Q 1428 -91 1123 -41 
Q 819 9 494 109 
L 494 744 
Q 775 591 1075 516 
Q 1375 441 1709 441 
Q 2250 441 2565 725 
Q 2881 1009 2881 1497 
Q 2881 1984 2565 2268 
Q 2250 2553 1709 2553 
Q 1456 2553 1204 2497 
Q 953 2441 691 2322 
L 691 4666 
z
" transform="scale(0.015625)"/>
       </defs>
       <use xlink:href="#DejaVuSans-30"/>
       <use xlink:href="#DejaVuSans-2e" x="63.623047"/>
       <use xlink:href="#DejaVuSans-32" x="95.410156"/>
       <use xlink:href="#DejaVuSans-35" x="159.033203"/>
      </g>
     </g>
    </g>
    <g id="ytick_8">
     <g id="line2d_36">
      <path d="M 54.2 212.5475 
L 709.2 212.5475 
" clip-path="url(#pac66098eed)" style="fill: none; stroke: #b0b0b0; stroke-width: 0.8; stroke-linecap: square"/>
     </g>
     <g id="line2d_37">
      <g>
       <use xlink:href="#mcf634d523b" x="54.2" y="212.5475" style="stroke: #000000; stroke-width: 0.8"/>
      </g>
     </g>
     <g id="text_10">
      <!-- 0.50 -->
      <g transform="translate(24.934375 216.346719) scale(0.1 -0.1)">
       <use xlink:href="#DejaVuSans-30"/>
       <use xlink:href="#DejaVuSans-2e" x="63.623047"/>
       <use xlink:href="#DejaVuSans-35" x="95.410156"/>
       <use xlink:href="#DejaVuSans-30" x="159.033203"/>
      </g>
     </g>
    </g>
    <g id="ytick_9">
     <g id="line2d_38">
      <path d="M 54.2 188.582727 
L 709.2 188.582727 
" clip-path="url(#pac66098eed)" style="fill: none; stroke: #b0b0b0; stroke-width: 0.8; stroke-linecap: square"/>
     </g>
     <g id="line2d_39">
      <g>
       <use xlink:href="#mcf634d523b" x="54.2" y="188.582727" style="stroke: #000000; stroke-width: 0.8"/>
      </g>
     </g>
     <g id="text_11">
      <!-- 0.75 -->
      <g transform="translate(24.934375 192.381946) scale(0.1 -0.1)">
       <defs>
        <path id="DejaVuSans-37" d="M 525 4666 
L 3525 4666 
L 3525 4397 
L 1831 0 
L 1172 0 
L 2766 4134 
L 525 4134 
L 525 4666 
z
" transform="scale(0.015625)"/>
       </defs>
       <use xlink:href="#DejaVuSans-30"/>
       <use xlink:href="#DejaVuSans-2e" x="63.623047"/>
       <use xlink:href="#DejaVuSans-37" x="95.410156"/>
       <use xlink:href="#DejaVuSans-35" x="159.033203"/>
      </g>
     </g>
    </g>
    <g id="ytick_10">
     <g id="line2d_40">
      <path d="M 54.2 164.617955 
L 709.2 164.617955 
" clip-path="url(#pac66098eed)" style="fill: none; stroke: #b0b0b0; stroke-width: 0.8; stroke-linecap: square"/>
     </g>
     <g id="line2d_41">
      <g>
       <use xlink:href="#mcf634d523b" x="54.2" y="164.617955" style="stroke: #000000; stroke-width: 0.8"/>
      </g>
     </g>
     <g id="text_12">
      <!-- 1.00 -->
      <g transform="translate(24.934375 168.417173) scale(0.1 -0.1)">
       <defs>
        <path id="DejaVuSans-31" d="M 794 531 
L 1825 531 
L 1825 4091 
L 703 3866 
L 703 4441 
L 1819 4666 
L 2450 4666 
L 2450 531 
L 3481 531 
L 3481 0 
L 794 0 
L 794 531 
z
" transform="scale(0.015625)"/>
       </defs>
       <use xlink:href="#DejaVuSans-31"/>
       <use xlink:href="#DejaVuSans-2e" x="63.623047"/>
       <use xlink:href="#DejaVuSans-30" x="95.410156"/>
       <use xlink:href="#DejaVuSans-30" x="159.033203"/>
      </g>
     </g>
    </g>
    <g id="text_13">
     <!-- Occupancy -->
     <g transform="translate(18.854688 240.26625) rotate(-90) scale(0.1 -0.1)">
      <defs>
       <path id="DejaVuSans-63" d="M 3122 3366 
L 3122 2828 
Q 2878 2963 2633 3030 
Q 2388 3097 2138 3097 
Q 1578 3097 1268 2742 
Q 959 2388 959 1747 
Q 959 1106 1268 751 
Q 1578 397 2138 397 
Q 2388 397 2633 464 
Q 2878 531 3122 666 
L 3122 134 
Q 2881 22 2623 -34 
Q 2366 -91 2075 -91 
Q 1284 -91 818 406 
Q 353 903 353 1747 
Q 353 2603 823 3093 
Q 1294 3584 2113 3584 
Q 2378 3584 2631 3529 
Q 2884 3475 3122 3366 
z
" transform="scale(0.015625)"/>
       <path id="DejaVuSans-75" d="M 544 1381 
L 544 3500 
L 1119 3500 
L 1119 1403 
Q 1119 906 1312 657 
Q 1506 409 1894 409 
Q 2359 409 2629 706 
Q 2900 1003 2900 1516 
L 2900 3500 
L 3475 3500 
L 3475 0 
L 2900 0 
L 2900 538 
Q 2691 219 2414 64 
Q 2138 -91 1772 -91 
Q 1169 -91 856 284 
Q 544 659 544 1381 
z
M 1991 3584 
L 1991 3584 
z
" transform="scale(0.015625)"/>
       <path id="DejaVuSans-70" d="M 1159 525 
L 1159 -1331 
L 581 -1331 
L 581 3500 
L 1159 3500 
L 1159 2969 
Q 1341 3281 1617 3432 
Q 1894 3584 2278 3584 
Q 2916 3584 3314 3078 
Q 3713 2572 3713 1747 
Q 3713 922 3314 415 
Q 2916 -91 2278 -91 
Q 1894 -91 1617 61 
Q 1341 213 1159 525 
z
M 3116 1747 
Q 3116 2381 2855 2742 
Q 2594 3103 2138 3103 
Q 1681 3103 1420 2742 
Q 1159 2381 1159 1747 
Q 1159 1113 1420 752 
Q 1681 391 2138 391 
Q 2594 391 2855 752 
Q 3116 1113 3116 1747 
z
" transform="scale(0.015625)"/>
       <path id="DejaVuSans-6e" d="M 3513 2113 
L 3513 0 
L 2938 0 
L 2938 2094 
Q 2938 2591 2744 2837 
Q 2550 3084 2163 3084 
Q 1697 3084 1428 2787 
Q 1159 2491 1159 1978 
L 1159 0 
L 581 0 
L 581 3500 
L 1159 3500 
L 1159 2956 
Q 1366 3272 1645 3428 
Q 1925 3584 2291 3584 
Q 2894 3584 3203 3211 
Q 3513 2838 3513 2113 
z
" transform="scale(0.015625)"/>
       <path id="DejaVuSans-79" d="M 2059 -325 
Q 1816 -950 1584 -1140 
Q 1353 -1331 966 -1331 
L 506 -1331 
L 506 -850 
L 844 -850 
Q 1081 -850 1212 -737 
Q 1344 -625 1503 -206 
L 1606 56 
L 191 3500 
L 800 3500 
L 1894 763 
L 2988 3500 
L 3597 3500 
L 2059 -325 
z
" transform="scale(0.015625)"/>
      </defs>
      <use xlink:href="#DejaVuSans-4f"/>
      <use xlink:href="#DejaVuSans-63" x="78.710938"/>
      <use xlink:href="#DejaVuSans-63" x="133.691406"/>
      <use xlink:href="#DejaVuSans-75" x="188.671875"/>
      <use xlink:href="#DejaVuSans-70" x="252.050781"/>
      <use xlink:href="#DejaVuSans-61" x="315.527344"/>
      <use xlink:href="#DejaVuSans-6e" x="376.806641"/>
      <use xlink:href="#DejaVuSans-63" x="440.185547"/>
      <use xlink:href="#DejaVuSans-79" x="495.166016"/>
     </g>
    </g>
   </g>
   <g id="line2d_42">
    <path d="M 83.972727 164.617955 
L 118.970276 164.617955 
L 119.094332 260.477045 
L 123.105472 260.477045 
L 123.229528 164.617955 
L 132.202905 164.617955 
L 132.326961 260.477045 
L 132.478585 260.477045 
L 132.602641 164.617955 
L 136.475942 164.617955 
L 136.599998 260.477045 
L 141.162498 260.477045 
L 141.286554 164.617955 
L 158.530324 164.617955 
L 158.65438 260.477045 
L 158.943844 260.477045 
L 159.0679 164.617955 
L 175.898151 164.617955 
L 176.022207 260.477045 
L 177.414389 260.477045 
L 177.538445 164.617955 
L 193.265977 164.617955 
L 193.390033 260.477045 
L 195.057895 260.477045 
L 195.181951 164.617955 
L 198.366053 164.617955 
L 198.490109 260.477045 
L 198.641733 260.477045 
L 198.765789 164.617955 
L 212.425722 164.617955 
L 212.549778 260.477045 
L 213.252761 260.477045 
L 213.376817 164.617955 
L 214.769 164.617955 
L 214.893056 260.477045 
L 215.871719 260.477045 
L 215.995775 164.617955 
L 216.147399 164.617955 
L 216.271455 260.477045 
L 217.387958 260.477045 
L 217.512014 164.617955 
L 257.912886 164.617955 
L 258.036942 260.477045 
L 262.048083 260.477045 
L 262.172138 164.617955 
L 271.145515 164.617955 
L 271.269571 260.477045 
L 271.421195 260.477045 
L 271.545251 164.617955 
L 275.418552 164.617955 
L 275.542608 260.477045 
L 280.105108 260.477045 
L 280.229164 164.617955 
L 297.472935 164.617955 
L 297.59699 260.477045 
L 297.886454 260.477045 
L 298.01051 164.617955 
L 314.840761 164.617955 
L 314.964817 260.477045 
L 316.357 260.477045 
L 316.481056 164.617955 
L 332.208587 164.617955 
L 332.332643 260.477045 
L 334.000506 260.477045 
L 334.124562 164.617955 
L 337.308663 164.617955 
L 337.432719 260.477045 
L 337.584343 260.477045 
L 337.708399 164.617955 
L 351.368332 164.617955 
L 351.492388 260.477045 
L 352.195371 260.477045 
L 352.319427 164.617955 
L 353.71161 164.617955 
L 353.835666 260.477045 
L 354.814329 260.477045 
L 354.938385 164.617955 
L 355.090009 164.617955 
L 355.214065 260.477045 
L 356.330568 260.477045 
L 356.454624 164.617955 
L 396.855496 164.617955 
L 396.979552 260.477045 
L 400.990693 260.477045 
L 401.114749 164.617955 
L 410.088126 164.617955 
L 410.212181 260.477045 
L 410.363805 260.477045 
L 410.487861 164.617955 
L 414.361162 164.617955 
L 414.485218 260.477045 
L 419.047718 260.477045 
L 419.171774 164.617955 
L 436.415545 164.617955 
L 436.539601 260.477045 
L 436.829064 260.477045 
L 436.95312 164.617955 
L 453.783371 164.617955 
L 453.907427 260.477045 
L 455.29961 260.477045 
L 455.423666 164.617955 
L 471.151197 164.617955 
L 471.275253 260.477045 
L 472.943116 260.477045 
L 473.067172 164.617955 
L 476.251273 164.617955 
L 476.375329 260.477045 
L 476.526953 260.477045 
L 476.651009 164.617955 
L 490.310942 164.617955 
L 490.434998 260.477045 
L 491.137982 260.477045 
L 491.262037 164.617955 
L 492.65422 164.617955 
L 492.778276 260.477045 
L 493.756939 260.477045 
L 493.880995 164.617955 
L 494.032619 164.617955 
L 494.156675 260.477045 
L 495.273178 260.477045 
L 495.397234 164.617955 
L 535.798106 164.617955 
L 535.922162 260.477045 
L 539.933303 260.477045 
L 540.057359 164.617955 
L 549.030736 164.617955 
L 549.154792 260.477045 
L 549.306416 260.477045 
L 549.430471 164.617955 
L 553.303772 164.617955 
L 553.427828 260.477045 
L 557.990329 260.477045 
L 558.114385 164.617955 
L 575.358155 164.617955 
L 575.482211 260.477045 
L 575.771675 260.477045 
L 575.895731 164.617955 
L 592.725981 164.617955 
L 592.850037 260.477045 
L 594.24222 260.477045 
L 594.366276 164.617955 
L 610.093808 164.617955 
L 610.217863 260.477045 
L 611.885726 260.477045 
L 612.009782 164.617955 
L 615.193883 164.617955 
L 615.317939 260.477045 
L 615.469563 260.477045 
L 615.593619 164.617955 
L 629.253552 164.617955 
L 629.377608 260.477045 
L 630.080592 260.477045 
L 630.204648 164.617955 
L 631.596831 164.617955 
L 631.720886 260.477045 
L 632.69955 260.477045 
L 632.823606 164.617955 
L 632.975229 164.617955 
L 633.099285 260.477045 
L 634.215788 260.477045 
L 634.339844 164.617955 
L 674.740716 164.617955 
L 674.864772 260.477045 
L 678.875913 260.477045 
L 678.999969 164.617955 
L 679.427273 164.617955 
L 679.427273 164.617955 
" clip-path="url(#pac66098eed)" style="fill: none; stroke: #008000; stroke-width: 1.5; stroke-linecap: square"/>
   </g>
   <g id="patch_8">
    <path d="M 54.2 265.27 
L 54.2 159.825 
" style="fill: none; stroke: #000000; stroke-width: 0.8; stroke-linejoin: miter; stroke-linecap: square"/>
   </g>
   <g id="patch_9">
    <path d="M 709.2 265.27 
L 709.2 159.825 
" style="fill: none; stroke: #000000; stroke-width: 0.8; stroke-linejoin: miter; stroke-linecap: square"/>
   </g>
   <g id="patch_10">
    <path d="M 54.2 265.27 
L 709.2 265.27 
" style="fill: none; stroke: #000000; stroke-width: 0.8; stroke-linejoin: miter; stroke-linecap: square"/>
   </g>
   <g id="patch_11">
    <path d="M 54.2 159.825 
L 709.2 159.825 
" style="fill: none; stroke: #000000; stroke-width: 0.8; stroke-linejoin: miter; stroke-linecap: square"/>
   </g>
   <g id="text_14">
    <!-- Occupancy Over Time -->
    <g transform="translate(315.510625 153.825) scale(0.12 -0.12)">
     <use xlink:href="#DejaVuSans-4f"/>
     <use xlink:href="#DejaVuSans-63" x="78.710938"/>
     <use xlink:href="#DejaVuSans-63" x="133.691406"/>
     <use xlink:href="#DejaVuSans-75" x="188.671875"/>
     <use xlink:href="#DejaVuSans-70" x="252.050781"/>
     <use xlink:href="#DejaVuSans-61" x="315.527344"/>
     <use xlink:href="#DejaVuSans-6e" x="376.806641"/>
     <use xlink:href="#DejaVuSans-63" x="440.185547"/>
     <use xlink:href="#DejaVuSans-79" x="495.166016"/>
     <use xlink:href="#DejaVuSans-20" x="554.345703"/>
     <use xlink:href="#DejaVuSans-4f" x="586.132812"/>
     <use xlink:href="#DejaVuSans-76" x="664.84375"/>
     <use xlink:href="#DejaVuSans-65" x="724.023438"/>
     <use xlink:href="#DejaVuSans-72" x="785.546875"/>
     <use xlink:href="#DejaVuSans-20" x="826.660156"/>
     <use xlink:href="#DejaVuSans-54" x="858.447266"/>
     <use xlink:href="#DejaVuSans-69" x="916.40625"/>
     <use xlink:href="#DejaVuSans-6d" x="944.189453"/>
     <use xlink:href="#DejaVuSans-65" x="1041.601562"/>
    </g>
   </g>
  </g>
  <g id="axes_3">
   <g id="patch_12">
    <path d="M 54.2 399.655 
L 709.2 399.655 
L 709.2 294.21 
L 54.2 294.21 
z
" style="fill: #ffffff"/>
   </g>
   <g id="matplotlib.axis_5">
    <g id="xtick_11">
     <g id="line2d_43">
      <path d="M 83.972727 399.655 
L 83.972727 294.21 
" clip-path="url(#p8ef8999b14)" style="fill: none; stroke: #b0b0b0; stroke-width: 0.8; stroke-linecap: square"/>
     </g>
     <g id="line2d_44">
      <g>
       <use xlink:href="#mb3b84984d4" x="83.972727" y="399.655" style="stroke: #000000; stroke-width: 0.8"/>
      </g>
     </g>
    </g>
    <g id="xtick_12">
     <g id="line2d_45">
      <path d="M 221.812618 399.655 
L 221.812618 294.21 
" clip-path="url(#p8ef8999b14)" style="fill: none; stroke: #b0b0b0; stroke-width: 0.8; stroke-linecap: square"/>
     </g>
     <g id="line2d_46">
      <g>
       <use xlink:href="#mb3b84984d4" x="221.812618" y="399.655" style="stroke: #000000; stroke-width: 0.8"/>
      </g>
     </g>
    </g>
    <g id="xtick_13">
     <g id="line2d_47">
      <path d="M 359.652509 399.655 
L 359.652509 294.21 
" clip-path="url(#p8ef8999b14)" style="fill: none; stroke: #b0b0b0; stroke-width: 0.8; stroke-linecap: square"/>
     </g>
     <g id="line2d_48">
      <g>
       <use xlink:href="#mb3b84984d4" x="359.652509" y="399.655" style="stroke: #000000; stroke-width: 0.8"/>
      </g>
     </g>
    </g>
    <g id="xtick_14">
     <g id="line2d_49">
      <path d="M 497.4924 399.655 
L 497.4924 294.21 
" clip-path="url(#p8ef8999b14)" style="fill: none; stroke: #b0b0b0; stroke-width: 0.8; stroke-linecap: square"/>
     </g>
     <g id="line2d_50">
      <g>
       <use xlink:href="#mb3b84984d4" x="497.4924" y="399.655" style="stroke: #000000; stroke-width: 0.8"/>
      </g>
     </g>
    </g>
    <g id="xtick_15">
     <g id="line2d_51">
      <path d="M 635.332292 399.655 
L 635.332292 294.21 
" clip-path="url(#p8ef8999b14)" style="fill: none; stroke: #b0b0b0; stroke-width: 0.8; stroke-linecap: square"/>
     </g>
     <g id="line2d_52">
      <g>
       <use xlink:href="#mb3b84984d4" x="635.332292" y="399.655" style="stroke: #000000; stroke-width: 0.8"/>
      </g>
     </g>
    </g>
   </g>
   <g id="matplotlib.axis_6">
    <g id="ytick_11">
     <g id="line2d_53">
      <path d="M 54.2 394.862045 
L 709.2 394.862045 
" clip-path="url(#p8ef8999b14)" style="fill: none; stroke: #b0b0b0; stroke-width: 0.8; stroke-linecap: square"/>
     </g>
     <g id="line2d_54">
      <g>
       <use xlink:href="#mcf634d523b" x="54.2" y="394.862045" style="stroke: #000000; stroke-width: 0.8"/>
      </g>
     </g>
     <g id="text_15">
      <!-- 0 -->
      <g transform="translate(40.8375 398.661264) scale(0.1 -0.1)">
       <use xlink:href="#DejaVuSans-30"/>
      </g>
     </g>
    </g>
    <g id="ytick_12">
     <g id="line2d_55">
      <path d="M 54.2 368.954183 
L 709.2 368.954183 
" clip-path="url(#p8ef8999b14)" style="fill: none; stroke: #b0b0b0; stroke-width: 0.8; stroke-linecap: square"/>
     </g>
     <g id="line2d_56">
      <g>
       <use xlink:href="#mcf634d523b" x="54.2" y="368.954183" style="stroke: #000000; stroke-width: 0.8"/>
      </g>
     </g>
     <g id="text_16">
      <!-- 2 -->
      <g transform="translate(40.8375 372.753402) scale(0.1 -0.1)">
       <use xlink:href="#DejaVuSans-32"/>
      </g>
     </g>
    </g>
    <g id="ytick_13">
     <g id="line2d_57">
      <path d="M 54.2 343.046321 
L 709.2 343.046321 
" clip-path="url(#p8ef8999b14)" style="fill: none; stroke: #b0b0b0; stroke-width: 0.8; stroke-linecap: square"/>
     </g>
     <g id="line2d_58">
      <g>
       <use xlink:href="#mcf634d523b" x="54.2" y="343.046321" style="stroke: #000000; stroke-width: 0.8"/>
      </g>
     </g>
     <g id="text_17">
      <!-- 4 -->
      <g transform="translate(40.8375 346.845539) scale(0.1 -0.1)">
       <use xlink:href="#DejaVuSans-34"/>
      </g>
     </g>
    </g>
    <g id="ytick_14">
     <g id="line2d_59">
      <path d="M 54.2 317.138458 
L 709.2 317.138458 
" clip-path="url(#p8ef8999b14)" style="fill: none; stroke: #b0b0b0; stroke-width: 0.8; stroke-linecap: square"/>
     </g>
     <g id="line2d_60">
      <g>
       <use xlink:href="#mcf634d523b" x="54.2" y="317.138458" style="stroke: #000000; stroke-width: 0.8"/>
      </g>
     </g>
     <g id="text_18">
      <!-- 6 -->
      <g transform="translate(40.8375 320.937677) scale(0.1 -0.1)">
       <use xlink:href="#DejaVuSans-36"/>
      </g>
     </g>
    </g>
    <g id="text_19">
     <!-- Load (kW) -->
     <g transform="translate(34.757812 372.258281) rotate(-90) scale(0.1 -0.1)">
      <defs>
       <path id="DejaVuSans-4c" d="M 628 4666 
L 1259 4666 
L 1259 531 
L 3531 531 
L 3531 0 
L 628 0 
L 628 4666 
z
" transform="scale(0.015625)"/>
       <path id="DejaVuSans-64" d="M 2906 2969 
L 2906 4863 
L 3481 4863 
L 3481 0 
L 2906 0 
L 2906 525 
Q 2725 213 2448 61 
Q 2172 -91 1784 -91 
Q 1150 -91 751 415 
Q 353 922 353 1747 
Q 353 2572 751 3078 
Q 1150 3584 1784 3584 
Q 2172 3584 2448 3432 
Q 2725 3281 2906 2969 
z
M 947 1747 
Q 947 1113 1208 752 
Q 1469 391 1925 391 
Q 2381 391 2643 752 
Q 2906 1113 2906 1747 
Q 2906 2381 2643 2742 
Q 2381 3103 1925 3103 
Q 1469 3103 1208 2742 
Q 947 2381 947 1747 
z
" transform="scale(0.015625)"/>
       <path id="DejaVuSans-6b" d="M 581 4863 
L 1159 4863 
L 1159 1991 
L 2875 3500 
L 3609 3500 
L 1753 1863 
L 3688 0 
L 2938 0 
L 1159 1709 
L 1159 0 
L 581 0 
L 581 4863 
z
" transform="scale(0.015625)"/>
       <path id="DejaVuSans-57" d="M 213 4666 
L 850 4666 
L 1831 722 
L 2809 4666 
L 3519 4666 
L 4500 722 
L 5478 4666 
L 6119 4666 
L 4947 0 
L 4153 0 
L 3169 4050 
L 2175 0 
L 1381 0 
L 213 4666 
z
" transform="scale(0.015625)"/>
      </defs>
      <use xlink:href="#DejaVuSans-4c"/>
      <use xlink:href="#DejaVuSans-6f" x="53.962891"/>
      <use xlink:href="#DejaVuSans-61" x="115.144531"/>
      <use xlink:href="#DejaVuSans-64" x="176.423828"/>
      <use xlink:href="#DejaVuSans-20" x="239.900391"/>
      <use xlink:href="#DejaVuSans-28" x="271.6875"/>
      <use xlink:href="#DejaVuSans-6b" x="310.701172"/>
      <use xlink:href="#DejaVuSans-57" x="368.611328"/>
      <use xlink:href="#DejaVuSans-29" x="467.488281"/>
     </g>
    </g>
   </g>
   <g id="line2d_61">
    <path d="M 83.972727 394.862045 
L 123.105472 394.862045 
L 123.229528 299.002955 
L 123.656832 299.002955 
L 123.780888 394.862045 
L 132.478585 394.862045 
L 132.575073 299.002955 
L 132.588857 394.862045 
L 141.162498 394.862045 
L 141.286554 299.002955 
L 141.82413 299.002955 
L 141.948185 394.862045 
L 158.943844 394.862045 
L 159.0679 299.002955 
L 159.853587 299.002955 
L 159.977643 394.862045 
L 177.414389 394.862045 
L 177.538445 299.002955 
L 178.200077 299.002955 
L 178.324133 394.862045 
L 195.057895 394.862045 
L 195.181951 299.002955 
L 196.036559 299.002955 
L 196.160615 394.862045 
L 198.641733 394.862045 
L 198.765789 299.002955 
L 198.931196 299.002955 
L 199.055252 394.862045 
L 213.252761 394.862045 
L 213.376817 299.002955 
L 213.776553 299.002955 
L 213.900609 394.862045 
L 215.871719 394.862045 
L 215.995775 299.002955 
L 216.147399 299.002955 
L 216.271455 394.862045 
L 217.387958 394.862045 
L 217.512014 299.002955 
L 218.201213 299.002955 
L 218.325269 394.862045 
L 262.048083 394.862045 
L 262.172138 299.002955 
L 262.599442 299.002955 
L 262.613226 394.862045 
L 262.709714 299.002955 
L 262.957826 299.002955 
L 263.081882 394.862045 
L 271.421195 394.862045 
L 271.490115 299.002955 
L 271.531467 394.862045 
L 280.105108 394.862045 
L 280.229164 299.002955 
L 280.83566 299.002955 
L 280.959716 394.862045 
L 297.886454 394.862045 
L 298.01051 299.002955 
L 299.140797 299.002955 
L 299.264853 394.862045 
L 316.357 394.862045 
L 316.481056 299.002955 
L 316.991063 299.002955 
L 317.115119 394.862045 
L 334.000506 394.862045 
L 334.124562 299.002955 
L 334.951601 299.002955 
L 335.075657 394.862045 
L 337.584343 394.862045 
L 337.708399 299.002955 
L 337.901375 299.002955 
L 338.025431 394.862045 
L 352.195371 394.862045 
L 352.319427 299.002955 
L 352.829435 299.002955 
L 352.953491 394.862045 
L 354.814329 394.862045 
L 354.938385 299.002955 
L 355.090009 299.002955 
L 355.214065 394.862045 
L 356.330568 394.862045 
L 356.454624 299.002955 
L 357.336799 299.002955 
L 357.460855 394.862045 
L 400.990693 394.862045 
L 401.114749 299.002955 
L 401.542052 299.002955 
L 401.555836 394.862045 
L 401.652324 299.002955 
L 401.928004 299.002955 
L 402.05206 394.862045 
L 410.363805 394.862045 
L 410.474077 299.002955 
L 410.598133 394.862045 
L 419.047718 394.862045 
L 419.171774 299.002955 
L 419.585294 299.002955 
L 419.70935 394.862045 
L 436.829064 394.862045 
L 436.95312 299.002955 
L 438.221247 299.002955 
L 438.345303 394.862045 
L 455.29961 394.862045 
L 455.423666 299.002955 
L 456.250705 299.002955 
L 456.374761 394.862045 
L 472.943116 394.862045 
L 473.067172 299.002955 
L 473.728803 299.002955 
L 473.852859 394.862045 
L 476.526953 394.862045 
L 476.651009 299.002955 
L 476.761281 299.002955 
L 476.885337 394.862045 
L 491.137982 394.862045 
L 491.262037 299.002955 
L 491.399877 299.002955 
L 491.523933 394.862045 
L 493.756939 394.862045 
L 493.880995 299.002955 
L 494.032619 299.002955 
L 494.156675 394.862045 
L 495.273178 394.862045 
L 495.397234 299.002955 
L 495.93481 299.002955 
L 496.058866 394.862045 
L 539.933303 394.862045 
L 540.057359 299.002955 
L 540.484663 299.002955 
L 540.498447 394.862045 
L 540.594934 299.002955 
L 540.78791 299.002955 
L 540.911966 394.862045 
L 549.306416 394.862045 
L 549.430471 299.002955 
L 549.444255 299.002955 
L 549.568311 394.862045 
L 557.990329 394.862045 
L 558.114385 299.002955 
L 558.99656 299.002955 
L 559.120616 394.862045 
L 575.771675 394.862045 
L 575.895731 299.002955 
L 576.667634 299.002955 
L 576.79169 394.862045 
L 594.24222 394.862045 
L 594.366276 299.002955 
L 595.193315 299.002955 
L 595.317371 394.862045 
L 611.885726 394.862045 
L 612.009782 299.002955 
L 612.602494 299.002955 
L 612.726549 394.862045 
L 615.469563 394.862045 
L 615.593619 299.002955 
L 615.676323 299.002955 
L 615.800379 394.862045 
L 630.080592 394.862045 
L 630.204648 299.002955 
L 630.521679 299.002955 
L 630.645735 394.862045 
L 632.69955 394.862045 
L 632.823606 299.002955 
L 632.975229 299.002955 
L 633.099285 394.862045 
L 634.215788 394.862045 
L 634.339844 299.002955 
L 635.249588 299.002955 
L 635.373644 394.862045 
L 678.875913 394.862045 
L 678.999969 299.002955 
L 679.427273 299.002955 
L 679.427273 299.002955 
" clip-path="url(#p8ef8999b14)" style="fill: none; stroke: #ffa500; stroke-width: 1.5; stroke-linecap: square"/>
   </g>
   <g id="patch_13">
    <path d="M 54.2 399.655 
L 54.2 294.21 
" style="fill: none; stroke: #000000; stroke-width: 0.8; stroke-linejoin: miter; stroke-linecap: square"/>
   </g>
   <g id="patch_14">
    <path d="M 709.2 399.655 
L 709.2 294.21 
" style="fill: none; stroke: #000000; stroke-width: 0.8; stroke-linejoin: miter; stroke-linecap: square"/>
   </g>
   <g id="patch_15">
    <path d="M 54.2 399.655 
L 709.2 399.655 
" style="fill: none; stroke: #000000; stroke-width: 0.8; stroke-linejoin: miter; stroke-linecap: square"/>
   </g>
   <g id="patch_16">
    <path d="M 54.2 294.21 
L 709.2 294.21 
" style="fill: none; stroke: #000000; stroke-width: 0.8; stroke-linejoin: miter; stroke-linecap: square"/>
   </g>
   <g id="text_20">
    <!-- Load Profile Over Time -->
    <g transform="translate(313.8175 288.21) scale(0.12 -0.12)">
     <defs>
      <path id="DejaVuSans-50" d="M 1259 4147 
L 1259 2394 
L 2053 2394 
Q 2494 2394 2734 2622 
Q 2975 2850 2975 3272 
Q 2975 3691 2734 3919 
Q 2494 4147 2053 4147 
L 1259 4147 
z
M 628 4666 
L 2053 4666 
Q 2838 4666 3239 4311 
Q 3641 3956 3641 3272 
Q 3641 2581 3239 2228 
Q 2838 1875 2053 1875 
L 1259 1875 
L 1259 0 
L 628 0 
L 628 4666 
z
" transform="scale(0.015625)"/>
      <path id="DejaVuSans-6c" d="M 603 4863 
L 1178 4863 
L 1178 0 
L 603 0 
L 603 4863 
z
" transform="scale(0.015625)"/>
     </defs>
     <use xlink:href="#DejaVuSans-4c"/>
     <use xlink:href="#DejaVuSans-6f" x="53.962891"/>
     <use xlink:href="#DejaVuSans-61" x="115.144531"/>
     <use xlink:href="#DejaVuSans-64" x="176.423828"/>
     <use xlink:href="#DejaVuSans-20" x="239.900391"/>
     <use xlink:href="#DejaVuSans-50" x="271.6875"/>
     <use xlink:href="#DejaVuSans-72" x="330.240234"/>
     <use xlink:href="#DejaVuSans-6f" x="369.103516"/>
     <use xlink:href="#DejaVuSans-66" x="430.285156"/>
     <use xlink:href="#DejaVuSans-69" x="465.490234"/>
     <use xlink:href="#DejaVuSans-6c" x="493.273438"/>
     <use xlink:href="#DejaVuSans-65" x="521.056641"/>
     <use xlink:href="#DejaVuSans-20" x="582.580078"/>
     <use xlink:href="#DejaVuSans-4f" x="614.367188"/>
     <use xlink:href="#DejaVuSans-76" x="693.078125"/>
     <use xlink:href="#DejaVuSans-65" x="752.257812"/>
     <use xlink:href="#DejaVuSans-72" x="813.78125"/>
     <use xlink:href="#DejaVuSans-20" x="854.894531"/>
     <use xlink:href="#DejaVuSans-54" x="886.681641"/>
     <use xlink:href="#DejaVuSans-69" x="944.640625"/>
     <use xlink:href="#DejaVuSans-6d" x="972.423828"/>
     <use xlink:href="#DejaVuSans-65" x="1069.835938"/>
    </g>
   </g>
  </g>
  <g id="axes_4">
   <g id="patch_17">
    <path d="M 54.2 534.04 
L 709.2 534.04 
L 709.2 428.595 
L 54.2 428.595 
z
" style="fill: #ffffff"/>
   </g>
   <g id="matplotlib.axis_7">
    <g id="xtick_16">
     <g id="line2d_62">
      <path d="M 83.972727 534.04 
L 83.972727 428.595 
" clip-path="url(#p89227410e0)" style="fill: none; stroke: #b0b0b0; stroke-width: 0.8; stroke-linecap: square"/>
     </g>
     <g id="line2d_63">
      <g>
       <use xlink:href="#mb3b84984d4" x="83.972727" y="534.04" style="stroke: #000000; stroke-width: 0.8"/>
      </g>
     </g>
     <g id="text_21">
      <!-- 0 -->
      <g transform="translate(80.791477 548.638438) scale(0.1 -0.1)">
       <use xlink:href="#DejaVuSans-30"/>
      </g>
     </g>
    </g>
    <g id="xtick_17">
     <g id="line2d_64">
      <path d="M 221.812618 534.04 
L 221.812618 428.595 
" clip-path="url(#p89227410e0)" style="fill: none; stroke: #b0b0b0; stroke-width: 0.8; stroke-linecap: square"/>
     </g>
     <g id="line2d_65">
      <g>
       <use xlink:href="#mb3b84984d4" x="221.812618" y="534.04" style="stroke: #000000; stroke-width: 0.8"/>
      </g>
     </g>
     <g id="text_22">
      <!-- 10000 -->
      <g transform="translate(205.906368 548.638438) scale(0.1 -0.1)">
       <use xlink:href="#DejaVuSans-31"/>
       <use xlink:href="#DejaVuSans-30" x="63.623047"/>
       <use xlink:href="#DejaVuSans-30" x="127.246094"/>
       <use xlink:href="#DejaVuSans-30" x="190.869141"/>
       <use xlink:href="#DejaVuSans-30" x="254.492188"/>
      </g>
     </g>
    </g>
    <g id="xtick_18">
     <g id="line2d_66">
      <path d="M 359.652509 534.04 
L 359.652509 428.595 
" clip-path="url(#p89227410e0)" style="fill: none; stroke: #b0b0b0; stroke-width: 0.8; stroke-linecap: square"/>
     </g>
     <g id="line2d_67">
      <g>
       <use xlink:href="#mb3b84984d4" x="359.652509" y="534.04" style="stroke: #000000; stroke-width: 0.8"/>
      </g>
     </g>
     <g id="text_23">
      <!-- 20000 -->
      <g transform="translate(343.746259 548.638438) scale(0.1 -0.1)">
       <use xlink:href="#DejaVuSans-32"/>
       <use xlink:href="#DejaVuSans-30" x="63.623047"/>
       <use xlink:href="#DejaVuSans-30" x="127.246094"/>
       <use xlink:href="#DejaVuSans-30" x="190.869141"/>
       <use xlink:href="#DejaVuSans-30" x="254.492188"/>
      </g>
     </g>
    </g>
    <g id="xtick_19">
     <g id="line2d_68">
      <path d="M 497.4924 534.04 
L 497.4924 428.595 
" clip-path="url(#p89227410e0)" style="fill: none; stroke: #b0b0b0; stroke-width: 0.8; stroke-linecap: square"/>
     </g>
     <g id="line2d_69">
      <g>
       <use xlink:href="#mb3b84984d4" x="497.4924" y="534.04" style="stroke: #000000; stroke-width: 0.8"/>
      </g>
     </g>
     <g id="text_24">
      <!-- 30000 -->
      <g transform="translate(481.58615 548.638438) scale(0.1 -0.1)">
       <defs>
        <path id="DejaVuSans-33" d="M 2597 2516 
Q 3050 2419 3304 2112 
Q 3559 1806 3559 1356 
Q 3559 666 3084 287 
Q 2609 -91 1734 -91 
Q 1441 -91 1130 -33 
Q 819 25 488 141 
L 488 750 
Q 750 597 1062 519 
Q 1375 441 1716 441 
Q 2309 441 2620 675 
Q 2931 909 2931 1356 
Q 2931 1769 2642 2001 
Q 2353 2234 1838 2234 
L 1294 2234 
L 1294 2753 
L 1863 2753 
Q 2328 2753 2575 2939 
Q 2822 3125 2822 3475 
Q 2822 3834 2567 4026 
Q 2313 4219 1838 4219 
Q 1578 4219 1281 4162 
Q 984 4106 628 3988 
L 628 4550 
Q 988 4650 1302 4700 
Q 1616 4750 1894 4750 
Q 2613 4750 3031 4423 
Q 3450 4097 3450 3541 
Q 3450 3153 3228 2886 
Q 3006 2619 2597 2516 
z
" transform="scale(0.015625)"/>
       </defs>
       <use xlink:href="#DejaVuSans-33"/>
       <use xlink:href="#DejaVuSans-30" x="63.623047"/>
       <use xlink:href="#DejaVuSans-30" x="127.246094"/>
       <use xlink:href="#DejaVuSans-30" x="190.869141"/>
       <use xlink:href="#DejaVuSans-30" x="254.492188"/>
      </g>
     </g>
    </g>
    <g id="xtick_20">
     <g id="line2d_70">
      <path d="M 635.332292 534.04 
L 635.332292 428.595 
" clip-path="url(#p89227410e0)" style="fill: none; stroke: #b0b0b0; stroke-width: 0.8; stroke-linecap: square"/>
     </g>
     <g id="line2d_71">
      <g>
       <use xlink:href="#mb3b84984d4" x="635.332292" y="534.04" style="stroke: #000000; stroke-width: 0.8"/>
      </g>
     </g>
     <g id="text_25">
      <!-- 40000 -->
      <g transform="translate(619.426042 548.638438) scale(0.1 -0.1)">
       <use xlink:href="#DejaVuSans-34"/>
       <use xlink:href="#DejaVuSans-30" x="63.623047"/>
       <use xlink:href="#DejaVuSans-30" x="127.246094"/>
       <use xlink:href="#DejaVuSans-30" x="190.869141"/>
       <use xlink:href="#DejaVuSans-30" x="254.492188"/>
      </g>
     </g>
    </g>
    <g id="text_26">
     <!-- Time [min] -->
     <g transform="translate(354.547656 562.316562) scale(0.1 -0.1)">
      <defs>
       <path id="DejaVuSans-5b" d="M 550 4863 
L 1875 4863 
L 1875 4416 
L 1125 4416 
L 1125 -397 
L 1875 -397 
L 1875 -844 
L 550 -844 
L 550 4863 
z
" transform="scale(0.015625)"/>
       <path id="DejaVuSans-5d" d="M 1947 4863 
L 1947 -844 
L 622 -844 
L 622 -397 
L 1369 -397 
L 1369 4416 
L 622 4416 
L 622 4863 
L 1947 4863 
z
" transform="scale(0.015625)"/>
      </defs>
      <use xlink:href="#DejaVuSans-54"/>
      <use xlink:href="#DejaVuSans-69" x="57.958984"/>
      <use xlink:href="#DejaVuSans-6d" x="85.742188"/>
      <use xlink:href="#DejaVuSans-65" x="183.154297"/>
      <use xlink:href="#DejaVuSans-20" x="244.677734"/>
      <use xlink:href="#DejaVuSans-5b" x="276.464844"/>
      <use xlink:href="#DejaVuSans-6d" x="315.478516"/>
      <use xlink:href="#DejaVuSans-69" x="412.890625"/>
      <use xlink:href="#DejaVuSans-6e" x="440.673828"/>
      <use xlink:href="#DejaVuSans-5d" x="504.052734"/>
     </g>
    </g>
   </g>
   <g id="matplotlib.axis_8">
    <g id="ytick_15">
     <g id="line2d_72">
      <path d="M 54.2 529.247045 
L 709.2 529.247045 
" clip-path="url(#p89227410e0)" style="fill: none; stroke: #b0b0b0; stroke-width: 0.8; stroke-linecap: square"/>
     </g>
     <g id="line2d_73">
      <g>
       <use xlink:href="#mcf634d523b" x="54.2" y="529.247045" style="stroke: #000000; stroke-width: 0.8"/>
      </g>
     </g>
     <g id="text_27">
      <!-- 0.0 -->
      <g transform="translate(31.296875 533.046264) scale(0.1 -0.1)">
       <use xlink:href="#DejaVuSans-30"/>
       <use xlink:href="#DejaVuSans-2e" x="63.623047"/>
       <use xlink:href="#DejaVuSans-30" x="95.410156"/>
      </g>
     </g>
    </g>
    <g id="ytick_16">
     <g id="line2d_74">
      <path d="M 54.2 502.377452 
L 709.2 502.377452 
" clip-path="url(#p89227410e0)" style="fill: none; stroke: #b0b0b0; stroke-width: 0.8; stroke-linecap: square"/>
     </g>
     <g id="line2d_75">
      <g>
       <use xlink:href="#mcf634d523b" x="54.2" y="502.377452" style="stroke: #000000; stroke-width: 0.8"/>
      </g>
     </g>
     <g id="text_28">
      <!-- 0.1 -->
      <g transform="translate(31.296875 506.176671) scale(0.1 -0.1)">
       <use xlink:href="#DejaVuSans-30"/>
       <use xlink:href="#DejaVuSans-2e" x="63.623047"/>
       <use xlink:href="#DejaVuSans-31" x="95.410156"/>
      </g>
     </g>
    </g>
    <g id="ytick_17">
     <g id="line2d_76">
      <path d="M 54.2 475.507858 
L 709.2 475.507858 
" clip-path="url(#p89227410e0)" style="fill: none; stroke: #b0b0b0; stroke-width: 0.8; stroke-linecap: square"/>
     </g>
     <g id="line2d_77">
      <g>
       <use xlink:href="#mcf634d523b" x="54.2" y="475.507858" style="stroke: #000000; stroke-width: 0.8"/>
      </g>
     </g>
     <g id="text_29">
      <!-- 0.2 -->
      <g transform="translate(31.296875 479.307077) scale(0.1 -0.1)">
       <use xlink:href="#DejaVuSans-30"/>
       <use xlink:href="#DejaVuSans-2e" x="63.623047"/>
       <use xlink:href="#DejaVuSans-32" x="95.410156"/>
      </g>
     </g>
    </g>
    <g id="ytick_18">
     <g id="line2d_78">
      <path d="M 54.2 448.638264 
L 709.2 448.638264 
" clip-path="url(#p89227410e0)" style="fill: none; stroke: #b0b0b0; stroke-width: 0.8; stroke-linecap: square"/>
     </g>
     <g id="line2d_79">
      <g>
       <use xlink:href="#mcf634d523b" x="54.2" y="448.638264" style="stroke: #000000; stroke-width: 0.8"/>
      </g>
     </g>
     <g id="text_30">
      <!-- 0.3 -->
      <g transform="translate(31.296875 452.437483) scale(0.1 -0.1)">
       <use xlink:href="#DejaVuSans-30"/>
       <use xlink:href="#DejaVuSans-2e" x="63.623047"/>
       <use xlink:href="#DejaVuSans-33" x="95.410156"/>
      </g>
     </g>
    </g>
    <g id="text_31">
     <!-- Charging -->
     <g transform="translate(25.217188 503.915937) rotate(-90) scale(0.1 -0.1)">
      <use xlink:href="#DejaVuSans-43"/>
      <use xlink:href="#DejaVuSans-68" x="69.824219"/>
      <use xlink:href="#DejaVuSans-61" x="133.203125"/>
      <use xlink:href="#DejaVuSans-72" x="194.482422"/>
      <use xlink:href="#DejaVuSans-67" x="233.845703"/>
      <use xlink:href="#DejaVuSans-69" x="297.322266"/>
      <use xlink:href="#DejaVuSans-6e" x="325.105469"/>
      <use xlink:href="#DejaVuSans-67" x="388.484375"/>
     </g>
    </g>
   </g>
   <g id="line2d_80">
    <path d="M 83.972727 529.247045 
L 121.037874 529.247045 
L 121.051658 492.067618 
L 121.148146 529.247045 
L 138.81922 529.247045 
L 138.833004 490.850836 
L 138.929492 529.247045 
L 158.737084 529.247045 
L 158.750868 507.67875 
L 158.847356 529.247045 
L 176.65627 529.247045 
L 176.670054 447.766818 
L 176.766542 529.247045 
L 194.161936 529.247045 
L 194.17572 440.577386 
L 194.272208 529.247045 
L 216.767678 529.247045 
L 216.781462 466.938636 
L 216.87795 529.247045 
L 259.980484 529.247045 
L 259.994268 477.00763 
L 260.090756 529.247045 
L 277.76183 529.247045 
L 277.775614 486.524571 
L 277.872102 529.247045 
L 297.679694 529.247045 
L 297.693478 507.67875 
L 297.789966 529.247045 
L 315.59888 529.247045 
L 315.612664 492.547019 
L 315.709152 529.247045 
L 333.104546 529.247045 
L 333.11833 433.387955 
L 333.214818 529.247045 
L 355.710289 529.247045 
L 355.724073 462.145682 
L 355.82056 529.247045 
L 398.923094 529.247045 
L 398.936878 475.88839 
L 399.033366 529.247045 
L 416.70444 529.247045 
L 416.718224 498.384138 
L 416.814712 529.247045 
L 436.622305 529.247045 
L 436.636089 507.67875 
L 436.732577 529.247045 
L 454.54149 529.247045 
L 454.555274 450.163295 
L 454.651762 529.247045 
L 472.047157 529.247045 
L 472.060941 483.971773 
L 472.157429 529.247045 
L 490.724462 529.247045 
L 490.738246 514.114361 
L 490.834734 529.247045 
L 494.652899 529.247045 
L 494.666683 490.757613 
L 494.763171 529.247045 
L 537.865705 529.247045 
L 537.879489 480.67286 
L 537.975977 529.247045 
L 555.647051 529.247045 
L 555.660835 471.111629 
L 555.757322 529.247045 
L 575.564915 529.247045 
L 575.578699 507.67875 
L 575.675187 529.247045 
L 593.484101 529.247045 
L 593.497885 447.766818 
L 593.594373 529.247045 
L 610.989767 529.247045 
L 611.003551 487.443309 
L 611.100039 529.247045 
L 676.808315 529.247045 
L 676.822099 470.619681 
L 676.918587 529.247045 
L 679.427273 529.247045 
L 679.427273 529.247045 
" clip-path="url(#p89227410e0)" style="fill: none; stroke-dasharray: 5.55,2.4; stroke-dashoffset: 0; stroke: #800080; stroke-width: 1.5"/>
   </g>
   <g id="patch_18">
    <path d="M 54.2 534.04 
L 54.2 428.595 
" style="fill: none; stroke: #000000; stroke-width: 0.8; stroke-linejoin: miter; stroke-linecap: square"/>
   </g>
   <g id="patch_19">
    <path d="M 709.2 534.04 
L 709.2 428.595 
" style="fill: none; stroke: #000000; stroke-width: 0.8; stroke-linejoin: miter; stroke-linecap: square"/>
   </g>
   <g id="patch_20">
    <path d="M 54.2 534.04 
L 709.2 534.04 
" style="fill: none; stroke: #000000; stroke-width: 0.8; stroke-linejoin: miter; stroke-linecap: square"/>
   </g>
   <g id="patch_21">
    <path d="M 54.2 428.595 
L 709.2 428.595 
" style="fill: none; stroke: #000000; stroke-width: 0.8; stroke-linejoin: miter; stroke-linecap: square"/>
   </g>
   <g id="text_32">
    <!-- EV Charge while not home -->
    <g transform="translate(302.074375 422.595) scale(0.12 -0.12)">
     <defs>
      <path id="DejaVuSans-45" d="M 628 4666 
L 3578 4666 
L 3578 4134 
L 1259 4134 
L 1259 2753 
L 3481 2753 
L 3481 2222 
L 1259 2222 
L 1259 531 
L 3634 531 
L 3634 0 
L 628 0 
L 628 4666 
z
" transform="scale(0.015625)"/>
      <path id="DejaVuSans-56" d="M 1831 0 
L 50 4666 
L 709 4666 
L 2188 738 
L 3669 4666 
L 4325 4666 
L 2547 0 
L 1831 0 
z
" transform="scale(0.015625)"/>
      <path id="DejaVuSans-77" d="M 269 3500 
L 844 3500 
L 1563 769 
L 2278 3500 
L 2956 3500 
L 3675 769 
L 4391 3500 
L 4966 3500 
L 4050 0 
L 3372 0 
L 2619 2869 
L 1863 0 
L 1184 0 
L 269 3500 
z
" transform="scale(0.015625)"/>
     </defs>
     <use xlink:href="#DejaVuSans-45"/>
     <use xlink:href="#DejaVuSans-56" x="63.183594"/>
     <use xlink:href="#DejaVuSans-20" x="131.591797"/>
     <use xlink:href="#DejaVuSans-43" x="163.378906"/>
     <use xlink:href="#DejaVuSans-68" x="233.203125"/>
     <use xlink:href="#DejaVuSans-61" x="296.582031"/>
     <use xlink:href="#DejaVuSans-72" x="357.861328"/>
     <use xlink:href="#DejaVuSans-67" x="397.224609"/>
     <use xlink:href="#DejaVuSans-65" x="460.701172"/>
     <use xlink:href="#DejaVuSans-20" x="522.224609"/>
     <use xlink:href="#DejaVuSans-77" x="554.011719"/>
     <use xlink:href="#DejaVuSans-68" x="635.798828"/>
     <use xlink:href="#DejaVuSans-69" x="699.177734"/>
     <use xlink:href="#DejaVuSans-6c" x="726.960938"/>
     <use xlink:href="#DejaVuSans-65" x="754.744141"/>
     <use xlink:href="#DejaVuSans-20" x="816.267578"/>
     <use xlink:href="#DejaVuSans-6e" x="848.054688"/>
     <use xlink:href="#DejaVuSans-6f" x="911.433594"/>
     <use xlink:href="#DejaVuSans-74" x="972.615234"/>
     <use xlink:href="#DejaVuSans-20" x="1011.824219"/>
     <use xlink:href="#DejaVuSans-68" x="1043.611328"/>
     <use xlink:href="#DejaVuSans-6f" x="1106.990234"/>
     <use xlink:href="#DejaVuSans-6d" x="1168.171875"/>
     <use xlink:href="#DejaVuSans-65" x="1265.583984"/>
    </g>
   </g>
   <g id="legend_1">
    <g id="patch_22">
     <path d="M 616.854687 451.273125 
L 702.2 451.273125 
Q 704.2 451.273125 704.2 449.273125 
L 704.2 435.595 
Q 704.2 433.595 702.2 433.595 
L 616.854687 433.595 
Q 614.854687 433.595 614.854687 435.595 
L 614.854687 449.273125 
Q 614.854687 451.273125 616.854687 451.273125 
z
" style="fill: #ffffff; opacity: 0.8; stroke: #cccccc; stroke-linejoin: miter"/>
    </g>
    <g id="line2d_81">
     <path d="M 618.854687 441.693437 
L 628.854687 441.693437 
L 638.854687 441.693437 
" style="fill: none; stroke-dasharray: 5.55,2.4; stroke-dashoffset: 0; stroke: #800080; stroke-width: 1.5"/>
    </g>
    <g id="text_33">
     <!-- EV Refilled -->
     <g transform="translate(646.854687 445.193437) scale(0.1 -0.1)">
      <defs>
       <path id="DejaVuSans-52" d="M 2841 2188 
Q 3044 2119 3236 1894 
Q 3428 1669 3622 1275 
L 4263 0 
L 3584 0 
L 2988 1197 
Q 2756 1666 2539 1819 
Q 2322 1972 1947 1972 
L 1259 1972 
L 1259 0 
L 628 0 
L 628 4666 
L 2053 4666 
Q 2853 4666 3247 4331 
Q 3641 3997 3641 3322 
Q 3641 2881 3436 2590 
Q 3231 2300 2841 2188 
z
M 1259 4147 
L 1259 2491 
L 2053 2491 
Q 2509 2491 2742 2702 
Q 2975 2913 2975 3322 
Q 2975 3731 2742 3939 
Q 2509 4147 2053 4147 
L 1259 4147 
z
" transform="scale(0.015625)"/>
      </defs>
      <use xlink:href="#DejaVuSans-45"/>
      <use xlink:href="#DejaVuSans-56" x="63.183594"/>
      <use xlink:href="#DejaVuSans-20" x="131.591797"/>
      <use xlink:href="#DejaVuSans-52" x="163.378906"/>
      <use xlink:href="#DejaVuSans-65" x="228.361328"/>
      <use xlink:href="#DejaVuSans-66" x="289.884766"/>
      <use xlink:href="#DejaVuSans-69" x="325.089844"/>
      <use xlink:href="#DejaVuSans-6c" x="352.873047"/>
      <use xlink:href="#DejaVuSans-6c" x="380.65625"/>
      <use xlink:href="#DejaVuSans-65" x="408.439453"/>
      <use xlink:href="#DejaVuSans-64" x="469.962891"/>
     </g>
    </g>
   </g>
  </g>
 </g>
 <defs>
  <clipPath id="p23d98c7bb2">
   <rect x="54.2" y="25.44" width="655" height="105.445"/>
  </clipPath>
  <clipPath id="pac66098eed">
   <rect x="54.2" y="159.825" width="655" height="105.445"/>
  </clipPath>
  <clipPath id="p8ef8999b14">
   <rect x="54.2" y="294.21" width="655" height="105.445"/>
  </clipPath>
  <clipPath id="p89227410e0">
   <rect x="54.2" y="428.595" width="655" height="105.445"/>
  </clipPath>
 </defs>
</svg>
