<?xml version="1.0" encoding="utf-8" standalone="no"?>
<!DOCTYPE svg PUBLIC "-//W3C//DTD SVG 1.1//EN"
  "http://www.w3.org/Graphics/SVG/1.1/DTD/svg11.dtd">
<svg xmlns:xlink="http://www.w3.org/1999/xlink" width="720pt" height="576pt" viewBox="0 0 720 576" xmlns="http://www.w3.org/2000/svg" version="1.1">
 <metadata>
  <rdf:RDF xmlns:dc="http://purl.org/dc/elements/1.1/" xmlns:cc="http://creativecommons.org/ns#" xmlns:rdf="http://www.w3.org/1999/02/22-rdf-syntax-ns#">
   <cc:Work>
    <dc:type rdf:resource="http://purl.org/dc/dcmitype/StillImage"/>
    <dc:date>2024-09-03T14:39:45.268796</dc:date>
    <dc:format>image/svg+xml</dc:format>
    <dc:creator>
     <cc:Agent>
      <dc:title>Matplotlib v3.8.4, https://matplotlib.org/</dc:title>
     </cc:Agent>
    </dc:creator>
   </cc:Work>
  </rdf:RDF>
 </metadata>
 <defs>
  <style type="text/css">*{stroke-linejoin: round; stroke-linecap: butt}</style>
 </defs>
 <g id="figure_1">
  <g id="patch_1">
   <path d="M 0 576 
L 720 576 
L 720 0 
L 0 0 
z
" style="fill: #ffffff"/>
  </g>
  <g id="axes_1">
   <g id="patch_2">
    <path d="M 60.59 130.885 
L 709.2 130.885 
L 709.2 25.44 
L 60.59 25.44 
z
" style="fill: #ffffff"/>
   </g>
   <g id="matplotlib.axis_1">
    <g id="xtick_1">
     <g id="line2d_1">
      <path d="M 90.072273 130.885 
L 90.072273 25.44 
" clip-path="url(#p3544bcdff1)" style="fill: none; stroke: #b0b0b0; stroke-width: 0.8; stroke-linecap: square"/>
     </g>
     <g id="line2d_2">
      <defs>
       <path id="m04bbf40ed0" d="M 0 0 
L 0 3.5 
" style="stroke: #000000; stroke-width: 0.8"/>
      </defs>
      <g>
       <use xlink:href="#m04bbf40ed0" x="90.072273" y="130.885" style="stroke: #000000; stroke-width: 0.8"/>
      </g>
     </g>
    </g>
    <g id="xtick_2">
     <g id="line2d_3">
      <path d="M 226.567436 130.885 
L 226.567436 25.44 
" clip-path="url(#p3544bcdff1)" style="fill: none; stroke: #b0b0b0; stroke-width: 0.8; stroke-linecap: square"/>
     </g>
     <g id="line2d_4">
      <g>
       <use xlink:href="#m04bbf40ed0" x="226.567436" y="130.885" style="stroke: #000000; stroke-width: 0.8"/>
      </g>
     </g>
    </g>
    <g id="xtick_3">
     <g id="line2d_5">
      <path d="M 363.062599 130.885 
L 363.062599 25.44 
" clip-path="url(#p3544bcdff1)" style="fill: none; stroke: #b0b0b0; stroke-width: 0.8; stroke-linecap: square"/>
     </g>
     <g id="line2d_6">
      <g>
       <use xlink:href="#m04bbf40ed0" x="363.062599" y="130.885" style="stroke: #000000; stroke-width: 0.8"/>
      </g>
     </g>
    </g>
    <g id="xtick_4">
     <g id="line2d_7">
      <path d="M 499.557762 130.885 
L 499.557762 25.44 
" clip-path="url(#p3544bcdff1)" style="fill: none; stroke: #b0b0b0; stroke-width: 0.8; stroke-linecap: square"/>
     </g>
     <g id="line2d_8">
      <g>
       <use xlink:href="#m04bbf40ed0" x="499.557762" y="130.885" style="stroke: #000000; stroke-width: 0.8"/>
      </g>
     </g>
    </g>
    <g id="xtick_5">
     <g id="line2d_9">
      <path d="M 636.052925 130.885 
L 636.052925 25.44 
" clip-path="url(#p3544bcdff1)" style="fill: none; stroke: #b0b0b0; stroke-width: 0.8; stroke-linecap: square"/>
     </g>
     <g id="line2d_10">
      <g>
       <use xlink:href="#m04bbf40ed0" x="636.052925" y="130.885" style="stroke: #000000; stroke-width: 0.8"/>
      </g>
     </g>
    </g>
   </g>
   <g id="matplotlib.axis_2">
    <g id="ytick_1">
     <g id="line2d_11">
      <path d="M 60.59 126.092045 
L 709.2 126.092045 
" clip-path="url(#p3544bcdff1)" style="fill: none; stroke: #b0b0b0; stroke-width: 0.8; stroke-linecap: square"/>
     </g>
     <g id="line2d_12">
      <defs>
       <path id="m697bb4b690" d="M 0 0 
L -3.5 0 
" style="stroke: #000000; stroke-width: 0.8"/>
      </defs>
      <g>
       <use xlink:href="#m697bb4b690" x="60.59" y="126.092045" style="stroke: #000000; stroke-width: 0.8"/>
      </g>
     </g>
     <g id="text_1">
      <!-- 0.0 -->
      <g transform="translate(37.686875 129.891264) scale(0.1 -0.1)">
       <defs>
        <path id="DejaVuSans-30" d="M 2034 4250 
Q 1547 4250 1301 3770 
Q 1056 3291 1056 2328 
Q 1056 1369 1301 889 
Q 1547 409 2034 409 
Q 2525 409 2770 889 
Q 3016 1369 3016 2328 
Q 3016 3291 2770 3770 
Q 2525 4250 2034 4250 
z
M 2034 4750 
Q 2819 4750 3233 4129 
Q 3647 3509 3647 2328 
Q 3647 1150 3233 529 
Q 2819 -91 2034 -91 
Q 1250 -91 836 529 
Q 422 1150 422 2328 
Q 422 3509 836 4129 
Q 1250 4750 2034 4750 
z
" transform="scale(0.015625)"/>
        <path id="DejaVuSans-2e" d="M 684 794 
L 1344 794 
L 1344 0 
L 684 0 
L 684 794 
z
" transform="scale(0.015625)"/>
       </defs>
       <use xlink:href="#DejaVuSans-30"/>
       <use xlink:href="#DejaVuSans-2e" x="63.623047"/>
       <use xlink:href="#DejaVuSans-30" x="95.410156"/>
      </g>
     </g>
    </g>
    <g id="ytick_2">
     <g id="line2d_13">
      <path d="M 60.59 104.790025 
L 709.2 104.790025 
" clip-path="url(#p3544bcdff1)" style="fill: none; stroke: #b0b0b0; stroke-width: 0.8; stroke-linecap: square"/>
     </g>
     <g id="line2d_14">
      <g>
       <use xlink:href="#m697bb4b690" x="60.59" y="104.790025" style="stroke: #000000; stroke-width: 0.8"/>
      </g>
     </g>
     <g id="text_2">
      <!-- 0.2 -->
      <g transform="translate(37.686875 108.589244) scale(0.1 -0.1)">
       <defs>
        <path id="DejaVuSans-32" d="M 1228 531 
L 3431 531 
L 3431 0 
L 469 0 
L 469 531 
Q 828 903 1448 1529 
Q 2069 2156 2228 2338 
Q 2531 2678 2651 2914 
Q 2772 3150 2772 3378 
Q 2772 3750 2511 3984 
Q 2250 4219 1831 4219 
Q 1534 4219 1204 4116 
Q 875 4013 500 3803 
L 500 4441 
Q 881 4594 1212 4672 
Q 1544 4750 1819 4750 
Q 2544 4750 2975 4387 
Q 3406 4025 3406 3419 
Q 3406 3131 3298 2873 
Q 3191 2616 2906 2266 
Q 2828 2175 2409 1742 
Q 1991 1309 1228 531 
z
" transform="scale(0.015625)"/>
       </defs>
       <use xlink:href="#DejaVuSans-30"/>
       <use xlink:href="#DejaVuSans-2e" x="63.623047"/>
       <use xlink:href="#DejaVuSans-32" x="95.410156"/>
      </g>
     </g>
    </g>
    <g id="ytick_3">
     <g id="line2d_15">
      <path d="M 60.59 83.488005 
L 709.2 83.488005 
" clip-path="url(#p3544bcdff1)" style="fill: none; stroke: #b0b0b0; stroke-width: 0.8; stroke-linecap: square"/>
     </g>
     <g id="line2d_16">
      <g>
       <use xlink:href="#m697bb4b690" x="60.59" y="83.488005" style="stroke: #000000; stroke-width: 0.8"/>
      </g>
     </g>
     <g id="text_3">
      <!-- 0.4 -->
      <g transform="translate(37.686875 87.287224) scale(0.1 -0.1)">
       <defs>
        <path id="DejaVuSans-34" d="M 2419 4116 
L 825 1625 
L 2419 1625 
L 2419 4116 
z
M 2253 4666 
L 3047 4666 
L 3047 1625 
L 3713 1625 
L 3713 1100 
L 3047 1100 
L 3047 0 
L 2419 0 
L 2419 1100 
L 313 1100 
L 313 1709 
L 2253 4666 
z
" transform="scale(0.015625)"/>
       </defs>
       <use xlink:href="#DejaVuSans-30"/>
       <use xlink:href="#DejaVuSans-2e" x="63.623047"/>
       <use xlink:href="#DejaVuSans-34" x="95.410156"/>
      </g>
     </g>
    </g>
    <g id="ytick_4">
     <g id="line2d_17">
      <path d="M 60.59 62.185985 
L 709.2 62.185985 
" clip-path="url(#p3544bcdff1)" style="fill: none; stroke: #b0b0b0; stroke-width: 0.8; stroke-linecap: square"/>
     </g>
     <g id="line2d_18">
      <g>
       <use xlink:href="#m697bb4b690" x="60.59" y="62.185985" style="stroke: #000000; stroke-width: 0.8"/>
      </g>
     </g>
     <g id="text_4">
      <!-- 0.6 -->
      <g transform="translate(37.686875 65.985204) scale(0.1 -0.1)">
       <defs>
        <path id="DejaVuSans-36" d="M 2113 2584 
Q 1688 2584 1439 2293 
Q 1191 2003 1191 1497 
Q 1191 994 1439 701 
Q 1688 409 2113 409 
Q 2538 409 2786 701 
Q 3034 994 3034 1497 
Q 3034 2003 2786 2293 
Q 2538 2584 2113 2584 
z
M 3366 4563 
L 3366 3988 
Q 3128 4100 2886 4159 
Q 2644 4219 2406 4219 
Q 1781 4219 1451 3797 
Q 1122 3375 1075 2522 
Q 1259 2794 1537 2939 
Q 1816 3084 2150 3084 
Q 2853 3084 3261 2657 
Q 3669 2231 3669 1497 
Q 3669 778 3244 343 
Q 2819 -91 2113 -91 
Q 1303 -91 875 529 
Q 447 1150 447 2328 
Q 447 3434 972 4092 
Q 1497 4750 2381 4750 
Q 2619 4750 2861 4703 
Q 3103 4656 3366 4563 
z
" transform="scale(0.015625)"/>
       </defs>
       <use xlink:href="#DejaVuSans-30"/>
       <use xlink:href="#DejaVuSans-2e" x="63.623047"/>
       <use xlink:href="#DejaVuSans-36" x="95.410156"/>
      </g>
     </g>
    </g>
    <g id="ytick_5">
     <g id="line2d_19">
      <path d="M 60.59 40.883965 
L 709.2 40.883965 
" clip-path="url(#p3544bcdff1)" style="fill: none; stroke: #b0b0b0; stroke-width: 0.8; stroke-linecap: square"/>
     </g>
     <g id="line2d_20">
      <g>
       <use xlink:href="#m697bb4b690" x="60.59" y="40.883965" style="stroke: #000000; stroke-width: 0.8"/>
      </g>
     </g>
     <g id="text_5">
      <!-- 0.8 -->
      <g transform="translate(37.686875 44.683183) scale(0.1 -0.1)">
       <defs>
        <path id="DejaVuSans-38" d="M 2034 2216 
Q 1584 2216 1326 1975 
Q 1069 1734 1069 1313 
Q 1069 891 1326 650 
Q 1584 409 2034 409 
Q 2484 409 2743 651 
Q 3003 894 3003 1313 
Q 3003 1734 2745 1975 
Q 2488 2216 2034 2216 
z
M 1403 2484 
Q 997 2584 770 2862 
Q 544 3141 544 3541 
Q 544 4100 942 4425 
Q 1341 4750 2034 4750 
Q 2731 4750 3128 4425 
Q 3525 4100 3525 3541 
Q 3525 3141 3298 2862 
Q 3072 2584 2669 2484 
Q 3125 2378 3379 2068 
Q 3634 1759 3634 1313 
Q 3634 634 3220 271 
Q 2806 -91 2034 -91 
Q 1263 -91 848 271 
Q 434 634 434 1313 
Q 434 1759 690 2068 
Q 947 2378 1403 2484 
z
M 1172 3481 
Q 1172 3119 1398 2916 
Q 1625 2713 2034 2713 
Q 2441 2713 2670 2916 
Q 2900 3119 2900 3481 
Q 2900 3844 2670 4047 
Q 2441 4250 2034 4250 
Q 1625 4250 1398 4047 
Q 1172 3844 1172 3481 
z
" transform="scale(0.015625)"/>
       </defs>
       <use xlink:href="#DejaVuSans-30"/>
       <use xlink:href="#DejaVuSans-2e" x="63.623047"/>
       <use xlink:href="#DejaVuSans-38" x="95.410156"/>
      </g>
     </g>
    </g>
    <g id="text_6">
     <!-- SOC (%) -->
     <g transform="translate(31.607187 99.005469) rotate(-90) scale(0.1 -0.1)">
      <defs>
       <path id="DejaVuSans-53" d="M 3425 4513 
L 3425 3897 
Q 3066 4069 2747 4153 
Q 2428 4238 2131 4238 
Q 1616 4238 1336 4038 
Q 1056 3838 1056 3469 
Q 1056 3159 1242 3001 
Q 1428 2844 1947 2747 
L 2328 2669 
Q 3034 2534 3370 2195 
Q 3706 1856 3706 1288 
Q 3706 609 3251 259 
Q 2797 -91 1919 -91 
Q 1588 -91 1214 -16 
Q 841 59 441 206 
L 441 856 
Q 825 641 1194 531 
Q 1563 422 1919 422 
Q 2459 422 2753 634 
Q 3047 847 3047 1241 
Q 3047 1584 2836 1778 
Q 2625 1972 2144 2069 
L 1759 2144 
Q 1053 2284 737 2584 
Q 422 2884 422 3419 
Q 422 4038 858 4394 
Q 1294 4750 2059 4750 
Q 2388 4750 2728 4690 
Q 3069 4631 3425 4513 
z
" transform="scale(0.015625)"/>
       <path id="DejaVuSans-4f" d="M 2522 4238 
Q 1834 4238 1429 3725 
Q 1025 3213 1025 2328 
Q 1025 1447 1429 934 
Q 1834 422 2522 422 
Q 3209 422 3611 934 
Q 4013 1447 4013 2328 
Q 4013 3213 3611 3725 
Q 3209 4238 2522 4238 
z
M 2522 4750 
Q 3503 4750 4090 4092 
Q 4678 3434 4678 2328 
Q 4678 1225 4090 567 
Q 3503 -91 2522 -91 
Q 1538 -91 948 565 
Q 359 1222 359 2328 
Q 359 3434 948 4092 
Q 1538 4750 2522 4750 
z
" transform="scale(0.015625)"/>
       <path id="DejaVuSans-43" d="M 4122 4306 
L 4122 3641 
Q 3803 3938 3442 4084 
Q 3081 4231 2675 4231 
Q 1875 4231 1450 3742 
Q 1025 3253 1025 2328 
Q 1025 1406 1450 917 
Q 1875 428 2675 428 
Q 3081 428 3442 575 
Q 3803 722 4122 1019 
L 4122 359 
Q 3791 134 3420 21 
Q 3050 -91 2638 -91 
Q 1578 -91 968 557 
Q 359 1206 359 2328 
Q 359 3453 968 4101 
Q 1578 4750 2638 4750 
Q 3056 4750 3426 4639 
Q 3797 4528 4122 4306 
z
" transform="scale(0.015625)"/>
       <path id="DejaVuSans-20" transform="scale(0.015625)"/>
       <path id="DejaVuSans-28" d="M 1984 4856 
Q 1566 4138 1362 3434 
Q 1159 2731 1159 2009 
Q 1159 1288 1364 580 
Q 1569 -128 1984 -844 
L 1484 -844 
Q 1016 -109 783 600 
Q 550 1309 550 2009 
Q 550 2706 781 3412 
Q 1013 4119 1484 4856 
L 1984 4856 
z
" transform="scale(0.015625)"/>
       <path id="DejaVuSans-25" d="M 4653 2053 
Q 4381 2053 4226 1822 
Q 4072 1591 4072 1178 
Q 4072 772 4226 539 
Q 4381 306 4653 306 
Q 4919 306 5073 539 
Q 5228 772 5228 1178 
Q 5228 1588 5073 1820 
Q 4919 2053 4653 2053 
z
M 4653 2450 
Q 5147 2450 5437 2106 
Q 5728 1763 5728 1178 
Q 5728 594 5436 251 
Q 5144 -91 4653 -91 
Q 4153 -91 3862 251 
Q 3572 594 3572 1178 
Q 3572 1766 3864 2108 
Q 4156 2450 4653 2450 
z
M 1428 4353 
Q 1159 4353 1004 4120 
Q 850 3888 850 3481 
Q 850 3069 1003 2837 
Q 1156 2606 1428 2606 
Q 1700 2606 1854 2837 
Q 2009 3069 2009 3481 
Q 2009 3884 1853 4118 
Q 1697 4353 1428 4353 
z
M 4250 4750 
L 4750 4750 
L 1831 -91 
L 1331 -91 
L 4250 4750 
z
M 1428 4750 
Q 1922 4750 2215 4408 
Q 2509 4066 2509 3481 
Q 2509 2891 2217 2550 
Q 1925 2209 1428 2209 
Q 931 2209 642 2551 
Q 353 2894 353 3481 
Q 353 4063 643 4406 
Q 934 4750 1428 4750 
z
" transform="scale(0.015625)"/>
       <path id="DejaVuSans-29" d="M 513 4856 
L 1013 4856 
Q 1481 4119 1714 3412 
Q 1947 2706 1947 2009 
Q 1947 1309 1714 600 
Q 1481 -109 1013 -844 
L 513 -844 
Q 928 -128 1133 580 
Q 1338 1288 1338 2009 
Q 1338 2731 1133 3434 
Q 928 4138 513 4856 
z
" transform="scale(0.015625)"/>
      </defs>
      <use xlink:href="#DejaVuSans-53"/>
      <use xlink:href="#DejaVuSans-4f" x="63.476562"/>
      <use xlink:href="#DejaVuSans-43" x="142.1875"/>
      <use xlink:href="#DejaVuSans-20" x="212.011719"/>
      <use xlink:href="#DejaVuSans-28" x="243.798828"/>
      <use xlink:href="#DejaVuSans-25" x="282.8125"/>
      <use xlink:href="#DejaVuSans-29" x="377.832031"/>
     </g>
    </g>
   </g>
   <g id="line2d_21">
    <path d="M 90.072273 30.232955 
L 102.206693 30.232955 
L 102.329538 126.092045 
L 103.162159 126.092045 
L 103.285005 30.810774 
L 103.435149 30.232955 
L 104.117625 30.232955 
L 104.240471 126.092045 
L 104.663606 126.092045 
L 104.786451 30.232955 
L 105.482577 30.232955 
L 105.605422 126.092045 
L 108.894956 126.092045 
L 109.017801 36.311181 
L 109.591081 30.232955 
L 121.589006 30.232955 
L 121.711852 126.092045 
L 122.271482 126.092045 
L 122.394327 30.871786 
L 122.544472 30.232955 
L 124.86489 30.232955 
L 124.987735 126.092045 
L 129.09624 126.092045 
L 129.219085 40.975327 
L 130.160902 30.232955 
L 141.5173 30.232955 
L 141.640145 126.092045 
L 143.837717 126.092045 
L 143.960563 42.82661 
L 145.038875 30.232955 
L 179.462955 30.232955 
L 179.585801 126.092045 
L 181.237392 126.092045 
L 181.360238 31.719502 
L 181.57863 30.232955 
L 182.329353 30.232955 
L 182.452199 126.092045 
L 183.694305 126.092045 
L 183.817151 31.608253 
L 184.021893 30.232955 
L 184.240286 30.232955 
L 184.363131 126.092045 
L 186.560703 126.092045 
L 186.683549 33.833238 
L 187.065736 30.232955 
L 201.302181 30.232955 
L 201.425027 126.092045 
L 201.711667 126.092045 
L 201.834512 30.232955 
L 201.984657 30.232955 
L 202.107502 126.092045 
L 202.803628 126.092045 
L 202.926473 30.633824 
L 203.062969 30.232955 
L 204.032084 30.232955 
L 204.15493 126.092045 
L 207.034978 126.092045 
L 207.157824 33.268746 
L 207.499061 30.232955 
L 214.678707 30.232955 
L 214.801553 126.092045 
L 215.224688 126.092045 
L 215.347533 30.232955 
L 219.456038 30.232955 
L 219.578883 126.092045 
L 222.731922 126.092045 
L 222.854767 34.735076 
L 222.868417 34.559335 
L 222.991262 126.092045 
L 224.506359 126.092045 
L 224.629204 37.092105 
L 225.270732 30.232955 
L 239.793817 30.232955 
L 239.916663 126.092045 
L 240.749283 126.092045 
L 240.872129 30.564968 
L 241.008624 30.232955 
L 241.704749 30.232955 
L 241.827595 126.092045 
L 242.25073 126.092045 
L 242.373576 30.232955 
L 243.069701 30.232955 
L 243.192547 126.092045 
L 246.48208 126.092045 
L 246.604926 34.649142 
L 247.05536 30.232955 
L 259.17613 30.232955 
L 259.298976 126.092045 
L 259.858606 126.092045 
L 259.981452 30.454557 
L 260.104297 30.232955 
L 262.452014 30.232955 
L 262.57486 126.092045 
L 266.683364 126.092045 
L 266.80621 38.266728 
L 267.529634 30.232955 
L 279.104424 30.232955 
L 279.22727 126.092045 
L 281.424842 126.092045 
L 281.547687 38.179688 
L 282.271112 30.232955 
L 317.050079 30.232955 
L 317.172925 126.092045 
L 318.824516 126.092045 
L 318.947362 31.694164 
L 319.165754 30.232955 
L 319.916478 30.232955 
L 320.039323 126.092045 
L 321.281429 126.092045 
L 321.404275 30.68679 
L 321.54077 30.232955 
L 321.82741 30.232955 
L 321.950256 126.092045 
L 324.147828 126.092045 
L 324.270673 32.469068 
L 324.543664 30.232955 
L 338.889305 30.232955 
L 339.012151 126.092045 
L 339.298791 126.092045 
L 339.421636 30.232955 
L 339.571781 30.232955 
L 339.694627 126.092045 
L 340.390752 126.092045 
L 340.513598 30.656801 
L 340.650093 30.232955 
L 341.619209 30.232955 
L 341.742054 126.092045 
L 344.622102 126.092045 
L 344.744948 35.597206 
L 345.263629 30.232955 
L 352.265831 30.232955 
L 352.388677 126.092045 
L 352.811812 126.092045 
L 352.934658 30.232955 
L 357.043162 30.232955 
L 357.166008 126.092045 
L 360.319046 126.092045 
L 360.441892 34.096366 
L 360.455541 33.920624 
L 360.578387 126.092045 
L 362.093483 126.092045 
L 362.216329 34.296969 
L 362.639464 30.232955 
L 377.380941 30.232955 
L 377.503787 126.092045 
L 378.336407 126.092045 
L 378.459253 30.83087 
L 378.609398 30.232955 
L 379.291874 30.232955 
L 379.414719 126.092045 
L 379.837854 126.092045 
L 379.9607 30.232955 
L 380.656825 30.232955 
L 380.779671 126.092045 
L 384.069204 126.092045 
L 384.19205 35.749407 
L 384.724381 30.232955 
L 396.763254 30.232955 
L 396.8861 126.092045 
L 397.44573 126.092045 
L 397.568576 30.232955 
L 400.039138 30.232955 
L 400.161984 126.092045 
L 404.270488 126.092045 
L 404.393334 36.731669 
L 405.007562 30.232955 
L 416.691548 30.232955 
L 416.814394 126.092045 
L 419.011966 126.092045 
L 419.134812 30.232955 
L 454.637204 30.232955 
L 454.760049 126.092045 
L 456.411641 126.092045 
L 456.534486 31.049521 
L 456.69828 30.232955 
L 457.503602 30.232955 
L 457.626448 126.092045 
L 458.868554 126.092045 
L 458.991399 30.910614 
L 459.155193 30.232955 
L 459.414534 30.232955 
L 459.53738 126.092045 
L 461.734952 126.092045 
L 461.857798 32.299677 
L 462.117138 30.232955 
L 476.47643 30.232955 
L 476.599275 126.092045 
L 476.885915 126.092045 
L 477.008761 30.232955 
L 477.158905 30.232955 
L 477.281751 126.092045 
L 477.977876 126.092045 
L 478.100722 30.466643 
L 478.223568 30.232955 
L 479.206333 30.232955 
L 479.329179 126.092045 
L 482.209226 126.092045 
L 482.332072 34.682813 
L 482.782506 30.232955 
L 489.852956 30.232955 
L 489.975801 126.092045 
L 490.398936 126.092045 
L 490.521782 30.232955 
L 494.630286 30.232955 
L 494.753132 126.092045 
L 497.90617 126.092045 
L 498.029016 35.016904 
L 498.042665 34.841163 
L 498.165511 126.092045 
L 499.680607 126.092045 
L 499.803453 37.013755 
L 500.431331 30.232955 
L 514.968066 30.232955 
L 515.090911 126.092045 
L 515.923532 126.092045 
L 516.046377 30.838953 
L 516.196522 30.232955 
L 516.878998 30.232955 
L 517.001843 126.092045 
L 517.424978 126.092045 
L 517.547824 30.232955 
L 518.243949 30.232955 
L 518.366795 126.092045 
L 521.656329 126.092045 
L 521.779174 36.395716 
L 522.366103 30.232955 
L 534.350379 30.232955 
L 534.473224 126.092045 
L 535.032855 126.092045 
L 535.1557 30.70955 
L 535.292195 30.232955 
L 537.626263 30.232955 
L 537.749108 126.092045 
L 541.857613 126.092045 
L 541.980458 40.794525 
L 542.908625 30.232955 
L 554.278672 30.232955 
L 554.401518 126.092045 
L 556.59909 126.092045 
L 556.721936 38.142927 
L 557.44536 30.232955 
L 592.224328 30.232955 
L 592.347173 126.092045 
L 593.998765 126.092045 
L 594.121611 32.276047 
L 594.380951 30.232955 
L 595.090726 30.232955 
L 595.213572 126.092045 
L 596.455678 126.092045 
L 596.578524 31.971721 
L 596.824215 30.232955 
L 597.001659 30.232955 
L 597.124504 126.092045 
L 599.322076 126.092045 
L 599.444922 32.783256 
L 599.745211 30.232955 
L 614.063554 30.232955 
L 614.1864 126.092045 
L 614.473039 126.092045 
L 614.595885 30.232955 
L 614.74603 30.232955 
L 614.868875 126.092045 
L 615.565001 126.092045 
L 615.687846 30.473823 
L 615.810692 30.232955 
L 616.793457 30.232955 
L 616.916303 126.092045 
L 619.796351 126.092045 
L 619.919196 35.963162 
L 620.465177 30.232955 
L 627.44008 30.232955 
L 627.562925 126.092045 
L 627.986061 126.092045 
L 628.108906 30.232955 
L 632.217411 30.232955 
L 632.340256 126.092045 
L 635.493294 126.092045 
L 635.61614 33.974608 
L 635.62979 33.798867 
L 635.752635 126.092045 
L 637.267732 126.092045 
L 637.390577 34.68075 
L 637.841011 30.232955 
L 652.55519 30.232955 
L 652.678035 126.092045 
L 653.510656 126.092045 
L 653.633502 30.925551 
L 653.797296 30.232955 
L 654.466122 30.232955 
L 654.588968 126.092045 
L 655.012103 126.092045 
L 655.134948 30.232955 
L 655.831074 30.232955 
L 655.953919 126.092045 
L 659.243453 126.092045 
L 659.366298 34.912759 
L 659.830382 30.232955 
L 671.937503 30.232955 
L 672.060349 126.092045 
L 672.619979 126.092045 
L 672.742824 30.232955 
L 675.213387 30.232955 
L 675.336233 126.092045 
L 679.444737 126.092045 
L 679.567583 37.292478 
L 679.717727 35.35932 
L 679.717727 35.35932 
" clip-path="url(#p3544bcdff1)" style="fill: none; stroke: #0000ff; stroke-width: 1.5; stroke-linecap: square"/>
   </g>
   <g id="patch_3">
    <path d="M 60.59 130.885 
L 60.59 25.44 
" style="fill: none; stroke: #000000; stroke-width: 0.8; stroke-linejoin: miter; stroke-linecap: square"/>
   </g>
   <g id="patch_4">
    <path d="M 709.2 130.885 
L 709.2 25.44 
" style="fill: none; stroke: #000000; stroke-width: 0.8; stroke-linejoin: miter; stroke-linecap: square"/>
   </g>
   <g id="patch_5">
    <path d="M 60.59 130.885 
L 709.2 130.885 
" style="fill: none; stroke: #000000; stroke-width: 0.8; stroke-linejoin: miter; stroke-linecap: square"/>
   </g>
   <g id="patch_6">
    <path d="M 60.59 25.44 
L 709.2 25.44 
" style="fill: none; stroke: #000000; stroke-width: 0.8; stroke-linejoin: miter; stroke-linecap: square"/>
   </g>
   <g id="text_7">
    <!-- State of Charge Over Time -->
    <g transform="translate(304.957187 19.44) scale(0.12 -0.12)">
     <defs>
      <path id="DejaVuSans-74" d="M 1172 4494 
L 1172 3500 
L 2356 3500 
L 2356 3053 
L 1172 3053 
L 1172 1153 
Q 1172 725 1289 603 
Q 1406 481 1766 481 
L 2356 481 
L 2356 0 
L 1766 0 
Q 1100 0 847 248 
Q 594 497 594 1153 
L 594 3053 
L 172 3053 
L 172 3500 
L 594 3500 
L 594 4494 
L 1172 4494 
z
" transform="scale(0.015625)"/>
      <path id="DejaVuSans-61" d="M 2194 1759 
Q 1497 1759 1228 1600 
Q 959 1441 959 1056 
Q 959 750 1161 570 
Q 1363 391 1709 391 
Q 2188 391 2477 730 
Q 2766 1069 2766 1631 
L 2766 1759 
L 2194 1759 
z
M 3341 1997 
L 3341 0 
L 2766 0 
L 2766 531 
Q 2569 213 2275 61 
Q 1981 -91 1556 -91 
Q 1019 -91 701 211 
Q 384 513 384 1019 
Q 384 1609 779 1909 
Q 1175 2209 1959 2209 
L 2766 2209 
L 2766 2266 
Q 2766 2663 2505 2880 
Q 2244 3097 1772 3097 
Q 1472 3097 1187 3025 
Q 903 2953 641 2809 
L 641 3341 
Q 956 3463 1253 3523 
Q 1550 3584 1831 3584 
Q 2591 3584 2966 3190 
Q 3341 2797 3341 1997 
z
" transform="scale(0.015625)"/>
      <path id="DejaVuSans-65" d="M 3597 1894 
L 3597 1613 
L 953 1613 
Q 991 1019 1311 708 
Q 1631 397 2203 397 
Q 2534 397 2845 478 
Q 3156 559 3463 722 
L 3463 178 
Q 3153 47 2828 -22 
Q 2503 -91 2169 -91 
Q 1331 -91 842 396 
Q 353 884 353 1716 
Q 353 2575 817 3079 
Q 1281 3584 2069 3584 
Q 2775 3584 3186 3129 
Q 3597 2675 3597 1894 
z
M 3022 2063 
Q 3016 2534 2758 2815 
Q 2500 3097 2075 3097 
Q 1594 3097 1305 2825 
Q 1016 2553 972 2059 
L 3022 2063 
z
" transform="scale(0.015625)"/>
      <path id="DejaVuSans-6f" d="M 1959 3097 
Q 1497 3097 1228 2736 
Q 959 2375 959 1747 
Q 959 1119 1226 758 
Q 1494 397 1959 397 
Q 2419 397 2687 759 
Q 2956 1122 2956 1747 
Q 2956 2369 2687 2733 
Q 2419 3097 1959 3097 
z
M 1959 3584 
Q 2709 3584 3137 3096 
Q 3566 2609 3566 1747 
Q 3566 888 3137 398 
Q 2709 -91 1959 -91 
Q 1206 -91 779 398 
Q 353 888 353 1747 
Q 353 2609 779 3096 
Q 1206 3584 1959 3584 
z
" transform="scale(0.015625)"/>
      <path id="DejaVuSans-66" d="M 2375 4863 
L 2375 4384 
L 1825 4384 
Q 1516 4384 1395 4259 
Q 1275 4134 1275 3809 
L 1275 3500 
L 2222 3500 
L 2222 3053 
L 1275 3053 
L 1275 0 
L 697 0 
L 697 3053 
L 147 3053 
L 147 3500 
L 697 3500 
L 697 3744 
Q 697 4328 969 4595 
Q 1241 4863 1831 4863 
L 2375 4863 
z
" transform="scale(0.015625)"/>
      <path id="DejaVuSans-68" d="M 3513 2113 
L 3513 0 
L 2938 0 
L 2938 2094 
Q 2938 2591 2744 2837 
Q 2550 3084 2163 3084 
Q 1697 3084 1428 2787 
Q 1159 2491 1159 1978 
L 1159 0 
L 581 0 
L 581 4863 
L 1159 4863 
L 1159 2956 
Q 1366 3272 1645 3428 
Q 1925 3584 2291 3584 
Q 2894 3584 3203 3211 
Q 3513 2838 3513 2113 
z
" transform="scale(0.015625)"/>
      <path id="DejaVuSans-72" d="M 2631 2963 
Q 2534 3019 2420 3045 
Q 2306 3072 2169 3072 
Q 1681 3072 1420 2755 
Q 1159 2438 1159 1844 
L 1159 0 
L 581 0 
L 581 3500 
L 1159 3500 
L 1159 2956 
Q 1341 3275 1631 3429 
Q 1922 3584 2338 3584 
Q 2397 3584 2469 3576 
Q 2541 3569 2628 3553 
L 2631 2963 
z
" transform="scale(0.015625)"/>
      <path id="DejaVuSans-67" d="M 2906 1791 
Q 2906 2416 2648 2759 
Q 2391 3103 1925 3103 
Q 1463 3103 1205 2759 
Q 947 2416 947 1791 
Q 947 1169 1205 825 
Q 1463 481 1925 481 
Q 2391 481 2648 825 
Q 2906 1169 2906 1791 
z
M 3481 434 
Q 3481 -459 3084 -895 
Q 2688 -1331 1869 -1331 
Q 1566 -1331 1297 -1286 
Q 1028 -1241 775 -1147 
L 775 -588 
Q 1028 -725 1275 -790 
Q 1522 -856 1778 -856 
Q 2344 -856 2625 -561 
Q 2906 -266 2906 331 
L 2906 616 
Q 2728 306 2450 153 
Q 2172 0 1784 0 
Q 1141 0 747 490 
Q 353 981 353 1791 
Q 353 2603 747 3093 
Q 1141 3584 1784 3584 
Q 2172 3584 2450 3431 
Q 2728 3278 2906 2969 
L 2906 3500 
L 3481 3500 
L 3481 434 
z
" transform="scale(0.015625)"/>
      <path id="DejaVuSans-76" d="M 191 3500 
L 800 3500 
L 1894 563 
L 2988 3500 
L 3597 3500 
L 2284 0 
L 1503 0 
L 191 3500 
z
" transform="scale(0.015625)"/>
      <path id="DejaVuSans-54" d="M -19 4666 
L 3928 4666 
L 3928 4134 
L 2272 4134 
L 2272 0 
L 1638 0 
L 1638 4134 
L -19 4134 
L -19 4666 
z
" transform="scale(0.015625)"/>
      <path id="DejaVuSans-69" d="M 603 3500 
L 1178 3500 
L 1178 0 
L 603 0 
L 603 3500 
z
M 603 4863 
L 1178 4863 
L 1178 4134 
L 603 4134 
L 603 4863 
z
" transform="scale(0.015625)"/>
      <path id="DejaVuSans-6d" d="M 3328 2828 
Q 3544 3216 3844 3400 
Q 4144 3584 4550 3584 
Q 5097 3584 5394 3201 
Q 5691 2819 5691 2113 
L 5691 0 
L 5113 0 
L 5113 2094 
Q 5113 2597 4934 2840 
Q 4756 3084 4391 3084 
Q 3944 3084 3684 2787 
Q 3425 2491 3425 1978 
L 3425 0 
L 2847 0 
L 2847 2094 
Q 2847 2600 2669 2842 
Q 2491 3084 2119 3084 
Q 1678 3084 1418 2786 
Q 1159 2488 1159 1978 
L 1159 0 
L 581 0 
L 581 3500 
L 1159 3500 
L 1159 2956 
Q 1356 3278 1631 3431 
Q 1906 3584 2284 3584 
Q 2666 3584 2933 3390 
Q 3200 3197 3328 2828 
z
" transform="scale(0.015625)"/>
     </defs>
     <use xlink:href="#DejaVuSans-53"/>
     <use xlink:href="#DejaVuSans-74" x="63.476562"/>
     <use xlink:href="#DejaVuSans-61" x="102.685547"/>
     <use xlink:href="#DejaVuSans-74" x="163.964844"/>
     <use xlink:href="#DejaVuSans-65" x="203.173828"/>
     <use xlink:href="#DejaVuSans-20" x="264.697266"/>
     <use xlink:href="#DejaVuSans-6f" x="296.484375"/>
     <use xlink:href="#DejaVuSans-66" x="357.666016"/>
     <use xlink:href="#DejaVuSans-20" x="392.871094"/>
     <use xlink:href="#DejaVuSans-43" x="424.658203"/>
     <use xlink:href="#DejaVuSans-68" x="494.482422"/>
     <use xlink:href="#DejaVuSans-61" x="557.861328"/>
     <use xlink:href="#DejaVuSans-72" x="619.140625"/>
     <use xlink:href="#DejaVuSans-67" x="658.503906"/>
     <use xlink:href="#DejaVuSans-65" x="721.980469"/>
     <use xlink:href="#DejaVuSans-20" x="783.503906"/>
     <use xlink:href="#DejaVuSans-4f" x="815.291016"/>
     <use xlink:href="#DejaVuSans-76" x="894.001953"/>
     <use xlink:href="#DejaVuSans-65" x="953.181641"/>
     <use xlink:href="#DejaVuSans-72" x="1014.705078"/>
     <use xlink:href="#DejaVuSans-20" x="1055.818359"/>
     <use xlink:href="#DejaVuSans-54" x="1087.605469"/>
     <use xlink:href="#DejaVuSans-69" x="1145.564453"/>
     <use xlink:href="#DejaVuSans-6d" x="1173.347656"/>
     <use xlink:href="#DejaVuSans-65" x="1270.759766"/>
    </g>
   </g>
  </g>
  <g id="axes_2">
   <g id="patch_7">
    <path d="M 60.59 265.27 
L 709.2 265.27 
L 709.2 159.825 
L 60.59 159.825 
z
" style="fill: #ffffff"/>
   </g>
   <g id="matplotlib.axis_3">
    <g id="xtick_6">
     <g id="line2d_22">
      <path d="M 90.072273 265.27 
L 90.072273 159.825 
" clip-path="url(#p75621d7ed0)" style="fill: none; stroke: #b0b0b0; stroke-width: 0.8; stroke-linecap: square"/>
     </g>
     <g id="line2d_23">
      <g>
       <use xlink:href="#m04bbf40ed0" x="90.072273" y="265.27" style="stroke: #000000; stroke-width: 0.8"/>
      </g>
     </g>
    </g>
    <g id="xtick_7">
     <g id="line2d_24">
      <path d="M 226.567436 265.27 
L 226.567436 159.825 
" clip-path="url(#p75621d7ed0)" style="fill: none; stroke: #b0b0b0; stroke-width: 0.8; stroke-linecap: square"/>
     </g>
     <g id="line2d_25">
      <g>
       <use xlink:href="#m04bbf40ed0" x="226.567436" y="265.27" style="stroke: #000000; stroke-width: 0.8"/>
      </g>
     </g>
    </g>
    <g id="xtick_8">
     <g id="line2d_26">
      <path d="M 363.062599 265.27 
L 363.062599 159.825 
" clip-path="url(#p75621d7ed0)" style="fill: none; stroke: #b0b0b0; stroke-width: 0.8; stroke-linecap: square"/>
     </g>
     <g id="line2d_27">
      <g>
       <use xlink:href="#m04bbf40ed0" x="363.062599" y="265.27" style="stroke: #000000; stroke-width: 0.8"/>
      </g>
     </g>
    </g>
    <g id="xtick_9">
     <g id="line2d_28">
      <path d="M 499.557762 265.27 
L 499.557762 159.825 
" clip-path="url(#p75621d7ed0)" style="fill: none; stroke: #b0b0b0; stroke-width: 0.8; stroke-linecap: square"/>
     </g>
     <g id="line2d_29">
      <g>
       <use xlink:href="#m04bbf40ed0" x="499.557762" y="265.27" style="stroke: #000000; stroke-width: 0.8"/>
      </g>
     </g>
    </g>
    <g id="xtick_10">
     <g id="line2d_30">
      <path d="M 636.052925 265.27 
L 636.052925 159.825 
" clip-path="url(#p75621d7ed0)" style="fill: none; stroke: #b0b0b0; stroke-width: 0.8; stroke-linecap: square"/>
     </g>
     <g id="line2d_31">
      <g>
       <use xlink:href="#m04bbf40ed0" x="636.052925" y="265.27" style="stroke: #000000; stroke-width: 0.8"/>
      </g>
     </g>
    </g>
   </g>
   <g id="matplotlib.axis_4">
    <g id="ytick_6">
     <g id="line2d_32">
      <path d="M 60.59 260.477045 
L 709.2 260.477045 
" clip-path="url(#p75621d7ed0)" style="fill: none; stroke: #b0b0b0; stroke-width: 0.8; stroke-linecap: square"/>
     </g>
     <g id="line2d_33">
      <g>
       <use xlink:href="#m697bb4b690" x="60.59" y="260.477045" style="stroke: #000000; stroke-width: 0.8"/>
      </g>
     </g>
     <g id="text_8">
      <!-- 0.00 -->
      <g transform="translate(31.324375 264.276264) scale(0.1 -0.1)">
       <use xlink:href="#DejaVuSans-30"/>
       <use xlink:href="#DejaVuSans-2e" x="63.623047"/>
       <use xlink:href="#DejaVuSans-30" x="95.410156"/>
       <use xlink:href="#DejaVuSans-30" x="159.033203"/>
      </g>
     </g>
    </g>
    <g id="ytick_7">
     <g id="line2d_34">
      <path d="M 60.59 236.512273 
L 709.2 236.512273 
" clip-path="url(#p75621d7ed0)" style="fill: none; stroke: #b0b0b0; stroke-width: 0.8; stroke-linecap: square"/>
     </g>
     <g id="line2d_35">
      <g>
       <use xlink:href="#m697bb4b690" x="60.59" y="236.512273" style="stroke: #000000; stroke-width: 0.8"/>
      </g>
     </g>
     <g id="text_9">
      <!-- 0.25 -->
      <g transform="translate(31.324375 240.311491) scale(0.1 -0.1)">
       <defs>
        <path id="DejaVuSans-35" d="M 691 4666 
L 3169 4666 
L 3169 4134 
L 1269 4134 
L 1269 2991 
Q 1406 3038 1543 3061 
Q 1681 3084 1819 3084 
Q 2600 3084 3056 2656 
Q 3513 2228 3513 1497 
Q 3513 744 3044 326 
Q 2575 -91 1722 -91 
Q 1428 -91 1123 -41 
Q 819 9 494 109 
L 494 744 
Q 775 591 1075 516 
Q 1375 441 1709 441 
Q 2250 441 2565 725 
Q 2881 1009 2881 1497 
Q 2881 1984 2565 2268 
Q 2250 2553 1709 2553 
Q 1456 2553 1204 2497 
Q 953 2441 691 2322 
L 691 4666 
z
" transform="scale(0.015625)"/>
       </defs>
       <use xlink:href="#DejaVuSans-30"/>
       <use xlink:href="#DejaVuSans-2e" x="63.623047"/>
       <use xlink:href="#DejaVuSans-32" x="95.410156"/>
       <use xlink:href="#DejaVuSans-35" x="159.033203"/>
      </g>
     </g>
    </g>
    <g id="ytick_8">
     <g id="line2d_36">
      <path d="M 60.59 212.5475 
L 709.2 212.5475 
" clip-path="url(#p75621d7ed0)" style="fill: none; stroke: #b0b0b0; stroke-width: 0.8; stroke-linecap: square"/>
     </g>
     <g id="line2d_37">
      <g>
       <use xlink:href="#m697bb4b690" x="60.59" y="212.5475" style="stroke: #000000; stroke-width: 0.8"/>
      </g>
     </g>
     <g id="text_10">
      <!-- 0.50 -->
      <g transform="translate(31.324375 216.346719) scale(0.1 -0.1)">
       <use xlink:href="#DejaVuSans-30"/>
       <use xlink:href="#DejaVuSans-2e" x="63.623047"/>
       <use xlink:href="#DejaVuSans-35" x="95.410156"/>
       <use xlink:href="#DejaVuSans-30" x="159.033203"/>
      </g>
     </g>
    </g>
    <g id="ytick_9">
     <g id="line2d_38">
      <path d="M 60.59 188.582727 
L 709.2 188.582727 
" clip-path="url(#p75621d7ed0)" style="fill: none; stroke: #b0b0b0; stroke-width: 0.8; stroke-linecap: square"/>
     </g>
     <g id="line2d_39">
      <g>
       <use xlink:href="#m697bb4b690" x="60.59" y="188.582727" style="stroke: #000000; stroke-width: 0.8"/>
      </g>
     </g>
     <g id="text_11">
      <!-- 0.75 -->
      <g transform="translate(31.324375 192.381946) scale(0.1 -0.1)">
       <defs>
        <path id="DejaVuSans-37" d="M 525 4666 
L 3525 4666 
L 3525 4397 
L 1831 0 
L 1172 0 
L 2766 4134 
L 525 4134 
L 525 4666 
z
" transform="scale(0.015625)"/>
       </defs>
       <use xlink:href="#DejaVuSans-30"/>
       <use xlink:href="#DejaVuSans-2e" x="63.623047"/>
       <use xlink:href="#DejaVuSans-37" x="95.410156"/>
       <use xlink:href="#DejaVuSans-35" x="159.033203"/>
      </g>
     </g>
    </g>
    <g id="ytick_10">
     <g id="line2d_40">
      <path d="M 60.59 164.617955 
L 709.2 164.617955 
" clip-path="url(#p75621d7ed0)" style="fill: none; stroke: #b0b0b0; stroke-width: 0.8; stroke-linecap: square"/>
     </g>
     <g id="line2d_41">
      <g>
       <use xlink:href="#m697bb4b690" x="60.59" y="164.617955" style="stroke: #000000; stroke-width: 0.8"/>
      </g>
     </g>
     <g id="text_12">
      <!-- 1.00 -->
      <g transform="translate(31.324375 168.417173) scale(0.1 -0.1)">
       <defs>
        <path id="DejaVuSans-31" d="M 794 531 
L 1825 531 
L 1825 4091 
L 703 3866 
L 703 4441 
L 1819 4666 
L 2450 4666 
L 2450 531 
L 3481 531 
L 3481 0 
L 794 0 
L 794 531 
z
" transform="scale(0.015625)"/>
       </defs>
       <use xlink:href="#DejaVuSans-31"/>
       <use xlink:href="#DejaVuSans-2e" x="63.623047"/>
       <use xlink:href="#DejaVuSans-30" x="95.410156"/>
       <use xlink:href="#DejaVuSans-30" x="159.033203"/>
      </g>
     </g>
    </g>
    <g id="text_13">
     <!-- Occupancy -->
     <g transform="translate(25.244688 240.26625) rotate(-90) scale(0.1 -0.1)">
      <defs>
       <path id="DejaVuSans-63" d="M 3122 3366 
L 3122 2828 
Q 2878 2963 2633 3030 
Q 2388 3097 2138 3097 
Q 1578 3097 1268 2742 
Q 959 2388 959 1747 
Q 959 1106 1268 751 
Q 1578 397 2138 397 
Q 2388 397 2633 464 
Q 2878 531 3122 666 
L 3122 134 
Q 2881 22 2623 -34 
Q 2366 -91 2075 -91 
Q 1284 -91 818 406 
Q 353 903 353 1747 
Q 353 2603 823 3093 
Q 1294 3584 2113 3584 
Q 2378 3584 2631 3529 
Q 2884 3475 3122 3366 
z
" transform="scale(0.015625)"/>
       <path id="DejaVuSans-75" d="M 544 1381 
L 544 3500 
L 1119 3500 
L 1119 1403 
Q 1119 906 1312 657 
Q 1506 409 1894 409 
Q 2359 409 2629 706 
Q 2900 1003 2900 1516 
L 2900 3500 
L 3475 3500 
L 3475 0 
L 2900 0 
L 2900 538 
Q 2691 219 2414 64 
Q 2138 -91 1772 -91 
Q 1169 -91 856 284 
Q 544 659 544 1381 
z
M 1991 3584 
L 1991 3584 
z
" transform="scale(0.015625)"/>
       <path id="DejaVuSans-70" d="M 1159 525 
L 1159 -1331 
L 581 -1331 
L 581 3500 
L 1159 3500 
L 1159 2969 
Q 1341 3281 1617 3432 
Q 1894 3584 2278 3584 
Q 2916 3584 3314 3078 
Q 3713 2572 3713 1747 
Q 3713 922 3314 415 
Q 2916 -91 2278 -91 
Q 1894 -91 1617 61 
Q 1341 213 1159 525 
z
M 3116 1747 
Q 3116 2381 2855 2742 
Q 2594 3103 2138 3103 
Q 1681 3103 1420 2742 
Q 1159 2381 1159 1747 
Q 1159 1113 1420 752 
Q 1681 391 2138 391 
Q 2594 391 2855 752 
Q 3116 1113 3116 1747 
z
" transform="scale(0.015625)"/>
       <path id="DejaVuSans-6e" d="M 3513 2113 
L 3513 0 
L 2938 0 
L 2938 2094 
Q 2938 2591 2744 2837 
Q 2550 3084 2163 3084 
Q 1697 3084 1428 2787 
Q 1159 2491 1159 1978 
L 1159 0 
L 581 0 
L 581 3500 
L 1159 3500 
L 1159 2956 
Q 1366 3272 1645 3428 
Q 1925 3584 2291 3584 
Q 2894 3584 3203 3211 
Q 3513 2838 3513 2113 
z
" transform="scale(0.015625)"/>
       <path id="DejaVuSans-79" d="M 2059 -325 
Q 1816 -950 1584 -1140 
Q 1353 -1331 966 -1331 
L 506 -1331 
L 506 -850 
L 844 -850 
Q 1081 -850 1212 -737 
Q 1344 -625 1503 -206 
L 1606 56 
L 191 3500 
L 800 3500 
L 1894 763 
L 2988 3500 
L 3597 3500 
L 2059 -325 
z
" transform="scale(0.015625)"/>
      </defs>
      <use xlink:href="#DejaVuSans-4f"/>
      <use xlink:href="#DejaVuSans-63" x="78.710938"/>
      <use xlink:href="#DejaVuSans-63" x="133.691406"/>
      <use xlink:href="#DejaVuSans-75" x="188.671875"/>
      <use xlink:href="#DejaVuSans-70" x="252.050781"/>
      <use xlink:href="#DejaVuSans-61" x="315.527344"/>
      <use xlink:href="#DejaVuSans-6e" x="376.806641"/>
      <use xlink:href="#DejaVuSans-63" x="440.185547"/>
      <use xlink:href="#DejaVuSans-79" x="495.166016"/>
     </g>
    </g>
   </g>
   <g id="line2d_42">
    <path d="M 90.072273 164.617955 
L 102.206693 164.617955 
L 102.329538 260.477045 
L 103.162159 260.477045 
L 103.285005 164.617955 
L 104.117625 164.617955 
L 104.240471 260.477045 
L 104.663606 260.477045 
L 104.786451 164.617955 
L 105.482577 164.617955 
L 105.605422 260.477045 
L 108.894956 260.477045 
L 109.017801 164.617955 
L 121.589006 164.617955 
L 121.711852 260.477045 
L 122.271482 260.477045 
L 122.394327 164.617955 
L 124.86489 164.617955 
L 124.987735 260.477045 
L 129.09624 260.477045 
L 129.219085 164.617955 
L 141.5173 164.617955 
L 141.640145 260.477045 
L 143.837717 260.477045 
L 143.960563 164.617955 
L 179.462955 164.617955 
L 179.585801 260.477045 
L 181.237392 260.477045 
L 181.360238 164.617955 
L 182.329353 164.617955 
L 182.452199 260.477045 
L 183.694305 260.477045 
L 183.817151 164.617955 
L 184.240286 164.617955 
L 184.363131 260.477045 
L 186.560703 260.477045 
L 186.683549 164.617955 
L 201.302181 164.617955 
L 201.425027 260.477045 
L 201.711667 260.477045 
L 201.834512 164.617955 
L 201.984657 164.617955 
L 202.107502 260.477045 
L 202.803628 260.477045 
L 202.926473 164.617955 
L 204.032084 164.617955 
L 204.15493 260.477045 
L 207.034978 260.477045 
L 207.157824 164.617955 
L 214.678707 164.617955 
L 214.801553 260.477045 
L 215.224688 260.477045 
L 215.347533 164.617955 
L 219.456038 164.617955 
L 219.578883 260.477045 
L 222.731922 260.477045 
L 222.854767 164.617955 
L 222.868417 164.617955 
L 222.991262 260.477045 
L 224.506359 260.477045 
L 224.629204 164.617955 
L 239.793817 164.617955 
L 239.916663 260.477045 
L 240.749283 260.477045 
L 240.872129 164.617955 
L 241.704749 164.617955 
L 241.827595 260.477045 
L 242.25073 260.477045 
L 242.373576 164.617955 
L 243.069701 164.617955 
L 243.192547 260.477045 
L 246.48208 260.477045 
L 246.604926 164.617955 
L 259.17613 164.617955 
L 259.298976 260.477045 
L 259.858606 260.477045 
L 259.981452 164.617955 
L 262.452014 164.617955 
L 262.57486 260.477045 
L 266.683364 260.477045 
L 266.80621 164.617955 
L 279.104424 164.617955 
L 279.22727 260.477045 
L 281.424842 260.477045 
L 281.547687 164.617955 
L 317.050079 164.617955 
L 317.172925 260.477045 
L 318.824516 260.477045 
L 318.947362 164.617955 
L 319.916478 164.617955 
L 320.039323 260.477045 
L 321.281429 260.477045 
L 321.404275 164.617955 
L 321.82741 164.617955 
L 321.950256 260.477045 
L 324.147828 260.477045 
L 324.270673 164.617955 
L 338.889305 164.617955 
L 339.012151 260.477045 
L 339.298791 260.477045 
L 339.421636 164.617955 
L 339.571781 164.617955 
L 339.694627 260.477045 
L 340.390752 260.477045 
L 340.513598 164.617955 
L 341.619209 164.617955 
L 341.742054 260.477045 
L 344.622102 260.477045 
L 344.744948 164.617955 
L 352.265831 164.617955 
L 352.388677 260.477045 
L 352.811812 260.477045 
L 352.934658 164.617955 
L 357.043162 164.617955 
L 357.166008 260.477045 
L 360.319046 260.477045 
L 360.441892 164.617955 
L 360.455541 164.617955 
L 360.578387 260.477045 
L 362.093483 260.477045 
L 362.216329 164.617955 
L 377.380941 164.617955 
L 377.503787 260.477045 
L 378.336407 260.477045 
L 378.459253 164.617955 
L 379.291874 164.617955 
L 379.414719 260.477045 
L 379.837854 260.477045 
L 379.9607 164.617955 
L 380.656825 164.617955 
L 380.779671 260.477045 
L 384.069204 260.477045 
L 384.19205 164.617955 
L 396.763254 164.617955 
L 396.8861 260.477045 
L 397.44573 260.477045 
L 397.568576 164.617955 
L 400.039138 164.617955 
L 400.161984 260.477045 
L 404.270488 260.477045 
L 404.393334 164.617955 
L 416.691548 164.617955 
L 416.814394 260.477045 
L 419.011966 260.477045 
L 419.134812 164.617955 
L 454.637204 164.617955 
L 454.760049 260.477045 
L 456.411641 260.477045 
L 456.534486 164.617955 
L 457.503602 164.617955 
L 457.626448 260.477045 
L 458.868554 260.477045 
L 458.991399 164.617955 
L 459.414534 164.617955 
L 459.53738 260.477045 
L 461.734952 260.477045 
L 461.857798 164.617955 
L 476.47643 164.617955 
L 476.599275 260.477045 
L 476.885915 260.477045 
L 477.008761 164.617955 
L 477.158905 164.617955 
L 477.281751 260.477045 
L 477.977876 260.477045 
L 478.100722 164.617955 
L 479.206333 164.617955 
L 479.329179 260.477045 
L 482.209226 260.477045 
L 482.332072 164.617955 
L 489.852956 164.617955 
L 489.975801 260.477045 
L 490.398936 260.477045 
L 490.521782 164.617955 
L 494.630286 164.617955 
L 494.753132 260.477045 
L 497.90617 260.477045 
L 498.029016 164.617955 
L 498.042665 164.617955 
L 498.165511 260.477045 
L 499.680607 260.477045 
L 499.803453 164.617955 
L 514.968066 164.617955 
L 515.090911 260.477045 
L 515.923532 260.477045 
L 516.046377 164.617955 
L 516.878998 164.617955 
L 517.001843 260.477045 
L 517.424978 260.477045 
L 517.547824 164.617955 
L 518.243949 164.617955 
L 518.366795 260.477045 
L 521.656329 260.477045 
L 521.779174 164.617955 
L 534.350379 164.617955 
L 534.473224 260.477045 
L 535.032855 260.477045 
L 535.1557 164.617955 
L 537.626263 164.617955 
L 537.749108 260.477045 
L 541.857613 260.477045 
L 541.980458 164.617955 
L 554.278672 164.617955 
L 554.401518 260.477045 
L 556.59909 260.477045 
L 556.721936 164.617955 
L 592.224328 164.617955 
L 592.347173 260.477045 
L 593.998765 260.477045 
L 594.121611 164.617955 
L 595.090726 164.617955 
L 595.213572 260.477045 
L 596.455678 260.477045 
L 596.578524 164.617955 
L 597.001659 164.617955 
L 597.124504 260.477045 
L 599.322076 260.477045 
L 599.444922 164.617955 
L 614.063554 164.617955 
L 614.1864 260.477045 
L 614.473039 260.477045 
L 614.595885 164.617955 
L 614.74603 164.617955 
L 614.868875 260.477045 
L 615.565001 260.477045 
L 615.687846 164.617955 
L 616.793457 164.617955 
L 616.916303 260.477045 
L 619.796351 260.477045 
L 619.919196 164.617955 
L 627.44008 164.617955 
L 627.562925 260.477045 
L 627.986061 260.477045 
L 628.108906 164.617955 
L 632.217411 164.617955 
L 632.340256 260.477045 
L 635.493294 260.477045 
L 635.61614 164.617955 
L 635.62979 164.617955 
L 635.752635 260.477045 
L 637.267732 260.477045 
L 637.390577 164.617955 
L 652.55519 164.617955 
L 652.678035 260.477045 
L 653.510656 260.477045 
L 653.633502 164.617955 
L 654.466122 164.617955 
L 654.588968 260.477045 
L 655.012103 260.477045 
L 655.134948 164.617955 
L 655.831074 164.617955 
L 655.953919 260.477045 
L 659.243453 260.477045 
L 659.366298 164.617955 
L 671.937503 164.617955 
L 672.060349 260.477045 
L 672.619979 260.477045 
L 672.742824 164.617955 
L 675.213387 164.617955 
L 675.336233 260.477045 
L 679.444737 260.477045 
L 679.567583 164.617955 
L 679.717727 164.617955 
L 679.717727 164.617955 
" clip-path="url(#p75621d7ed0)" style="fill: none; stroke: #008000; stroke-width: 1.5; stroke-linecap: square"/>
   </g>
   <g id="patch_8">
    <path d="M 60.59 265.27 
L 60.59 159.825 
" style="fill: none; stroke: #000000; stroke-width: 0.8; stroke-linejoin: miter; stroke-linecap: square"/>
   </g>
   <g id="patch_9">
    <path d="M 709.2 265.27 
L 709.2 159.825 
" style="fill: none; stroke: #000000; stroke-width: 0.8; stroke-linejoin: miter; stroke-linecap: square"/>
   </g>
   <g id="patch_10">
    <path d="M 60.59 265.27 
L 709.2 265.27 
" style="fill: none; stroke: #000000; stroke-width: 0.8; stroke-linejoin: miter; stroke-linecap: square"/>
   </g>
   <g id="patch_11">
    <path d="M 60.59 159.825 
L 709.2 159.825 
" style="fill: none; stroke: #000000; stroke-width: 0.8; stroke-linejoin: miter; stroke-linecap: square"/>
   </g>
   <g id="text_14">
    <!-- Occupancy Over Time -->
    <g transform="translate(318.705625 153.825) scale(0.12 -0.12)">
     <use xlink:href="#DejaVuSans-4f"/>
     <use xlink:href="#DejaVuSans-63" x="78.710938"/>
     <use xlink:href="#DejaVuSans-63" x="133.691406"/>
     <use xlink:href="#DejaVuSans-75" x="188.671875"/>
     <use xlink:href="#DejaVuSans-70" x="252.050781"/>
     <use xlink:href="#DejaVuSans-61" x="315.527344"/>
     <use xlink:href="#DejaVuSans-6e" x="376.806641"/>
     <use xlink:href="#DejaVuSans-63" x="440.185547"/>
     <use xlink:href="#DejaVuSans-79" x="495.166016"/>
     <use xlink:href="#DejaVuSans-20" x="554.345703"/>
     <use xlink:href="#DejaVuSans-4f" x="586.132812"/>
     <use xlink:href="#DejaVuSans-76" x="664.84375"/>
     <use xlink:href="#DejaVuSans-65" x="724.023438"/>
     <use xlink:href="#DejaVuSans-72" x="785.546875"/>
     <use xlink:href="#DejaVuSans-20" x="826.660156"/>
     <use xlink:href="#DejaVuSans-54" x="858.447266"/>
     <use xlink:href="#DejaVuSans-69" x="916.40625"/>
     <use xlink:href="#DejaVuSans-6d" x="944.189453"/>
     <use xlink:href="#DejaVuSans-65" x="1041.601562"/>
    </g>
   </g>
  </g>
  <g id="axes_3">
   <g id="patch_12">
    <path d="M 60.59 399.655 
L 709.2 399.655 
L 709.2 294.21 
L 60.59 294.21 
z
" style="fill: #ffffff"/>
   </g>
   <g id="matplotlib.axis_5">
    <g id="xtick_11">
     <g id="line2d_43">
      <path d="M 90.072273 399.655 
L 90.072273 294.21 
" clip-path="url(#p220a2c3bfc)" style="fill: none; stroke: #b0b0b0; stroke-width: 0.8; stroke-linecap: square"/>
     </g>
     <g id="line2d_44">
      <g>
       <use xlink:href="#m04bbf40ed0" x="90.072273" y="399.655" style="stroke: #000000; stroke-width: 0.8"/>
      </g>
     </g>
    </g>
    <g id="xtick_12">
     <g id="line2d_45">
      <path d="M 226.567436 399.655 
L 226.567436 294.21 
" clip-path="url(#p220a2c3bfc)" style="fill: none; stroke: #b0b0b0; stroke-width: 0.8; stroke-linecap: square"/>
     </g>
     <g id="line2d_46">
      <g>
       <use xlink:href="#m04bbf40ed0" x="226.567436" y="399.655" style="stroke: #000000; stroke-width: 0.8"/>
      </g>
     </g>
    </g>
    <g id="xtick_13">
     <g id="line2d_47">
      <path d="M 363.062599 399.655 
L 363.062599 294.21 
" clip-path="url(#p220a2c3bfc)" style="fill: none; stroke: #b0b0b0; stroke-width: 0.8; stroke-linecap: square"/>
     </g>
     <g id="line2d_48">
      <g>
       <use xlink:href="#m04bbf40ed0" x="363.062599" y="399.655" style="stroke: #000000; stroke-width: 0.8"/>
      </g>
     </g>
    </g>
    <g id="xtick_14">
     <g id="line2d_49">
      <path d="M 499.557762 399.655 
L 499.557762 294.21 
" clip-path="url(#p220a2c3bfc)" style="fill: none; stroke: #b0b0b0; stroke-width: 0.8; stroke-linecap: square"/>
     </g>
     <g id="line2d_50">
      <g>
       <use xlink:href="#m04bbf40ed0" x="499.557762" y="399.655" style="stroke: #000000; stroke-width: 0.8"/>
      </g>
     </g>
    </g>
    <g id="xtick_15">
     <g id="line2d_51">
      <path d="M 636.052925 399.655 
L 636.052925 294.21 
" clip-path="url(#p220a2c3bfc)" style="fill: none; stroke: #b0b0b0; stroke-width: 0.8; stroke-linecap: square"/>
     </g>
     <g id="line2d_52">
      <g>
       <use xlink:href="#m04bbf40ed0" x="636.052925" y="399.655" style="stroke: #000000; stroke-width: 0.8"/>
      </g>
     </g>
    </g>
   </g>
   <g id="matplotlib.axis_6">
    <g id="ytick_11">
     <g id="line2d_53">
      <path d="M 60.59 394.862045 
L 709.2 394.862045 
" clip-path="url(#p220a2c3bfc)" style="fill: none; stroke: #b0b0b0; stroke-width: 0.8; stroke-linecap: square"/>
     </g>
     <g id="line2d_54">
      <g>
       <use xlink:href="#m697bb4b690" x="60.59" y="394.862045" style="stroke: #000000; stroke-width: 0.8"/>
      </g>
     </g>
     <g id="text_15">
      <!-- 0.0 -->
      <g transform="translate(37.686875 398.661264) scale(0.1 -0.1)">
       <use xlink:href="#DejaVuSans-30"/>
       <use xlink:href="#DejaVuSans-2e" x="63.623047"/>
       <use xlink:href="#DejaVuSans-30" x="95.410156"/>
      </g>
     </g>
    </g>
    <g id="ytick_12">
     <g id="line2d_55">
      <path d="M 60.59 373.075888 
L 709.2 373.075888 
" clip-path="url(#p220a2c3bfc)" style="fill: none; stroke: #b0b0b0; stroke-width: 0.8; stroke-linecap: square"/>
     </g>
     <g id="line2d_56">
      <g>
       <use xlink:href="#m697bb4b690" x="60.59" y="373.075888" style="stroke: #000000; stroke-width: 0.8"/>
      </g>
     </g>
     <g id="text_16">
      <!-- 2.5 -->
      <g transform="translate(37.686875 376.875107) scale(0.1 -0.1)">
       <use xlink:href="#DejaVuSans-32"/>
       <use xlink:href="#DejaVuSans-2e" x="63.623047"/>
       <use xlink:href="#DejaVuSans-35" x="95.410156"/>
      </g>
     </g>
    </g>
    <g id="ytick_13">
     <g id="line2d_57">
      <path d="M 60.59 351.289731 
L 709.2 351.289731 
" clip-path="url(#p220a2c3bfc)" style="fill: none; stroke: #b0b0b0; stroke-width: 0.8; stroke-linecap: square"/>
     </g>
     <g id="line2d_58">
      <g>
       <use xlink:href="#m697bb4b690" x="60.59" y="351.289731" style="stroke: #000000; stroke-width: 0.8"/>
      </g>
     </g>
     <g id="text_17">
      <!-- 5.0 -->
      <g transform="translate(37.686875 355.08895) scale(0.1 -0.1)">
       <use xlink:href="#DejaVuSans-35"/>
       <use xlink:href="#DejaVuSans-2e" x="63.623047"/>
       <use xlink:href="#DejaVuSans-30" x="95.410156"/>
      </g>
     </g>
    </g>
    <g id="ytick_14">
     <g id="line2d_59">
      <path d="M 60.59 329.503574 
L 709.2 329.503574 
" clip-path="url(#p220a2c3bfc)" style="fill: none; stroke: #b0b0b0; stroke-width: 0.8; stroke-linecap: square"/>
     </g>
     <g id="line2d_60">
      <g>
       <use xlink:href="#m697bb4b690" x="60.59" y="329.503574" style="stroke: #000000; stroke-width: 0.8"/>
      </g>
     </g>
     <g id="text_18">
      <!-- 7.5 -->
      <g transform="translate(37.686875 333.302793) scale(0.1 -0.1)">
       <use xlink:href="#DejaVuSans-37"/>
       <use xlink:href="#DejaVuSans-2e" x="63.623047"/>
       <use xlink:href="#DejaVuSans-35" x="95.410156"/>
      </g>
     </g>
    </g>
    <g id="ytick_15">
     <g id="line2d_61">
      <path d="M 60.59 307.717417 
L 709.2 307.717417 
" clip-path="url(#p220a2c3bfc)" style="fill: none; stroke: #b0b0b0; stroke-width: 0.8; stroke-linecap: square"/>
     </g>
     <g id="line2d_62">
      <g>
       <use xlink:href="#m697bb4b690" x="60.59" y="307.717417" style="stroke: #000000; stroke-width: 0.8"/>
      </g>
     </g>
     <g id="text_19">
      <!-- 10.0 -->
      <g transform="translate(31.324375 311.516636) scale(0.1 -0.1)">
       <use xlink:href="#DejaVuSans-31"/>
       <use xlink:href="#DejaVuSans-30" x="63.623047"/>
       <use xlink:href="#DejaVuSans-2e" x="127.246094"/>
       <use xlink:href="#DejaVuSans-30" x="159.033203"/>
      </g>
     </g>
    </g>
    <g id="text_20">
     <!-- Load (kW) -->
     <g transform="translate(25.244688 372.258281) rotate(-90) scale(0.1 -0.1)">
      <defs>
       <path id="DejaVuSans-4c" d="M 628 4666 
L 1259 4666 
L 1259 531 
L 3531 531 
L 3531 0 
L 628 0 
L 628 4666 
z
" transform="scale(0.015625)"/>
       <path id="DejaVuSans-64" d="M 2906 2969 
L 2906 4863 
L 3481 4863 
L 3481 0 
L 2906 0 
L 2906 525 
Q 2725 213 2448 61 
Q 2172 -91 1784 -91 
Q 1150 -91 751 415 
Q 353 922 353 1747 
Q 353 2572 751 3078 
Q 1150 3584 1784 3584 
Q 2172 3584 2448 3432 
Q 2725 3281 2906 2969 
z
M 947 1747 
Q 947 1113 1208 752 
Q 1469 391 1925 391 
Q 2381 391 2643 752 
Q 2906 1113 2906 1747 
Q 2906 2381 2643 2742 
Q 2381 3103 1925 3103 
Q 1469 3103 1208 2742 
Q 947 2381 947 1747 
z
" transform="scale(0.015625)"/>
       <path id="DejaVuSans-6b" d="M 581 4863 
L 1159 4863 
L 1159 1991 
L 2875 3500 
L 3609 3500 
L 1753 1863 
L 3688 0 
L 2938 0 
L 1159 1709 
L 1159 0 
L 581 0 
L 581 4863 
z
" transform="scale(0.015625)"/>
       <path id="DejaVuSans-57" d="M 213 4666 
L 850 4666 
L 1831 722 
L 2809 4666 
L 3519 4666 
L 4500 722 
L 5478 4666 
L 6119 4666 
L 4947 0 
L 4153 0 
L 3169 4050 
L 2175 0 
L 1381 0 
L 213 4666 
z
" transform="scale(0.015625)"/>
      </defs>
      <use xlink:href="#DejaVuSans-4c"/>
      <use xlink:href="#DejaVuSans-6f" x="53.962891"/>
      <use xlink:href="#DejaVuSans-61" x="115.144531"/>
      <use xlink:href="#DejaVuSans-64" x="176.423828"/>
      <use xlink:href="#DejaVuSans-20" x="239.900391"/>
      <use xlink:href="#DejaVuSans-28" x="271.6875"/>
      <use xlink:href="#DejaVuSans-6b" x="310.701172"/>
      <use xlink:href="#DejaVuSans-57" x="368.611328"/>
      <use xlink:href="#DejaVuSans-29" x="467.488281"/>
     </g>
    </g>
   </g>
   <g id="line2d_63">
    <path d="M 90.072273 394.862045 
L 103.162159 394.862045 
L 103.285005 299.002955 
L 103.325953 299.002955 
L 103.448799 394.862045 
L 104.663606 394.862045 
L 104.745503 299.002955 
L 104.772802 394.862045 
L 108.894956 394.862045 
L 109.017801 299.002955 
L 109.481885 299.002955 
L 109.604731 394.862045 
L 122.271482 394.862045 
L 122.394327 299.002955 
L 122.435276 299.002955 
L 122.558122 394.862045 
L 129.09624 394.862045 
L 129.219085 299.002955 
L 129.36923 299.002955 
L 129.38288 394.862045 
L 129.478426 299.002955 
L 130.065355 299.002955 
L 130.188201 394.862045 
L 143.837717 394.862045 
L 143.960563 299.002955 
L 144.929679 299.002955 
L 145.052524 394.862045 
L 181.237392 394.862045 
L 181.360238 299.002955 
L 181.469434 299.002955 
L 181.59228 394.862045 
L 183.694305 394.862045 
L 183.817151 299.002955 
L 183.912697 299.002955 
L 184.035543 394.862045 
L 186.560703 394.862045 
L 186.683549 299.002955 
L 186.956539 299.002955 
L 187.079385 394.862045 
L 201.711667 394.862045 
L 201.779914 299.002955 
L 201.820863 394.862045 
L 202.803628 394.862045 
L 202.926473 299.002955 
L 202.953773 299.002955 
L 203.076618 394.862045 
L 207.034978 394.862045 
L 207.157824 299.002955 
L 207.389865 299.002955 
L 207.512711 394.862045 
L 215.224688 394.862045 
L 215.333884 299.002955 
L 215.456729 394.862045 
L 222.731922 394.862045 
L 222.854767 299.002955 
L 222.868417 299.002955 
L 222.991262 394.862045 
L 224.506359 394.862045 
L 224.629204 299.002955 
L 225.161536 299.002955 
L 225.284381 394.862045 
L 240.749283 394.862045 
L 240.872129 299.002955 
L 240.885778 299.002955 
L 241.008624 394.862045 
L 242.25073 394.862045 
L 242.346277 299.002955 
L 242.359926 394.862045 
L 246.48208 394.862045 
L 246.604926 299.002955 
L 246.946164 299.002955 
L 247.069009 394.862045 
L 259.858606 394.862045 
L 259.981452 299.002955 
L 259.995101 299.002955 
L 260.117947 394.862045 
L 266.683364 394.862045 
L 266.80621 299.002955 
L 266.956354 299.002955 
L 266.970004 394.862045 
L 267.065551 299.002955 
L 267.434087 299.002955 
L 267.556933 394.862045 
L 281.424842 394.862045 
L 281.547687 299.002955 
L 282.161916 299.002955 
L 282.284761 394.862045 
L 318.824516 394.862045 
L 318.947362 299.002955 
L 319.056558 299.002955 
L 319.179404 394.862045 
L 321.281429 394.862045 
L 321.404275 299.002955 
L 321.431574 299.002955 
L 321.55442 394.862045 
L 324.147828 394.862045 
L 324.270673 299.002955 
L 324.434468 299.002955 
L 324.557313 394.862045 
L 339.298791 394.862045 
L 339.367038 299.002955 
L 339.407987 394.862045 
L 340.390752 394.862045 
L 340.513598 299.002955 
L 340.540897 299.002955 
L 340.663742 394.862045 
L 344.622102 394.862045 
L 344.744948 299.002955 
L 345.154433 299.002955 
L 345.277279 394.862045 
L 352.811812 394.862045 
L 352.88006 299.002955 
L 352.921008 394.862045 
L 360.319046 394.862045 
L 360.441892 299.002955 
L 360.455541 299.002955 
L 360.578387 394.862045 
L 362.093483 394.862045 
L 362.216329 299.002955 
L 362.530268 299.002955 
L 362.653113 394.862045 
L 378.336407 394.862045 
L 378.459253 299.002955 
L 378.500202 299.002955 
L 378.623047 394.862045 
L 379.837854 394.862045 
L 379.933401 299.002955 
L 379.94705 394.862045 
L 384.069204 394.862045 
L 384.19205 299.002955 
L 384.615185 299.002955 
L 384.738031 394.862045 
L 397.44573 394.862045 
L 397.541277 299.002955 
L 397.554926 394.862045 
L 404.270488 394.862045 
L 404.393334 299.002955 
L 404.543479 299.002955 
L 404.557128 394.862045 
L 404.652675 299.002955 
L 404.898366 299.002955 
L 405.021212 394.862045 
L 419.011966 394.862045 
L 419.080214 299.002955 
L 419.121162 394.862045 
L 456.411641 394.862045 
L 456.534486 299.002955 
L 456.589084 299.002955 
L 456.71193 394.862045 
L 458.868554 394.862045 
L 458.991399 299.002955 
L 459.032348 299.002955 
L 459.155193 394.862045 
L 461.734952 394.862045 
L 461.857798 299.002955 
L 462.007942 299.002955 
L 462.130788 394.862045 
L 476.885915 394.862045 
L 476.940513 299.002955 
L 476.995111 394.862045 
L 477.977876 394.862045 
L 478.100722 299.002955 
L 478.114372 299.002955 
L 478.237217 394.862045 
L 482.209226 394.862045 
L 482.332072 299.002955 
L 482.67331 299.002955 
L 482.796156 394.862045 
L 490.398936 394.862045 
L 490.467184 299.002955 
L 490.508132 394.862045 
L 497.90617 394.862045 
L 498.029016 299.002955 
L 498.042665 299.002955 
L 498.165511 394.862045 
L 499.680607 394.862045 
L 499.803453 299.002955 
L 500.322135 299.002955 
L 500.44498 394.862045 
L 515.923532 394.862045 
L 516.046377 299.002955 
L 516.087326 299.002955 
L 516.210172 394.862045 
L 517.424978 394.862045 
L 517.520525 299.002955 
L 517.534175 394.862045 
L 521.656329 394.862045 
L 521.779174 299.002955 
L 522.256907 299.002955 
L 522.379753 394.862045 
L 535.032855 394.862045 
L 535.1557 299.002955 
L 535.182999 299.002955 
L 535.305845 394.862045 
L 541.857613 394.862045 
L 541.980458 299.002955 
L 542.130603 299.002955 
L 542.144253 394.862045 
L 542.239799 299.002955 
L 542.813079 299.002955 
L 542.935924 394.862045 
L 556.59909 394.862045 
L 556.721936 299.002955 
L 557.336164 299.002955 
L 557.45901 394.862045 
L 593.998765 394.862045 
L 594.121611 299.002955 
L 594.271755 299.002955 
L 594.394601 394.862045 
L 596.455678 394.862045 
L 596.578524 299.002955 
L 596.701369 299.002955 
L 596.824215 394.862045 
L 599.322076 394.862045 
L 599.444922 299.002955 
L 599.636015 299.002955 
L 599.758861 394.862045 
L 614.473039 394.862045 
L 614.554936 299.002955 
L 614.582235 394.862045 
L 615.565001 394.862045 
L 615.687846 299.002955 
L 615.701496 299.002955 
L 615.824341 394.862045 
L 619.796351 394.862045 
L 619.919196 299.002955 
L 620.355981 299.002955 
L 620.478827 394.862045 
L 627.986061 394.862045 
L 628.040659 299.002955 
L 628.095257 394.862045 
L 635.493294 394.862045 
L 635.61614 299.002955 
L 635.62979 299.002955 
L 635.752635 394.862045 
L 637.267732 394.862045 
L 637.390577 299.002955 
L 637.731815 299.002955 
L 637.854661 394.862045 
L 653.510656 394.862045 
L 653.633502 299.002955 
L 653.67445 299.002955 
L 653.797296 394.862045 
L 655.012103 394.862045 
L 655.121299 299.002955 
L 655.244145 394.862045 
L 659.243453 394.862045 
L 659.366298 299.002955 
L 659.721186 299.002955 
L 659.844032 394.862045 
L 672.619979 394.862045 
L 672.729175 299.002955 
L 672.852021 394.862045 
L 679.444737 394.862045 
L 679.567583 299.002955 
L 679.717727 299.002955 
L 679.717727 299.002955 
" clip-path="url(#p220a2c3bfc)" style="fill: none; stroke: #ffa500; stroke-width: 1.5; stroke-linecap: square"/>
   </g>
   <g id="patch_13">
    <path d="M 60.59 399.655 
L 60.59 294.21 
" style="fill: none; stroke: #000000; stroke-width: 0.8; stroke-linejoin: miter; stroke-linecap: square"/>
   </g>
   <g id="patch_14">
    <path d="M 709.2 399.655 
L 709.2 294.21 
" style="fill: none; stroke: #000000; stroke-width: 0.8; stroke-linejoin: miter; stroke-linecap: square"/>
   </g>
   <g id="patch_15">
    <path d="M 60.59 399.655 
L 709.2 399.655 
" style="fill: none; stroke: #000000; stroke-width: 0.8; stroke-linejoin: miter; stroke-linecap: square"/>
   </g>
   <g id="patch_16">
    <path d="M 60.59 294.21 
L 709.2 294.21 
" style="fill: none; stroke: #000000; stroke-width: 0.8; stroke-linejoin: miter; stroke-linecap: square"/>
   </g>
   <g id="text_21">
    <!-- Load Profile Over Time -->
    <g transform="translate(317.0125 288.21) scale(0.12 -0.12)">
     <defs>
      <path id="DejaVuSans-50" d="M 1259 4147 
L 1259 2394 
L 2053 2394 
Q 2494 2394 2734 2622 
Q 2975 2850 2975 3272 
Q 2975 3691 2734 3919 
Q 2494 4147 2053 4147 
L 1259 4147 
z
M 628 4666 
L 2053 4666 
Q 2838 4666 3239 4311 
Q 3641 3956 3641 3272 
Q 3641 2581 3239 2228 
Q 2838 1875 2053 1875 
L 1259 1875 
L 1259 0 
L 628 0 
L 628 4666 
z
" transform="scale(0.015625)"/>
      <path id="DejaVuSans-6c" d="M 603 4863 
L 1178 4863 
L 1178 0 
L 603 0 
L 603 4863 
z
" transform="scale(0.015625)"/>
     </defs>
     <use xlink:href="#DejaVuSans-4c"/>
     <use xlink:href="#DejaVuSans-6f" x="53.962891"/>
     <use xlink:href="#DejaVuSans-61" x="115.144531"/>
     <use xlink:href="#DejaVuSans-64" x="176.423828"/>
     <use xlink:href="#DejaVuSans-20" x="239.900391"/>
     <use xlink:href="#DejaVuSans-50" x="271.6875"/>
     <use xlink:href="#DejaVuSans-72" x="330.240234"/>
     <use xlink:href="#DejaVuSans-6f" x="369.103516"/>
     <use xlink:href="#DejaVuSans-66" x="430.285156"/>
     <use xlink:href="#DejaVuSans-69" x="465.490234"/>
     <use xlink:href="#DejaVuSans-6c" x="493.273438"/>
     <use xlink:href="#DejaVuSans-65" x="521.056641"/>
     <use xlink:href="#DejaVuSans-20" x="582.580078"/>
     <use xlink:href="#DejaVuSans-4f" x="614.367188"/>
     <use xlink:href="#DejaVuSans-76" x="693.078125"/>
     <use xlink:href="#DejaVuSans-65" x="752.257812"/>
     <use xlink:href="#DejaVuSans-72" x="813.78125"/>
     <use xlink:href="#DejaVuSans-20" x="854.894531"/>
     <use xlink:href="#DejaVuSans-54" x="886.681641"/>
     <use xlink:href="#DejaVuSans-69" x="944.640625"/>
     <use xlink:href="#DejaVuSans-6d" x="972.423828"/>
     <use xlink:href="#DejaVuSans-65" x="1069.835938"/>
    </g>
   </g>
  </g>
  <g id="axes_4">
   <g id="patch_17">
    <path d="M 60.59 534.04 
L 709.2 534.04 
L 709.2 428.595 
L 60.59 428.595 
z
" style="fill: #ffffff"/>
   </g>
   <g id="matplotlib.axis_7">
    <g id="xtick_16">
     <g id="line2d_64">
      <path d="M 90.072273 534.04 
L 90.072273 428.595 
" clip-path="url(#p2fb729d9cf)" style="fill: none; stroke: #b0b0b0; stroke-width: 0.8; stroke-linecap: square"/>
     </g>
     <g id="line2d_65">
      <g>
       <use xlink:href="#m04bbf40ed0" x="90.072273" y="534.04" style="stroke: #000000; stroke-width: 0.8"/>
      </g>
     </g>
     <g id="text_22">
      <!-- 0 -->
      <g transform="translate(86.891023 548.638438) scale(0.1 -0.1)">
       <use xlink:href="#DejaVuSans-30"/>
      </g>
     </g>
    </g>
    <g id="xtick_17">
     <g id="line2d_66">
      <path d="M 226.567436 534.04 
L 226.567436 428.595 
" clip-path="url(#p2fb729d9cf)" style="fill: none; stroke: #b0b0b0; stroke-width: 0.8; stroke-linecap: square"/>
     </g>
     <g id="line2d_67">
      <g>
       <use xlink:href="#m04bbf40ed0" x="226.567436" y="534.04" style="stroke: #000000; stroke-width: 0.8"/>
      </g>
     </g>
     <g id="text_23">
      <!-- 10000 -->
      <g transform="translate(210.661186 548.638438) scale(0.1 -0.1)">
       <use xlink:href="#DejaVuSans-31"/>
       <use xlink:href="#DejaVuSans-30" x="63.623047"/>
       <use xlink:href="#DejaVuSans-30" x="127.246094"/>
       <use xlink:href="#DejaVuSans-30" x="190.869141"/>
       <use xlink:href="#DejaVuSans-30" x="254.492188"/>
      </g>
     </g>
    </g>
    <g id="xtick_18">
     <g id="line2d_68">
      <path d="M 363.062599 534.04 
L 363.062599 428.595 
" clip-path="url(#p2fb729d9cf)" style="fill: none; stroke: #b0b0b0; stroke-width: 0.8; stroke-linecap: square"/>
     </g>
     <g id="line2d_69">
      <g>
       <use xlink:href="#m04bbf40ed0" x="363.062599" y="534.04" style="stroke: #000000; stroke-width: 0.8"/>
      </g>
     </g>
     <g id="text_24">
      <!-- 20000 -->
      <g transform="translate(347.156349 548.638438) scale(0.1 -0.1)">
       <use xlink:href="#DejaVuSans-32"/>
       <use xlink:href="#DejaVuSans-30" x="63.623047"/>
       <use xlink:href="#DejaVuSans-30" x="127.246094"/>
       <use xlink:href="#DejaVuSans-30" x="190.869141"/>
       <use xlink:href="#DejaVuSans-30" x="254.492188"/>
      </g>
     </g>
    </g>
    <g id="xtick_19">
     <g id="line2d_70">
      <path d="M 499.557762 534.04 
L 499.557762 428.595 
" clip-path="url(#p2fb729d9cf)" style="fill: none; stroke: #b0b0b0; stroke-width: 0.8; stroke-linecap: square"/>
     </g>
     <g id="line2d_71">
      <g>
       <use xlink:href="#m04bbf40ed0" x="499.557762" y="534.04" style="stroke: #000000; stroke-width: 0.8"/>
      </g>
     </g>
     <g id="text_25">
      <!-- 30000 -->
      <g transform="translate(483.651512 548.638438) scale(0.1 -0.1)">
       <defs>
        <path id="DejaVuSans-33" d="M 2597 2516 
Q 3050 2419 3304 2112 
Q 3559 1806 3559 1356 
Q 3559 666 3084 287 
Q 2609 -91 1734 -91 
Q 1441 -91 1130 -33 
Q 819 25 488 141 
L 488 750 
Q 750 597 1062 519 
Q 1375 441 1716 441 
Q 2309 441 2620 675 
Q 2931 909 2931 1356 
Q 2931 1769 2642 2001 
Q 2353 2234 1838 2234 
L 1294 2234 
L 1294 2753 
L 1863 2753 
Q 2328 2753 2575 2939 
Q 2822 3125 2822 3475 
Q 2822 3834 2567 4026 
Q 2313 4219 1838 4219 
Q 1578 4219 1281 4162 
Q 984 4106 628 3988 
L 628 4550 
Q 988 4650 1302 4700 
Q 1616 4750 1894 4750 
Q 2613 4750 3031 4423 
Q 3450 4097 3450 3541 
Q 3450 3153 3228 2886 
Q 3006 2619 2597 2516 
z
" transform="scale(0.015625)"/>
       </defs>
       <use xlink:href="#DejaVuSans-33"/>
       <use xlink:href="#DejaVuSans-30" x="63.623047"/>
       <use xlink:href="#DejaVuSans-30" x="127.246094"/>
       <use xlink:href="#DejaVuSans-30" x="190.869141"/>
       <use xlink:href="#DejaVuSans-30" x="254.492188"/>
      </g>
     </g>
    </g>
    <g id="xtick_20">
     <g id="line2d_72">
      <path d="M 636.052925 534.04 
L 636.052925 428.595 
" clip-path="url(#p2fb729d9cf)" style="fill: none; stroke: #b0b0b0; stroke-width: 0.8; stroke-linecap: square"/>
     </g>
     <g id="line2d_73">
      <g>
       <use xlink:href="#m04bbf40ed0" x="636.052925" y="534.04" style="stroke: #000000; stroke-width: 0.8"/>
      </g>
     </g>
     <g id="text_26">
      <!-- 40000 -->
      <g transform="translate(620.146675 548.638438) scale(0.1 -0.1)">
       <use xlink:href="#DejaVuSans-34"/>
       <use xlink:href="#DejaVuSans-30" x="63.623047"/>
       <use xlink:href="#DejaVuSans-30" x="127.246094"/>
       <use xlink:href="#DejaVuSans-30" x="190.869141"/>
       <use xlink:href="#DejaVuSans-30" x="254.492188"/>
      </g>
     </g>
    </g>
    <g id="text_27">
     <!-- Time [min] -->
     <g transform="translate(357.742656 562.316562) scale(0.1 -0.1)">
      <defs>
       <path id="DejaVuSans-5b" d="M 550 4863 
L 1875 4863 
L 1875 4416 
L 1125 4416 
L 1125 -397 
L 1875 -397 
L 1875 -844 
L 550 -844 
L 550 4863 
z
" transform="scale(0.015625)"/>
       <path id="DejaVuSans-5d" d="M 1947 4863 
L 1947 -844 
L 622 -844 
L 622 -397 
L 1369 -397 
L 1369 4416 
L 622 4416 
L 622 4863 
L 1947 4863 
z
" transform="scale(0.015625)"/>
      </defs>
      <use xlink:href="#DejaVuSans-54"/>
      <use xlink:href="#DejaVuSans-69" x="57.958984"/>
      <use xlink:href="#DejaVuSans-6d" x="85.742188"/>
      <use xlink:href="#DejaVuSans-65" x="183.154297"/>
      <use xlink:href="#DejaVuSans-20" x="244.677734"/>
      <use xlink:href="#DejaVuSans-5b" x="276.464844"/>
      <use xlink:href="#DejaVuSans-6d" x="315.478516"/>
      <use xlink:href="#DejaVuSans-69" x="412.890625"/>
      <use xlink:href="#DejaVuSans-6e" x="440.673828"/>
      <use xlink:href="#DejaVuSans-5d" x="504.052734"/>
     </g>
    </g>
   </g>
   <g id="matplotlib.axis_8">
    <g id="ytick_16">
     <g id="line2d_74">
      <path d="M 60.59 529.247045 
L 709.2 529.247045 
" clip-path="url(#p2fb729d9cf)" style="fill: none; stroke: #b0b0b0; stroke-width: 0.8; stroke-linecap: square"/>
     </g>
     <g id="line2d_75">
      <g>
       <use xlink:href="#m697bb4b690" x="60.59" y="529.247045" style="stroke: #000000; stroke-width: 0.8"/>
      </g>
     </g>
     <g id="text_28">
      <!-- 0.00 -->
      <g transform="translate(31.324375 533.046264) scale(0.1 -0.1)">
       <use xlink:href="#DejaVuSans-30"/>
       <use xlink:href="#DejaVuSans-2e" x="63.623047"/>
       <use xlink:href="#DejaVuSans-30" x="95.410156"/>
       <use xlink:href="#DejaVuSans-30" x="159.033203"/>
      </g>
     </g>
    </g>
    <g id="ytick_17">
     <g id="line2d_76">
      <path d="M 60.59 507.323869 
L 709.2 507.323869 
" clip-path="url(#p2fb729d9cf)" style="fill: none; stroke: #b0b0b0; stroke-width: 0.8; stroke-linecap: square"/>
     </g>
     <g id="line2d_77">
      <g>
       <use xlink:href="#m697bb4b690" x="60.59" y="507.323869" style="stroke: #000000; stroke-width: 0.8"/>
      </g>
     </g>
     <g id="text_29">
      <!-- 0.02 -->
      <g transform="translate(31.324375 511.123087) scale(0.1 -0.1)">
       <use xlink:href="#DejaVuSans-30"/>
       <use xlink:href="#DejaVuSans-2e" x="63.623047"/>
       <use xlink:href="#DejaVuSans-30" x="95.410156"/>
       <use xlink:href="#DejaVuSans-32" x="159.033203"/>
      </g>
     </g>
    </g>
    <g id="ytick_18">
     <g id="line2d_78">
      <path d="M 60.59 485.400692 
L 709.2 485.400692 
" clip-path="url(#p2fb729d9cf)" style="fill: none; stroke: #b0b0b0; stroke-width: 0.8; stroke-linecap: square"/>
     </g>
     <g id="line2d_79">
      <g>
       <use xlink:href="#m697bb4b690" x="60.59" y="485.400692" style="stroke: #000000; stroke-width: 0.8"/>
      </g>
     </g>
     <g id="text_30">
      <!-- 0.04 -->
      <g transform="translate(31.324375 489.19991) scale(0.1 -0.1)">
       <use xlink:href="#DejaVuSans-30"/>
       <use xlink:href="#DejaVuSans-2e" x="63.623047"/>
       <use xlink:href="#DejaVuSans-30" x="95.410156"/>
       <use xlink:href="#DejaVuSans-34" x="159.033203"/>
      </g>
     </g>
    </g>
    <g id="ytick_19">
     <g id="line2d_80">
      <path d="M 60.59 463.477515 
L 709.2 463.477515 
" clip-path="url(#p2fb729d9cf)" style="fill: none; stroke: #b0b0b0; stroke-width: 0.8; stroke-linecap: square"/>
     </g>
     <g id="line2d_81">
      <g>
       <use xlink:href="#m697bb4b690" x="60.59" y="463.477515" style="stroke: #000000; stroke-width: 0.8"/>
      </g>
     </g>
     <g id="text_31">
      <!-- 0.06 -->
      <g transform="translate(31.324375 467.276734) scale(0.1 -0.1)">
       <use xlink:href="#DejaVuSans-30"/>
       <use xlink:href="#DejaVuSans-2e" x="63.623047"/>
       <use xlink:href="#DejaVuSans-30" x="95.410156"/>
       <use xlink:href="#DejaVuSans-36" x="159.033203"/>
      </g>
     </g>
    </g>
    <g id="ytick_20">
     <g id="line2d_82">
      <path d="M 60.59 441.554338 
L 709.2 441.554338 
" clip-path="url(#p2fb729d9cf)" style="fill: none; stroke: #b0b0b0; stroke-width: 0.8; stroke-linecap: square"/>
     </g>
     <g id="line2d_83">
      <g>
       <use xlink:href="#m697bb4b690" x="60.59" y="441.554338" style="stroke: #000000; stroke-width: 0.8"/>
      </g>
     </g>
     <g id="text_32">
      <!-- 0.08 -->
      <g transform="translate(31.324375 445.353557) scale(0.1 -0.1)">
       <use xlink:href="#DejaVuSans-30"/>
       <use xlink:href="#DejaVuSans-2e" x="63.623047"/>
       <use xlink:href="#DejaVuSans-30" x="95.410156"/>
       <use xlink:href="#DejaVuSans-38" x="159.033203"/>
      </g>
     </g>
    </g>
    <g id="text_33">
     <!-- Charging -->
     <g transform="translate(25.244688 503.915937) rotate(-90) scale(0.1 -0.1)">
      <use xlink:href="#DejaVuSans-43"/>
      <use xlink:href="#DejaVuSans-68" x="69.824219"/>
      <use xlink:href="#DejaVuSans-61" x="133.203125"/>
      <use xlink:href="#DejaVuSans-72" x="194.482422"/>
      <use xlink:href="#DejaVuSans-67" x="233.845703"/>
      <use xlink:href="#DejaVuSans-69" x="297.322266"/>
      <use xlink:href="#DejaVuSans-6e" x="325.105469"/>
      <use xlink:href="#DejaVuSans-67" x="388.484375"/>
     </g>
    </g>
   </g>
   <g id="line2d_84">
    <path d="M 90.072273 529.247045 
L 417.851757 529.247045 
L 417.865407 433.387955 
L 417.960953 529.247045 
L 679.717727 529.247045 
L 679.717727 529.247045 
" clip-path="url(#p2fb729d9cf)" style="fill: none; stroke-dasharray: 5.55,2.4; stroke-dashoffset: 0; stroke: #800080; stroke-width: 1.5"/>
   </g>
   <g id="patch_18">
    <path d="M 60.59 534.04 
L 60.59 428.595 
" style="fill: none; stroke: #000000; stroke-width: 0.8; stroke-linejoin: miter; stroke-linecap: square"/>
   </g>
   <g id="patch_19">
    <path d="M 709.2 534.04 
L 709.2 428.595 
" style="fill: none; stroke: #000000; stroke-width: 0.8; stroke-linejoin: miter; stroke-linecap: square"/>
   </g>
   <g id="patch_20">
    <path d="M 60.59 534.04 
L 709.2 534.04 
" style="fill: none; stroke: #000000; stroke-width: 0.8; stroke-linejoin: miter; stroke-linecap: square"/>
   </g>
   <g id="patch_21">
    <path d="M 60.59 428.595 
L 709.2 428.595 
" style="fill: none; stroke: #000000; stroke-width: 0.8; stroke-linejoin: miter; stroke-linecap: square"/>
   </g>
   <g id="text_34">
    <!-- EV Charge while not home -->
    <g transform="translate(305.269375 422.595) scale(0.12 -0.12)">
     <defs>
      <path id="DejaVuSans-45" d="M 628 4666 
L 3578 4666 
L 3578 4134 
L 1259 4134 
L 1259 2753 
L 3481 2753 
L 3481 2222 
L 1259 2222 
L 1259 531 
L 3634 531 
L 3634 0 
L 628 0 
L 628 4666 
z
" transform="scale(0.015625)"/>
      <path id="DejaVuSans-56" d="M 1831 0 
L 50 4666 
L 709 4666 
L 2188 738 
L 3669 4666 
L 4325 4666 
L 2547 0 
L 1831 0 
z
" transform="scale(0.015625)"/>
      <path id="DejaVuSans-77" d="M 269 3500 
L 844 3500 
L 1563 769 
L 2278 3500 
L 2956 3500 
L 3675 769 
L 4391 3500 
L 4966 3500 
L 4050 0 
L 3372 0 
L 2619 2869 
L 1863 0 
L 1184 0 
L 269 3500 
z
" transform="scale(0.015625)"/>
     </defs>
     <use xlink:href="#DejaVuSans-45"/>
     <use xlink:href="#DejaVuSans-56" x="63.183594"/>
     <use xlink:href="#DejaVuSans-20" x="131.591797"/>
     <use xlink:href="#DejaVuSans-43" x="163.378906"/>
     <use xlink:href="#DejaVuSans-68" x="233.203125"/>
     <use xlink:href="#DejaVuSans-61" x="296.582031"/>
     <use xlink:href="#DejaVuSans-72" x="357.861328"/>
     <use xlink:href="#DejaVuSans-67" x="397.224609"/>
     <use xlink:href="#DejaVuSans-65" x="460.701172"/>
     <use xlink:href="#DejaVuSans-20" x="522.224609"/>
     <use xlink:href="#DejaVuSans-77" x="554.011719"/>
     <use xlink:href="#DejaVuSans-68" x="635.798828"/>
     <use xlink:href="#DejaVuSans-69" x="699.177734"/>
     <use xlink:href="#DejaVuSans-6c" x="726.960938"/>
     <use xlink:href="#DejaVuSans-65" x="754.744141"/>
     <use xlink:href="#DejaVuSans-20" x="816.267578"/>
     <use xlink:href="#DejaVuSans-6e" x="848.054688"/>
     <use xlink:href="#DejaVuSans-6f" x="911.433594"/>
     <use xlink:href="#DejaVuSans-74" x="972.615234"/>
     <use xlink:href="#DejaVuSans-20" x="1011.824219"/>
     <use xlink:href="#DejaVuSans-68" x="1043.611328"/>
     <use xlink:href="#DejaVuSans-6f" x="1106.990234"/>
     <use xlink:href="#DejaVuSans-6d" x="1168.171875"/>
     <use xlink:href="#DejaVuSans-65" x="1265.583984"/>
    </g>
   </g>
   <g id="legend_1">
    <g id="patch_22">
     <path d="M 616.854687 451.273125 
L 702.2 451.273125 
Q 704.2 451.273125 704.2 449.273125 
L 704.2 435.595 
Q 704.2 433.595 702.2 433.595 
L 616.854687 433.595 
Q 614.854687 433.595 614.854687 435.595 
L 614.854687 449.273125 
Q 614.854687 451.273125 616.854687 451.273125 
z
" style="fill: #ffffff; opacity: 0.8; stroke: #cccccc; stroke-linejoin: miter"/>
    </g>
    <g id="line2d_85">
     <path d="M 618.854687 441.693437 
L 628.854687 441.693437 
L 638.854687 441.693437 
" style="fill: none; stroke-dasharray: 5.55,2.4; stroke-dashoffset: 0; stroke: #800080; stroke-width: 1.5"/>
    </g>
    <g id="text_35">
     <!-- EV Refilled -->
     <g transform="translate(646.854687 445.193437) scale(0.1 -0.1)">
      <defs>
       <path id="DejaVuSans-52" d="M 2841 2188 
Q 3044 2119 3236 1894 
Q 3428 1669 3622 1275 
L 4263 0 
L 3584 0 
L 2988 1197 
Q 2756 1666 2539 1819 
Q 2322 1972 1947 1972 
L 1259 1972 
L 1259 0 
L 628 0 
L 628 4666 
L 2053 4666 
Q 2853 4666 3247 4331 
Q 3641 3997 3641 3322 
Q 3641 2881 3436 2590 
Q 3231 2300 2841 2188 
z
M 1259 4147 
L 1259 2491 
L 2053 2491 
Q 2509 2491 2742 2702 
Q 2975 2913 2975 3322 
Q 2975 3731 2742 3939 
Q 2509 4147 2053 4147 
L 1259 4147 
z
" transform="scale(0.015625)"/>
      </defs>
      <use xlink:href="#DejaVuSans-45"/>
      <use xlink:href="#DejaVuSans-56" x="63.183594"/>
      <use xlink:href="#DejaVuSans-20" x="131.591797"/>
      <use xlink:href="#DejaVuSans-52" x="163.378906"/>
      <use xlink:href="#DejaVuSans-65" x="228.361328"/>
      <use xlink:href="#DejaVuSans-66" x="289.884766"/>
      <use xlink:href="#DejaVuSans-69" x="325.089844"/>
      <use xlink:href="#DejaVuSans-6c" x="352.873047"/>
      <use xlink:href="#DejaVuSans-6c" x="380.65625"/>
      <use xlink:href="#DejaVuSans-65" x="408.439453"/>
      <use xlink:href="#DejaVuSans-64" x="469.962891"/>
     </g>
    </g>
   </g>
  </g>
 </g>
 <defs>
  <clipPath id="p3544bcdff1">
   <rect x="60.59" y="25.44" width="648.61" height="105.445"/>
  </clipPath>
  <clipPath id="p75621d7ed0">
   <rect x="60.59" y="159.825" width="648.61" height="105.445"/>
  </clipPath>
  <clipPath id="p220a2c3bfc">
   <rect x="60.59" y="294.21" width="648.61" height="105.445"/>
  </clipPath>
  <clipPath id="p2fb729d9cf">
   <rect x="60.59" y="428.595" width="648.61" height="105.445"/>
  </clipPath>
 </defs>
</svg>
