<?xml version="1.0" encoding="utf-8" standalone="no"?>
<!DOCTYPE svg PUBLIC "-//W3C//DTD SVG 1.1//EN"
  "http://www.w3.org/Graphics/SVG/1.1/DTD/svg11.dtd">
<svg xmlns:xlink="http://www.w3.org/1999/xlink" width="720pt" height="576pt" viewBox="0 0 720 576" xmlns="http://www.w3.org/2000/svg" version="1.1">
 <metadata>
  <rdf:RDF xmlns:dc="http://purl.org/dc/elements/1.1/" xmlns:cc="http://creativecommons.org/ns#" xmlns:rdf="http://www.w3.org/1999/02/22-rdf-syntax-ns#">
   <cc:Work>
    <dc:type rdf:resource="http://purl.org/dc/dcmitype/StillImage"/>
    <dc:date>2024-09-04T13:21:37.048762</dc:date>
    <dc:format>image/svg+xml</dc:format>
    <dc:creator>
     <cc:Agent>
      <dc:title>Matplotlib v3.8.4, https://matplotlib.org/</dc:title>
     </cc:Agent>
    </dc:creator>
   </cc:Work>
  </rdf:RDF>
 </metadata>
 <defs>
  <style type="text/css">*{stroke-linejoin: round; stroke-linecap: butt}</style>
 </defs>
 <g id="figure_1">
  <g id="patch_1">
   <path d="M 0 576 
L 720 576 
L 720 0 
L 0 0 
z
" style="fill: #ffffff"/>
  </g>
  <g id="axes_1">
   <g id="patch_2">
    <path d="M 54.2 130.885 
L 709.2 130.885 
L 709.2 25.44 
L 54.2 25.44 
z
" style="fill: #ffffff"/>
   </g>
   <g id="matplotlib.axis_1">
    <g id="xtick_1">
     <g id="line2d_1">
      <path d="M 83.972727 130.885 
L 83.972727 25.44 
" clip-path="url(#p186560f8fb)" style="fill: none; stroke: #b0b0b0; stroke-width: 0.8; stroke-linecap: square"/>
     </g>
     <g id="line2d_2">
      <defs>
       <path id="m0e0f07e728" d="M 0 0 
L 0 3.5 
" style="stroke: #000000; stroke-width: 0.8"/>
      </defs>
      <g>
       <use xlink:href="#m0e0f07e728" x="83.972727" y="130.885" style="stroke: #000000; stroke-width: 0.8"/>
      </g>
     </g>
    </g>
    <g id="xtick_2">
     <g id="line2d_3">
      <path d="M 221.812618 130.885 
L 221.812618 25.44 
" clip-path="url(#p186560f8fb)" style="fill: none; stroke: #b0b0b0; stroke-width: 0.8; stroke-linecap: square"/>
     </g>
     <g id="line2d_4">
      <g>
       <use xlink:href="#m0e0f07e728" x="221.812618" y="130.885" style="stroke: #000000; stroke-width: 0.8"/>
      </g>
     </g>
    </g>
    <g id="xtick_3">
     <g id="line2d_5">
      <path d="M 359.652509 130.885 
L 359.652509 25.44 
" clip-path="url(#p186560f8fb)" style="fill: none; stroke: #b0b0b0; stroke-width: 0.8; stroke-linecap: square"/>
     </g>
     <g id="line2d_6">
      <g>
       <use xlink:href="#m0e0f07e728" x="359.652509" y="130.885" style="stroke: #000000; stroke-width: 0.8"/>
      </g>
     </g>
    </g>
    <g id="xtick_4">
     <g id="line2d_7">
      <path d="M 497.4924 130.885 
L 497.4924 25.44 
" clip-path="url(#p186560f8fb)" style="fill: none; stroke: #b0b0b0; stroke-width: 0.8; stroke-linecap: square"/>
     </g>
     <g id="line2d_8">
      <g>
       <use xlink:href="#m0e0f07e728" x="497.4924" y="130.885" style="stroke: #000000; stroke-width: 0.8"/>
      </g>
     </g>
    </g>
    <g id="xtick_5">
     <g id="line2d_9">
      <path d="M 635.332292 130.885 
L 635.332292 25.44 
" clip-path="url(#p186560f8fb)" style="fill: none; stroke: #b0b0b0; stroke-width: 0.8; stroke-linecap: square"/>
     </g>
     <g id="line2d_10">
      <g>
       <use xlink:href="#m0e0f07e728" x="635.332292" y="130.885" style="stroke: #000000; stroke-width: 0.8"/>
      </g>
     </g>
    </g>
   </g>
   <g id="matplotlib.axis_2">
    <g id="ytick_1">
     <g id="line2d_11">
      <path d="M 54.2 126.092045 
L 709.2 126.092045 
" clip-path="url(#p186560f8fb)" style="fill: none; stroke: #b0b0b0; stroke-width: 0.8; stroke-linecap: square"/>
     </g>
     <g id="line2d_12">
      <defs>
       <path id="mae59854aee" d="M 0 0 
L -3.5 0 
" style="stroke: #000000; stroke-width: 0.8"/>
      </defs>
      <g>
       <use xlink:href="#mae59854aee" x="54.2" y="126.092045" style="stroke: #000000; stroke-width: 0.8"/>
      </g>
     </g>
     <g id="text_1">
      <!-- 0.0 -->
      <g transform="translate(31.296875 129.891264) scale(0.1 -0.1)">
       <defs>
        <path id="DejaVuSans-30" d="M 2034 4250 
Q 1547 4250 1301 3770 
Q 1056 3291 1056 2328 
Q 1056 1369 1301 889 
Q 1547 409 2034 409 
Q 2525 409 2770 889 
Q 3016 1369 3016 2328 
Q 3016 3291 2770 3770 
Q 2525 4250 2034 4250 
z
M 2034 4750 
Q 2819 4750 3233 4129 
Q 3647 3509 3647 2328 
Q 3647 1150 3233 529 
Q 2819 -91 2034 -91 
Q 1250 -91 836 529 
Q 422 1150 422 2328 
Q 422 3509 836 4129 
Q 1250 4750 2034 4750 
z
" transform="scale(0.015625)"/>
        <path id="DejaVuSans-2e" d="M 684 794 
L 1344 794 
L 1344 0 
L 684 0 
L 684 794 
z
" transform="scale(0.015625)"/>
       </defs>
       <use xlink:href="#DejaVuSans-30"/>
       <use xlink:href="#DejaVuSans-2e" x="63.623047"/>
       <use xlink:href="#DejaVuSans-30" x="95.410156"/>
      </g>
     </g>
    </g>
    <g id="ytick_2">
     <g id="line2d_13">
      <path d="M 54.2 104.790025 
L 709.2 104.790025 
" clip-path="url(#p186560f8fb)" style="fill: none; stroke: #b0b0b0; stroke-width: 0.8; stroke-linecap: square"/>
     </g>
     <g id="line2d_14">
      <g>
       <use xlink:href="#mae59854aee" x="54.2" y="104.790025" style="stroke: #000000; stroke-width: 0.8"/>
      </g>
     </g>
     <g id="text_2">
      <!-- 0.2 -->
      <g transform="translate(31.296875 108.589244) scale(0.1 -0.1)">
       <defs>
        <path id="DejaVuSans-32" d="M 1228 531 
L 3431 531 
L 3431 0 
L 469 0 
L 469 531 
Q 828 903 1448 1529 
Q 2069 2156 2228 2338 
Q 2531 2678 2651 2914 
Q 2772 3150 2772 3378 
Q 2772 3750 2511 3984 
Q 2250 4219 1831 4219 
Q 1534 4219 1204 4116 
Q 875 4013 500 3803 
L 500 4441 
Q 881 4594 1212 4672 
Q 1544 4750 1819 4750 
Q 2544 4750 2975 4387 
Q 3406 4025 3406 3419 
Q 3406 3131 3298 2873 
Q 3191 2616 2906 2266 
Q 2828 2175 2409 1742 
Q 1991 1309 1228 531 
z
" transform="scale(0.015625)"/>
       </defs>
       <use xlink:href="#DejaVuSans-30"/>
       <use xlink:href="#DejaVuSans-2e" x="63.623047"/>
       <use xlink:href="#DejaVuSans-32" x="95.410156"/>
      </g>
     </g>
    </g>
    <g id="ytick_3">
     <g id="line2d_15">
      <path d="M 54.2 83.488005 
L 709.2 83.488005 
" clip-path="url(#p186560f8fb)" style="fill: none; stroke: #b0b0b0; stroke-width: 0.8; stroke-linecap: square"/>
     </g>
     <g id="line2d_16">
      <g>
       <use xlink:href="#mae59854aee" x="54.2" y="83.488005" style="stroke: #000000; stroke-width: 0.8"/>
      </g>
     </g>
     <g id="text_3">
      <!-- 0.4 -->
      <g transform="translate(31.296875 87.287224) scale(0.1 -0.1)">
       <defs>
        <path id="DejaVuSans-34" d="M 2419 4116 
L 825 1625 
L 2419 1625 
L 2419 4116 
z
M 2253 4666 
L 3047 4666 
L 3047 1625 
L 3713 1625 
L 3713 1100 
L 3047 1100 
L 3047 0 
L 2419 0 
L 2419 1100 
L 313 1100 
L 313 1709 
L 2253 4666 
z
" transform="scale(0.015625)"/>
       </defs>
       <use xlink:href="#DejaVuSans-30"/>
       <use xlink:href="#DejaVuSans-2e" x="63.623047"/>
       <use xlink:href="#DejaVuSans-34" x="95.410156"/>
      </g>
     </g>
    </g>
    <g id="ytick_4">
     <g id="line2d_17">
      <path d="M 54.2 62.185985 
L 709.2 62.185985 
" clip-path="url(#p186560f8fb)" style="fill: none; stroke: #b0b0b0; stroke-width: 0.8; stroke-linecap: square"/>
     </g>
     <g id="line2d_18">
      <g>
       <use xlink:href="#mae59854aee" x="54.2" y="62.185985" style="stroke: #000000; stroke-width: 0.8"/>
      </g>
     </g>
     <g id="text_4">
      <!-- 0.6 -->
      <g transform="translate(31.296875 65.985204) scale(0.1 -0.1)">
       <defs>
        <path id="DejaVuSans-36" d="M 2113 2584 
Q 1688 2584 1439 2293 
Q 1191 2003 1191 1497 
Q 1191 994 1439 701 
Q 1688 409 2113 409 
Q 2538 409 2786 701 
Q 3034 994 3034 1497 
Q 3034 2003 2786 2293 
Q 2538 2584 2113 2584 
z
M 3366 4563 
L 3366 3988 
Q 3128 4100 2886 4159 
Q 2644 4219 2406 4219 
Q 1781 4219 1451 3797 
Q 1122 3375 1075 2522 
Q 1259 2794 1537 2939 
Q 1816 3084 2150 3084 
Q 2853 3084 3261 2657 
Q 3669 2231 3669 1497 
Q 3669 778 3244 343 
Q 2819 -91 2113 -91 
Q 1303 -91 875 529 
Q 447 1150 447 2328 
Q 447 3434 972 4092 
Q 1497 4750 2381 4750 
Q 2619 4750 2861 4703 
Q 3103 4656 3366 4563 
z
" transform="scale(0.015625)"/>
       </defs>
       <use xlink:href="#DejaVuSans-30"/>
       <use xlink:href="#DejaVuSans-2e" x="63.623047"/>
       <use xlink:href="#DejaVuSans-36" x="95.410156"/>
      </g>
     </g>
    </g>
    <g id="ytick_5">
     <g id="line2d_19">
      <path d="M 54.2 40.883965 
L 709.2 40.883965 
" clip-path="url(#p186560f8fb)" style="fill: none; stroke: #b0b0b0; stroke-width: 0.8; stroke-linecap: square"/>
     </g>
     <g id="line2d_20">
      <g>
       <use xlink:href="#mae59854aee" x="54.2" y="40.883965" style="stroke: #000000; stroke-width: 0.8"/>
      </g>
     </g>
     <g id="text_5">
      <!-- 0.8 -->
      <g transform="translate(31.296875 44.683183) scale(0.1 -0.1)">
       <defs>
        <path id="DejaVuSans-38" d="M 2034 2216 
Q 1584 2216 1326 1975 
Q 1069 1734 1069 1313 
Q 1069 891 1326 650 
Q 1584 409 2034 409 
Q 2484 409 2743 651 
Q 3003 894 3003 1313 
Q 3003 1734 2745 1975 
Q 2488 2216 2034 2216 
z
M 1403 2484 
Q 997 2584 770 2862 
Q 544 3141 544 3541 
Q 544 4100 942 4425 
Q 1341 4750 2034 4750 
Q 2731 4750 3128 4425 
Q 3525 4100 3525 3541 
Q 3525 3141 3298 2862 
Q 3072 2584 2669 2484 
Q 3125 2378 3379 2068 
Q 3634 1759 3634 1313 
Q 3634 634 3220 271 
Q 2806 -91 2034 -91 
Q 1263 -91 848 271 
Q 434 634 434 1313 
Q 434 1759 690 2068 
Q 947 2378 1403 2484 
z
M 1172 3481 
Q 1172 3119 1398 2916 
Q 1625 2713 2034 2713 
Q 2441 2713 2670 2916 
Q 2900 3119 2900 3481 
Q 2900 3844 2670 4047 
Q 2441 4250 2034 4250 
Q 1625 4250 1398 4047 
Q 1172 3844 1172 3481 
z
" transform="scale(0.015625)"/>
       </defs>
       <use xlink:href="#DejaVuSans-30"/>
       <use xlink:href="#DejaVuSans-2e" x="63.623047"/>
       <use xlink:href="#DejaVuSans-38" x="95.410156"/>
      </g>
     </g>
    </g>
    <g id="text_6">
     <!-- SOC (%) -->
     <g transform="translate(25.217188 99.005469) rotate(-90) scale(0.1 -0.1)">
      <defs>
       <path id="DejaVuSans-53" d="M 3425 4513 
L 3425 3897 
Q 3066 4069 2747 4153 
Q 2428 4238 2131 4238 
Q 1616 4238 1336 4038 
Q 1056 3838 1056 3469 
Q 1056 3159 1242 3001 
Q 1428 2844 1947 2747 
L 2328 2669 
Q 3034 2534 3370 2195 
Q 3706 1856 3706 1288 
Q 3706 609 3251 259 
Q 2797 -91 1919 -91 
Q 1588 -91 1214 -16 
Q 841 59 441 206 
L 441 856 
Q 825 641 1194 531 
Q 1563 422 1919 422 
Q 2459 422 2753 634 
Q 3047 847 3047 1241 
Q 3047 1584 2836 1778 
Q 2625 1972 2144 2069 
L 1759 2144 
Q 1053 2284 737 2584 
Q 422 2884 422 3419 
Q 422 4038 858 4394 
Q 1294 4750 2059 4750 
Q 2388 4750 2728 4690 
Q 3069 4631 3425 4513 
z
" transform="scale(0.015625)"/>
       <path id="DejaVuSans-4f" d="M 2522 4238 
Q 1834 4238 1429 3725 
Q 1025 3213 1025 2328 
Q 1025 1447 1429 934 
Q 1834 422 2522 422 
Q 3209 422 3611 934 
Q 4013 1447 4013 2328 
Q 4013 3213 3611 3725 
Q 3209 4238 2522 4238 
z
M 2522 4750 
Q 3503 4750 4090 4092 
Q 4678 3434 4678 2328 
Q 4678 1225 4090 567 
Q 3503 -91 2522 -91 
Q 1538 -91 948 565 
Q 359 1222 359 2328 
Q 359 3434 948 4092 
Q 1538 4750 2522 4750 
z
" transform="scale(0.015625)"/>
       <path id="DejaVuSans-43" d="M 4122 4306 
L 4122 3641 
Q 3803 3938 3442 4084 
Q 3081 4231 2675 4231 
Q 1875 4231 1450 3742 
Q 1025 3253 1025 2328 
Q 1025 1406 1450 917 
Q 1875 428 2675 428 
Q 3081 428 3442 575 
Q 3803 722 4122 1019 
L 4122 359 
Q 3791 134 3420 21 
Q 3050 -91 2638 -91 
Q 1578 -91 968 557 
Q 359 1206 359 2328 
Q 359 3453 968 4101 
Q 1578 4750 2638 4750 
Q 3056 4750 3426 4639 
Q 3797 4528 4122 4306 
z
" transform="scale(0.015625)"/>
       <path id="DejaVuSans-20" transform="scale(0.015625)"/>
       <path id="DejaVuSans-28" d="M 1984 4856 
Q 1566 4138 1362 3434 
Q 1159 2731 1159 2009 
Q 1159 1288 1364 580 
Q 1569 -128 1984 -844 
L 1484 -844 
Q 1016 -109 783 600 
Q 550 1309 550 2009 
Q 550 2706 781 3412 
Q 1013 4119 1484 4856 
L 1984 4856 
z
" transform="scale(0.015625)"/>
       <path id="DejaVuSans-25" d="M 4653 2053 
Q 4381 2053 4226 1822 
Q 4072 1591 4072 1178 
Q 4072 772 4226 539 
Q 4381 306 4653 306 
Q 4919 306 5073 539 
Q 5228 772 5228 1178 
Q 5228 1588 5073 1820 
Q 4919 2053 4653 2053 
z
M 4653 2450 
Q 5147 2450 5437 2106 
Q 5728 1763 5728 1178 
Q 5728 594 5436 251 
Q 5144 -91 4653 -91 
Q 4153 -91 3862 251 
Q 3572 594 3572 1178 
Q 3572 1766 3864 2108 
Q 4156 2450 4653 2450 
z
M 1428 4353 
Q 1159 4353 1004 4120 
Q 850 3888 850 3481 
Q 850 3069 1003 2837 
Q 1156 2606 1428 2606 
Q 1700 2606 1854 2837 
Q 2009 3069 2009 3481 
Q 2009 3884 1853 4118 
Q 1697 4353 1428 4353 
z
M 4250 4750 
L 4750 4750 
L 1831 -91 
L 1331 -91 
L 4250 4750 
z
M 1428 4750 
Q 1922 4750 2215 4408 
Q 2509 4066 2509 3481 
Q 2509 2891 2217 2550 
Q 1925 2209 1428 2209 
Q 931 2209 642 2551 
Q 353 2894 353 3481 
Q 353 4063 643 4406 
Q 934 4750 1428 4750 
z
" transform="scale(0.015625)"/>
       <path id="DejaVuSans-29" d="M 513 4856 
L 1013 4856 
Q 1481 4119 1714 3412 
Q 1947 2706 1947 2009 
Q 1947 1309 1714 600 
Q 1481 -109 1013 -844 
L 513 -844 
Q 928 -128 1133 580 
Q 1338 1288 1338 2009 
Q 1338 2731 1133 3434 
Q 928 4138 513 4856 
z
" transform="scale(0.015625)"/>
      </defs>
      <use xlink:href="#DejaVuSans-53"/>
      <use xlink:href="#DejaVuSans-4f" x="63.476562"/>
      <use xlink:href="#DejaVuSans-43" x="142.1875"/>
      <use xlink:href="#DejaVuSans-20" x="212.011719"/>
      <use xlink:href="#DejaVuSans-28" x="243.798828"/>
      <use xlink:href="#DejaVuSans-25" x="282.8125"/>
      <use xlink:href="#DejaVuSans-29" x="377.832031"/>
     </g>
    </g>
   </g>
   <g id="line2d_21">
    <path d="M 83.972727 30.232955 
L 92.229337 30.232955 
L 92.353393 126.092045 
L 93.332056 126.092045 
L 93.456112 32.806863 
L 93.786928 30.232955 
L 94.986135 30.232955 
L 95.11019 126.092045 
L 97.880772 126.092045 
L 98.004828 33.976229 
L 98.432132 30.232955 
L 113.181 30.232955 
L 113.305056 126.092045 
L 113.8702 126.092045 
L 113.994256 45.406193 
L 115.414006 30.232955 
L 116.902677 30.232955 
L 117.026733 126.092045 
L 117.316197 126.092045 
L 117.440253 37.518555 
L 118.170804 30.232955 
L 136.200262 30.232955 
L 136.324318 126.092045 
L 136.751622 126.092045 
L 136.875677 36.508633 
L 137.523525 30.232955 
L 139.23274 30.232955 
L 139.356796 126.092045 
L 140.611139 126.092045 
L 140.735194 53.574626 
L 142.857929 30.232955 
L 211.323003 30.232955 
L 211.447059 126.092045 
L 212.563562 126.092045 
L 212.687618 35.514056 
L 213.252761 30.232955 
L 214.63116 30.232955 
L 214.755216 126.092045 
L 216.147399 126.092045 
L 216.271455 36.153981 
L 216.560918 32.798912 
L 216.684974 126.092045 
L 217.250118 126.092045 
L 217.374174 34.240469 
L 217.829045 30.232955 
L 231.171947 30.232955 
L 231.296003 126.092045 
L 232.274666 126.092045 
L 232.398722 34.665292 
L 232.881162 30.232955 
L 233.928745 30.232955 
L 234.052801 126.092045 
L 236.823382 126.092045 
L 236.947438 35.954751 
L 237.54015 30.232955 
L 252.12361 30.232955 
L 252.247666 126.092045 
L 252.81281 126.092045 
L 252.936866 37.223829 
L 253.639849 30.232955 
L 255.845287 30.232955 
L 255.969343 126.092045 
L 256.258807 126.092045 
L 256.382863 40.695758 
L 257.389094 30.232955 
L 275.142872 30.232955 
L 275.266928 126.092045 
L 275.694232 126.092045 
L 275.818288 35.425178 
L 276.369647 30.232955 
L 278.17535 30.232955 
L 278.299406 126.092045 
L 279.553749 126.092045 
L 279.677805 37.620474 
L 280.42214 30.232955 
L 350.265613 30.232955 
L 350.389669 126.092045 
L 351.506172 126.092045 
L 351.630228 34.063 
L 352.071315 30.232955 
L 353.57377 30.232955 
L 353.697826 126.092045 
L 355.090009 126.092045 
L 355.214065 33.917053 
L 355.503529 30.561984 
L 355.627585 126.092045 
L 356.192728 126.092045 
L 356.316784 32.786606 
L 356.6476 30.232955 
L 370.114557 30.232955 
L 370.238613 126.092045 
L 371.217276 126.092045 
L 371.341332 32.907041 
L 371.672148 30.232955 
L 372.871355 30.232955 
L 372.995411 126.092045 
L 375.765993 126.092045 
L 375.890049 44.94331 
L 377.268448 30.232955 
L 391.066221 30.232955 
L 391.190277 126.092045 
L 391.75542 126.092045 
L 391.879476 35.873649 
L 392.472187 30.232955 
L 394.787898 30.232955 
L 394.911954 126.092045 
L 395.201417 126.092045 
L 395.325473 32.97221 
L 395.670073 30.232955 
L 414.085482 30.232955 
L 414.209538 126.092045 
L 414.636842 126.092045 
L 414.760898 35.409041 
L 415.312257 30.232955 
L 417.11796 30.232955 
L 417.242016 126.092045 
L 418.496359 126.092045 
L 418.620415 43.799512 
L 419.902326 30.232955 
L 489.208223 30.232955 
L 489.332279 126.092045 
L 490.448782 126.092045 
L 490.572838 34.408222 
L 491.041494 30.232955 
L 492.51638 30.232955 
L 492.640436 126.092045 
L 494.032619 126.092045 
L 494.156675 37.981133 
L 494.446139 34.626064 
L 494.570195 126.092045 
L 495.135338 126.092045 
L 495.259394 37.673045 
L 496.00373 30.232955 
L 509.057167 30.232955 
L 509.181223 126.092045 
L 510.159886 126.092045 
L 510.283942 34.906407 
L 510.79395 30.232955 
L 511.813965 30.232955 
L 511.938021 126.092045 
L 514.708603 126.092045 
L 514.832659 35.962331 
L 515.42537 30.232955 
L 530.008831 30.232955 
L 530.132887 126.092045 
L 530.69803 126.092045 
L 530.822086 39.887882 
L 531.759397 30.232955 
L 533.730508 30.232955 
L 533.854564 126.092045 
L 534.144028 126.092045 
L 534.268083 38.492174 
L 535.081339 30.232955 
L 553.028093 30.232955 
L 553.152149 126.092045 
L 553.579452 126.092045 
L 553.703508 34.993347 
L 554.213516 30.232955 
L 556.06057 30.232955 
L 556.184626 126.092045 
L 557.438969 126.092045 
L 557.563025 37.131987 
L 558.266008 30.232955 
L 628.150833 30.232955 
L 628.274889 126.092045 
L 629.391392 126.092045 
L 629.515448 36.65009 
L 630.17708 30.232955 
L 631.458991 30.232955 
L 631.583047 126.092045 
L 632.975229 126.092045 
L 633.099285 35.688183 
L 633.388749 32.333115 
L 633.512805 126.092045 
L 634.077949 126.092045 
L 634.202004 34.325478 
L 634.656876 30.232955 
L 647.999778 30.232955 
L 648.123833 126.092045 
L 649.102497 126.092045 
L 649.226553 34.937985 
L 649.73656 30.232955 
L 650.756575 30.232955 
L 650.880631 126.092045 
L 653.651213 126.092045 
L 653.775269 36.894016 
L 654.450684 30.232955 
L 668.951441 30.232955 
L 669.075497 126.092045 
L 669.64064 126.092045 
L 669.764696 39.146434 
L 670.633088 30.232955 
L 672.673118 30.232955 
L 672.797174 126.092045 
L 673.086638 126.092045 
L 673.210694 41.006964 
L 674.244493 30.232955 
L 679.427273 30.232955 
L 679.427273 30.232955 
" clip-path="url(#p186560f8fb)" style="fill: none; stroke: #0000ff; stroke-width: 1.5; stroke-linecap: square"/>
   </g>
   <g id="patch_3">
    <path d="M 54.2 130.885 
L 54.2 25.44 
" style="fill: none; stroke: #000000; stroke-width: 0.8; stroke-linejoin: miter; stroke-linecap: square"/>
   </g>
   <g id="patch_4">
    <path d="M 709.2 130.885 
L 709.2 25.44 
" style="fill: none; stroke: #000000; stroke-width: 0.8; stroke-linejoin: miter; stroke-linecap: square"/>
   </g>
   <g id="patch_5">
    <path d="M 54.2 130.885 
L 709.2 130.885 
" style="fill: none; stroke: #000000; stroke-width: 0.8; stroke-linejoin: miter; stroke-linecap: square"/>
   </g>
   <g id="patch_6">
    <path d="M 54.2 25.44 
L 709.2 25.44 
" style="fill: none; stroke: #000000; stroke-width: 0.8; stroke-linejoin: miter; stroke-linecap: square"/>
   </g>
   <g id="text_7">
    <!-- State of Charge Over Time -->
    <g transform="translate(301.762187 19.44) scale(0.12 -0.12)">
     <defs>
      <path id="DejaVuSans-74" d="M 1172 4494 
L 1172 3500 
L 2356 3500 
L 2356 3053 
L 1172 3053 
L 1172 1153 
Q 1172 725 1289 603 
Q 1406 481 1766 481 
L 2356 481 
L 2356 0 
L 1766 0 
Q 1100 0 847 248 
Q 594 497 594 1153 
L 594 3053 
L 172 3053 
L 172 3500 
L 594 3500 
L 594 4494 
L 1172 4494 
z
" transform="scale(0.015625)"/>
      <path id="DejaVuSans-61" d="M 2194 1759 
Q 1497 1759 1228 1600 
Q 959 1441 959 1056 
Q 959 750 1161 570 
Q 1363 391 1709 391 
Q 2188 391 2477 730 
Q 2766 1069 2766 1631 
L 2766 1759 
L 2194 1759 
z
M 3341 1997 
L 3341 0 
L 2766 0 
L 2766 531 
Q 2569 213 2275 61 
Q 1981 -91 1556 -91 
Q 1019 -91 701 211 
Q 384 513 384 1019 
Q 384 1609 779 1909 
Q 1175 2209 1959 2209 
L 2766 2209 
L 2766 2266 
Q 2766 2663 2505 2880 
Q 2244 3097 1772 3097 
Q 1472 3097 1187 3025 
Q 903 2953 641 2809 
L 641 3341 
Q 956 3463 1253 3523 
Q 1550 3584 1831 3584 
Q 2591 3584 2966 3190 
Q 3341 2797 3341 1997 
z
" transform="scale(0.015625)"/>
      <path id="DejaVuSans-65" d="M 3597 1894 
L 3597 1613 
L 953 1613 
Q 991 1019 1311 708 
Q 1631 397 2203 397 
Q 2534 397 2845 478 
Q 3156 559 3463 722 
L 3463 178 
Q 3153 47 2828 -22 
Q 2503 -91 2169 -91 
Q 1331 -91 842 396 
Q 353 884 353 1716 
Q 353 2575 817 3079 
Q 1281 3584 2069 3584 
Q 2775 3584 3186 3129 
Q 3597 2675 3597 1894 
z
M 3022 2063 
Q 3016 2534 2758 2815 
Q 2500 3097 2075 3097 
Q 1594 3097 1305 2825 
Q 1016 2553 972 2059 
L 3022 2063 
z
" transform="scale(0.015625)"/>
      <path id="DejaVuSans-6f" d="M 1959 3097 
Q 1497 3097 1228 2736 
Q 959 2375 959 1747 
Q 959 1119 1226 758 
Q 1494 397 1959 397 
Q 2419 397 2687 759 
Q 2956 1122 2956 1747 
Q 2956 2369 2687 2733 
Q 2419 3097 1959 3097 
z
M 1959 3584 
Q 2709 3584 3137 3096 
Q 3566 2609 3566 1747 
Q 3566 888 3137 398 
Q 2709 -91 1959 -91 
Q 1206 -91 779 398 
Q 353 888 353 1747 
Q 353 2609 779 3096 
Q 1206 3584 1959 3584 
z
" transform="scale(0.015625)"/>
      <path id="DejaVuSans-66" d="M 2375 4863 
L 2375 4384 
L 1825 4384 
Q 1516 4384 1395 4259 
Q 1275 4134 1275 3809 
L 1275 3500 
L 2222 3500 
L 2222 3053 
L 1275 3053 
L 1275 0 
L 697 0 
L 697 3053 
L 147 3053 
L 147 3500 
L 697 3500 
L 697 3744 
Q 697 4328 969 4595 
Q 1241 4863 1831 4863 
L 2375 4863 
z
" transform="scale(0.015625)"/>
      <path id="DejaVuSans-68" d="M 3513 2113 
L 3513 0 
L 2938 0 
L 2938 2094 
Q 2938 2591 2744 2837 
Q 2550 3084 2163 3084 
Q 1697 3084 1428 2787 
Q 1159 2491 1159 1978 
L 1159 0 
L 581 0 
L 581 4863 
L 1159 4863 
L 1159 2956 
Q 1366 3272 1645 3428 
Q 1925 3584 2291 3584 
Q 2894 3584 3203 3211 
Q 3513 2838 3513 2113 
z
" transform="scale(0.015625)"/>
      <path id="DejaVuSans-72" d="M 2631 2963 
Q 2534 3019 2420 3045 
Q 2306 3072 2169 3072 
Q 1681 3072 1420 2755 
Q 1159 2438 1159 1844 
L 1159 0 
L 581 0 
L 581 3500 
L 1159 3500 
L 1159 2956 
Q 1341 3275 1631 3429 
Q 1922 3584 2338 3584 
Q 2397 3584 2469 3576 
Q 2541 3569 2628 3553 
L 2631 2963 
z
" transform="scale(0.015625)"/>
      <path id="DejaVuSans-67" d="M 2906 1791 
Q 2906 2416 2648 2759 
Q 2391 3103 1925 3103 
Q 1463 3103 1205 2759 
Q 947 2416 947 1791 
Q 947 1169 1205 825 
Q 1463 481 1925 481 
Q 2391 481 2648 825 
Q 2906 1169 2906 1791 
z
M 3481 434 
Q 3481 -459 3084 -895 
Q 2688 -1331 1869 -1331 
Q 1566 -1331 1297 -1286 
Q 1028 -1241 775 -1147 
L 775 -588 
Q 1028 -725 1275 -790 
Q 1522 -856 1778 -856 
Q 2344 -856 2625 -561 
Q 2906 -266 2906 331 
L 2906 616 
Q 2728 306 2450 153 
Q 2172 0 1784 0 
Q 1141 0 747 490 
Q 353 981 353 1791 
Q 353 2603 747 3093 
Q 1141 3584 1784 3584 
Q 2172 3584 2450 3431 
Q 2728 3278 2906 2969 
L 2906 3500 
L 3481 3500 
L 3481 434 
z
" transform="scale(0.015625)"/>
      <path id="DejaVuSans-76" d="M 191 3500 
L 800 3500 
L 1894 563 
L 2988 3500 
L 3597 3500 
L 2284 0 
L 1503 0 
L 191 3500 
z
" transform="scale(0.015625)"/>
      <path id="DejaVuSans-54" d="M -19 4666 
L 3928 4666 
L 3928 4134 
L 2272 4134 
L 2272 0 
L 1638 0 
L 1638 4134 
L -19 4134 
L -19 4666 
z
" transform="scale(0.015625)"/>
      <path id="DejaVuSans-69" d="M 603 3500 
L 1178 3500 
L 1178 0 
L 603 0 
L 603 3500 
z
M 603 4863 
L 1178 4863 
L 1178 4134 
L 603 4134 
L 603 4863 
z
" transform="scale(0.015625)"/>
      <path id="DejaVuSans-6d" d="M 3328 2828 
Q 3544 3216 3844 3400 
Q 4144 3584 4550 3584 
Q 5097 3584 5394 3201 
Q 5691 2819 5691 2113 
L 5691 0 
L 5113 0 
L 5113 2094 
Q 5113 2597 4934 2840 
Q 4756 3084 4391 3084 
Q 3944 3084 3684 2787 
Q 3425 2491 3425 1978 
L 3425 0 
L 2847 0 
L 2847 2094 
Q 2847 2600 2669 2842 
Q 2491 3084 2119 3084 
Q 1678 3084 1418 2786 
Q 1159 2488 1159 1978 
L 1159 0 
L 581 0 
L 581 3500 
L 1159 3500 
L 1159 2956 
Q 1356 3278 1631 3431 
Q 1906 3584 2284 3584 
Q 2666 3584 2933 3390 
Q 3200 3197 3328 2828 
z
" transform="scale(0.015625)"/>
     </defs>
     <use xlink:href="#DejaVuSans-53"/>
     <use xlink:href="#DejaVuSans-74" x="63.476562"/>
     <use xlink:href="#DejaVuSans-61" x="102.685547"/>
     <use xlink:href="#DejaVuSans-74" x="163.964844"/>
     <use xlink:href="#DejaVuSans-65" x="203.173828"/>
     <use xlink:href="#DejaVuSans-20" x="264.697266"/>
     <use xlink:href="#DejaVuSans-6f" x="296.484375"/>
     <use xlink:href="#DejaVuSans-66" x="357.666016"/>
     <use xlink:href="#DejaVuSans-20" x="392.871094"/>
     <use xlink:href="#DejaVuSans-43" x="424.658203"/>
     <use xlink:href="#DejaVuSans-68" x="494.482422"/>
     <use xlink:href="#DejaVuSans-61" x="557.861328"/>
     <use xlink:href="#DejaVuSans-72" x="619.140625"/>
     <use xlink:href="#DejaVuSans-67" x="658.503906"/>
     <use xlink:href="#DejaVuSans-65" x="721.980469"/>
     <use xlink:href="#DejaVuSans-20" x="783.503906"/>
     <use xlink:href="#DejaVuSans-4f" x="815.291016"/>
     <use xlink:href="#DejaVuSans-76" x="894.001953"/>
     <use xlink:href="#DejaVuSans-65" x="953.181641"/>
     <use xlink:href="#DejaVuSans-72" x="1014.705078"/>
     <use xlink:href="#DejaVuSans-20" x="1055.818359"/>
     <use xlink:href="#DejaVuSans-54" x="1087.605469"/>
     <use xlink:href="#DejaVuSans-69" x="1145.564453"/>
     <use xlink:href="#DejaVuSans-6d" x="1173.347656"/>
     <use xlink:href="#DejaVuSans-65" x="1270.759766"/>
    </g>
   </g>
  </g>
  <g id="axes_2">
   <g id="patch_7">
    <path d="M 54.2 265.27 
L 709.2 265.27 
L 709.2 159.825 
L 54.2 159.825 
z
" style="fill: #ffffff"/>
   </g>
   <g id="matplotlib.axis_3">
    <g id="xtick_6">
     <g id="line2d_22">
      <path d="M 83.972727 265.27 
L 83.972727 159.825 
" clip-path="url(#p9aa2aa40a8)" style="fill: none; stroke: #b0b0b0; stroke-width: 0.8; stroke-linecap: square"/>
     </g>
     <g id="line2d_23">
      <g>
       <use xlink:href="#m0e0f07e728" x="83.972727" y="265.27" style="stroke: #000000; stroke-width: 0.8"/>
      </g>
     </g>
    </g>
    <g id="xtick_7">
     <g id="line2d_24">
      <path d="M 221.812618 265.27 
L 221.812618 159.825 
" clip-path="url(#p9aa2aa40a8)" style="fill: none; stroke: #b0b0b0; stroke-width: 0.8; stroke-linecap: square"/>
     </g>
     <g id="line2d_25">
      <g>
       <use xlink:href="#m0e0f07e728" x="221.812618" y="265.27" style="stroke: #000000; stroke-width: 0.8"/>
      </g>
     </g>
    </g>
    <g id="xtick_8">
     <g id="line2d_26">
      <path d="M 359.652509 265.27 
L 359.652509 159.825 
" clip-path="url(#p9aa2aa40a8)" style="fill: none; stroke: #b0b0b0; stroke-width: 0.8; stroke-linecap: square"/>
     </g>
     <g id="line2d_27">
      <g>
       <use xlink:href="#m0e0f07e728" x="359.652509" y="265.27" style="stroke: #000000; stroke-width: 0.8"/>
      </g>
     </g>
    </g>
    <g id="xtick_9">
     <g id="line2d_28">
      <path d="M 497.4924 265.27 
L 497.4924 159.825 
" clip-path="url(#p9aa2aa40a8)" style="fill: none; stroke: #b0b0b0; stroke-width: 0.8; stroke-linecap: square"/>
     </g>
     <g id="line2d_29">
      <g>
       <use xlink:href="#m0e0f07e728" x="497.4924" y="265.27" style="stroke: #000000; stroke-width: 0.8"/>
      </g>
     </g>
    </g>
    <g id="xtick_10">
     <g id="line2d_30">
      <path d="M 635.332292 265.27 
L 635.332292 159.825 
" clip-path="url(#p9aa2aa40a8)" style="fill: none; stroke: #b0b0b0; stroke-width: 0.8; stroke-linecap: square"/>
     </g>
     <g id="line2d_31">
      <g>
       <use xlink:href="#m0e0f07e728" x="635.332292" y="265.27" style="stroke: #000000; stroke-width: 0.8"/>
      </g>
     </g>
    </g>
   </g>
   <g id="matplotlib.axis_4">
    <g id="ytick_6">
     <g id="line2d_32">
      <path d="M 54.2 260.477045 
L 709.2 260.477045 
" clip-path="url(#p9aa2aa40a8)" style="fill: none; stroke: #b0b0b0; stroke-width: 0.8; stroke-linecap: square"/>
     </g>
     <g id="line2d_33">
      <g>
       <use xlink:href="#mae59854aee" x="54.2" y="260.477045" style="stroke: #000000; stroke-width: 0.8"/>
      </g>
     </g>
     <g id="text_8">
      <!-- 0.00 -->
      <g transform="translate(24.934375 264.276264) scale(0.1 -0.1)">
       <use xlink:href="#DejaVuSans-30"/>
       <use xlink:href="#DejaVuSans-2e" x="63.623047"/>
       <use xlink:href="#DejaVuSans-30" x="95.410156"/>
       <use xlink:href="#DejaVuSans-30" x="159.033203"/>
      </g>
     </g>
    </g>
    <g id="ytick_7">
     <g id="line2d_34">
      <path d="M 54.2 236.512273 
L 709.2 236.512273 
" clip-path="url(#p9aa2aa40a8)" style="fill: none; stroke: #b0b0b0; stroke-width: 0.8; stroke-linecap: square"/>
     </g>
     <g id="line2d_35">
      <g>
       <use xlink:href="#mae59854aee" x="54.2" y="236.512273" style="stroke: #000000; stroke-width: 0.8"/>
      </g>
     </g>
     <g id="text_9">
      <!-- 0.25 -->
      <g transform="translate(24.934375 240.311491) scale(0.1 -0.1)">
       <defs>
        <path id="DejaVuSans-35" d="M 691 4666 
L 3169 4666 
L 3169 4134 
L 1269 4134 
L 1269 2991 
Q 1406 3038 1543 3061 
Q 1681 3084 1819 3084 
Q 2600 3084 3056 2656 
Q 3513 2228 3513 1497 
Q 3513 744 3044 326 
Q 2575 -91 1722 -91 
Q 1428 -91 1123 -41 
Q 819 9 494 109 
L 494 744 
Q 775 591 1075 516 
Q 1375 441 1709 441 
Q 2250 441 2565 725 
Q 2881 1009 2881 1497 
Q 2881 1984 2565 2268 
Q 2250 2553 1709 2553 
Q 1456 2553 1204 2497 
Q 953 2441 691 2322 
L 691 4666 
z
" transform="scale(0.015625)"/>
       </defs>
       <use xlink:href="#DejaVuSans-30"/>
       <use xlink:href="#DejaVuSans-2e" x="63.623047"/>
       <use xlink:href="#DejaVuSans-32" x="95.410156"/>
       <use xlink:href="#DejaVuSans-35" x="159.033203"/>
      </g>
     </g>
    </g>
    <g id="ytick_8">
     <g id="line2d_36">
      <path d="M 54.2 212.5475 
L 709.2 212.5475 
" clip-path="url(#p9aa2aa40a8)" style="fill: none; stroke: #b0b0b0; stroke-width: 0.8; stroke-linecap: square"/>
     </g>
     <g id="line2d_37">
      <g>
       <use xlink:href="#mae59854aee" x="54.2" y="212.5475" style="stroke: #000000; stroke-width: 0.8"/>
      </g>
     </g>
     <g id="text_10">
      <!-- 0.50 -->
      <g transform="translate(24.934375 216.346719) scale(0.1 -0.1)">
       <use xlink:href="#DejaVuSans-30"/>
       <use xlink:href="#DejaVuSans-2e" x="63.623047"/>
       <use xlink:href="#DejaVuSans-35" x="95.410156"/>
       <use xlink:href="#DejaVuSans-30" x="159.033203"/>
      </g>
     </g>
    </g>
    <g id="ytick_9">
     <g id="line2d_38">
      <path d="M 54.2 188.582727 
L 709.2 188.582727 
" clip-path="url(#p9aa2aa40a8)" style="fill: none; stroke: #b0b0b0; stroke-width: 0.8; stroke-linecap: square"/>
     </g>
     <g id="line2d_39">
      <g>
       <use xlink:href="#mae59854aee" x="54.2" y="188.582727" style="stroke: #000000; stroke-width: 0.8"/>
      </g>
     </g>
     <g id="text_11">
      <!-- 0.75 -->
      <g transform="translate(24.934375 192.381946) scale(0.1 -0.1)">
       <defs>
        <path id="DejaVuSans-37" d="M 525 4666 
L 3525 4666 
L 3525 4397 
L 1831 0 
L 1172 0 
L 2766 4134 
L 525 4134 
L 525 4666 
z
" transform="scale(0.015625)"/>
       </defs>
       <use xlink:href="#DejaVuSans-30"/>
       <use xlink:href="#DejaVuSans-2e" x="63.623047"/>
       <use xlink:href="#DejaVuSans-37" x="95.410156"/>
       <use xlink:href="#DejaVuSans-35" x="159.033203"/>
      </g>
     </g>
    </g>
    <g id="ytick_10">
     <g id="line2d_40">
      <path d="M 54.2 164.617955 
L 709.2 164.617955 
" clip-path="url(#p9aa2aa40a8)" style="fill: none; stroke: #b0b0b0; stroke-width: 0.8; stroke-linecap: square"/>
     </g>
     <g id="line2d_41">
      <g>
       <use xlink:href="#mae59854aee" x="54.2" y="164.617955" style="stroke: #000000; stroke-width: 0.8"/>
      </g>
     </g>
     <g id="text_12">
      <!-- 1.00 -->
      <g transform="translate(24.934375 168.417173) scale(0.1 -0.1)">
       <defs>
        <path id="DejaVuSans-31" d="M 794 531 
L 1825 531 
L 1825 4091 
L 703 3866 
L 703 4441 
L 1819 4666 
L 2450 4666 
L 2450 531 
L 3481 531 
L 3481 0 
L 794 0 
L 794 531 
z
" transform="scale(0.015625)"/>
       </defs>
       <use xlink:href="#DejaVuSans-31"/>
       <use xlink:href="#DejaVuSans-2e" x="63.623047"/>
       <use xlink:href="#DejaVuSans-30" x="95.410156"/>
       <use xlink:href="#DejaVuSans-30" x="159.033203"/>
      </g>
     </g>
    </g>
    <g id="text_13">
     <!-- Occupancy -->
     <g transform="translate(18.854688 240.26625) rotate(-90) scale(0.1 -0.1)">
      <defs>
       <path id="DejaVuSans-63" d="M 3122 3366 
L 3122 2828 
Q 2878 2963 2633 3030 
Q 2388 3097 2138 3097 
Q 1578 3097 1268 2742 
Q 959 2388 959 1747 
Q 959 1106 1268 751 
Q 1578 397 2138 397 
Q 2388 397 2633 464 
Q 2878 531 3122 666 
L 3122 134 
Q 2881 22 2623 -34 
Q 2366 -91 2075 -91 
Q 1284 -91 818 406 
Q 353 903 353 1747 
Q 353 2603 823 3093 
Q 1294 3584 2113 3584 
Q 2378 3584 2631 3529 
Q 2884 3475 3122 3366 
z
" transform="scale(0.015625)"/>
       <path id="DejaVuSans-75" d="M 544 1381 
L 544 3500 
L 1119 3500 
L 1119 1403 
Q 1119 906 1312 657 
Q 1506 409 1894 409 
Q 2359 409 2629 706 
Q 2900 1003 2900 1516 
L 2900 3500 
L 3475 3500 
L 3475 0 
L 2900 0 
L 2900 538 
Q 2691 219 2414 64 
Q 2138 -91 1772 -91 
Q 1169 -91 856 284 
Q 544 659 544 1381 
z
M 1991 3584 
L 1991 3584 
z
" transform="scale(0.015625)"/>
       <path id="DejaVuSans-70" d="M 1159 525 
L 1159 -1331 
L 581 -1331 
L 581 3500 
L 1159 3500 
L 1159 2969 
Q 1341 3281 1617 3432 
Q 1894 3584 2278 3584 
Q 2916 3584 3314 3078 
Q 3713 2572 3713 1747 
Q 3713 922 3314 415 
Q 2916 -91 2278 -91 
Q 1894 -91 1617 61 
Q 1341 213 1159 525 
z
M 3116 1747 
Q 3116 2381 2855 2742 
Q 2594 3103 2138 3103 
Q 1681 3103 1420 2742 
Q 1159 2381 1159 1747 
Q 1159 1113 1420 752 
Q 1681 391 2138 391 
Q 2594 391 2855 752 
Q 3116 1113 3116 1747 
z
" transform="scale(0.015625)"/>
       <path id="DejaVuSans-6e" d="M 3513 2113 
L 3513 0 
L 2938 0 
L 2938 2094 
Q 2938 2591 2744 2837 
Q 2550 3084 2163 3084 
Q 1697 3084 1428 2787 
Q 1159 2491 1159 1978 
L 1159 0 
L 581 0 
L 581 3500 
L 1159 3500 
L 1159 2956 
Q 1366 3272 1645 3428 
Q 1925 3584 2291 3584 
Q 2894 3584 3203 3211 
Q 3513 2838 3513 2113 
z
" transform="scale(0.015625)"/>
       <path id="DejaVuSans-79" d="M 2059 -325 
Q 1816 -950 1584 -1140 
Q 1353 -1331 966 -1331 
L 506 -1331 
L 506 -850 
L 844 -850 
Q 1081 -850 1212 -737 
Q 1344 -625 1503 -206 
L 1606 56 
L 191 3500 
L 800 3500 
L 1894 763 
L 2988 3500 
L 3597 3500 
L 2059 -325 
z
" transform="scale(0.015625)"/>
      </defs>
      <use xlink:href="#DejaVuSans-4f"/>
      <use xlink:href="#DejaVuSans-63" x="78.710938"/>
      <use xlink:href="#DejaVuSans-63" x="133.691406"/>
      <use xlink:href="#DejaVuSans-75" x="188.671875"/>
      <use xlink:href="#DejaVuSans-70" x="252.050781"/>
      <use xlink:href="#DejaVuSans-61" x="315.527344"/>
      <use xlink:href="#DejaVuSans-6e" x="376.806641"/>
      <use xlink:href="#DejaVuSans-63" x="440.185547"/>
      <use xlink:href="#DejaVuSans-79" x="495.166016"/>
     </g>
    </g>
   </g>
   <g id="line2d_42">
    <path d="M 83.972727 164.617955 
L 92.229337 164.617955 
L 92.353393 260.477045 
L 93.332056 260.477045 
L 93.456112 164.617955 
L 94.986135 164.617955 
L 95.11019 260.477045 
L 97.880772 260.477045 
L 98.004828 164.617955 
L 113.181 164.617955 
L 113.305056 260.477045 
L 113.8702 260.477045 
L 113.994256 164.617955 
L 116.902677 164.617955 
L 117.026733 260.477045 
L 117.316197 260.477045 
L 117.440253 164.617955 
L 136.200262 164.617955 
L 136.324318 260.477045 
L 136.751622 260.477045 
L 136.875677 164.617955 
L 139.23274 164.617955 
L 139.356796 260.477045 
L 140.611139 260.477045 
L 140.735194 164.617955 
L 211.323003 164.617955 
L 211.447059 260.477045 
L 212.563562 260.477045 
L 212.687618 164.617955 
L 214.63116 164.617955 
L 214.755216 260.477045 
L 216.147399 260.477045 
L 216.271455 164.617955 
L 216.560918 164.617955 
L 216.684974 260.477045 
L 217.250118 260.477045 
L 217.374174 164.617955 
L 231.171947 164.617955 
L 231.296003 260.477045 
L 232.274666 260.477045 
L 232.398722 164.617955 
L 233.928745 164.617955 
L 234.052801 260.477045 
L 236.823382 260.477045 
L 236.947438 164.617955 
L 252.12361 164.617955 
L 252.247666 260.477045 
L 252.81281 260.477045 
L 252.936866 164.617955 
L 255.845287 164.617955 
L 255.969343 260.477045 
L 256.258807 260.477045 
L 256.382863 164.617955 
L 275.142872 164.617955 
L 275.266928 260.477045 
L 275.694232 260.477045 
L 275.818288 164.617955 
L 278.17535 164.617955 
L 278.299406 260.477045 
L 279.553749 260.477045 
L 279.677805 164.617955 
L 350.265613 164.617955 
L 350.389669 260.477045 
L 351.506172 260.477045 
L 351.630228 164.617955 
L 353.57377 164.617955 
L 353.697826 260.477045 
L 355.090009 260.477045 
L 355.214065 164.617955 
L 355.503529 164.617955 
L 355.627585 260.477045 
L 356.192728 260.477045 
L 356.316784 164.617955 
L 370.114557 164.617955 
L 370.238613 260.477045 
L 371.217276 260.477045 
L 371.341332 164.617955 
L 372.871355 164.617955 
L 372.995411 260.477045 
L 375.765993 260.477045 
L 375.890049 164.617955 
L 391.066221 164.617955 
L 391.190277 260.477045 
L 391.75542 260.477045 
L 391.879476 164.617955 
L 394.787898 164.617955 
L 394.911954 260.477045 
L 395.201417 260.477045 
L 395.325473 164.617955 
L 414.085482 164.617955 
L 414.209538 260.477045 
L 414.636842 260.477045 
L 414.760898 164.617955 
L 417.11796 164.617955 
L 417.242016 260.477045 
L 418.496359 260.477045 
L 418.620415 164.617955 
L 489.208223 164.617955 
L 489.332279 260.477045 
L 490.448782 260.477045 
L 490.572838 164.617955 
L 492.51638 164.617955 
L 492.640436 260.477045 
L 494.032619 260.477045 
L 494.156675 164.617955 
L 494.446139 164.617955 
L 494.570195 260.477045 
L 495.135338 260.477045 
L 495.259394 164.617955 
L 509.057167 164.617955 
L 509.181223 260.477045 
L 510.159886 260.477045 
L 510.283942 164.617955 
L 511.813965 164.617955 
L 511.938021 260.477045 
L 514.708603 260.477045 
L 514.832659 164.617955 
L 530.008831 164.617955 
L 530.132887 260.477045 
L 530.69803 260.477045 
L 530.822086 164.617955 
L 533.730508 164.617955 
L 533.854564 260.477045 
L 534.144028 260.477045 
L 534.268083 164.617955 
L 553.028093 164.617955 
L 553.152149 260.477045 
L 553.579452 260.477045 
L 553.703508 164.617955 
L 556.06057 164.617955 
L 556.184626 260.477045 
L 557.438969 260.477045 
L 557.563025 164.617955 
L 628.150833 164.617955 
L 628.274889 260.477045 
L 629.391392 260.477045 
L 629.515448 164.617955 
L 631.458991 164.617955 
L 631.583047 260.477045 
L 632.975229 260.477045 
L 633.099285 164.617955 
L 633.388749 164.617955 
L 633.512805 260.477045 
L 634.077949 260.477045 
L 634.202004 164.617955 
L 647.999778 164.617955 
L 648.123833 260.477045 
L 649.102497 260.477045 
L 649.226553 164.617955 
L 650.756575 164.617955 
L 650.880631 260.477045 
L 653.651213 260.477045 
L 653.775269 164.617955 
L 668.951441 164.617955 
L 669.075497 260.477045 
L 669.64064 260.477045 
L 669.764696 164.617955 
L 672.673118 164.617955 
L 672.797174 260.477045 
L 673.086638 260.477045 
L 673.210694 164.617955 
L 679.427273 164.617955 
L 679.427273 164.617955 
" clip-path="url(#p9aa2aa40a8)" style="fill: none; stroke: #008000; stroke-width: 1.5; stroke-linecap: square"/>
   </g>
   <g id="patch_8">
    <path d="M 54.2 265.27 
L 54.2 159.825 
" style="fill: none; stroke: #000000; stroke-width: 0.8; stroke-linejoin: miter; stroke-linecap: square"/>
   </g>
   <g id="patch_9">
    <path d="M 709.2 265.27 
L 709.2 159.825 
" style="fill: none; stroke: #000000; stroke-width: 0.8; stroke-linejoin: miter; stroke-linecap: square"/>
   </g>
   <g id="patch_10">
    <path d="M 54.2 265.27 
L 709.2 265.27 
" style="fill: none; stroke: #000000; stroke-width: 0.8; stroke-linejoin: miter; stroke-linecap: square"/>
   </g>
   <g id="patch_11">
    <path d="M 54.2 159.825 
L 709.2 159.825 
" style="fill: none; stroke: #000000; stroke-width: 0.8; stroke-linejoin: miter; stroke-linecap: square"/>
   </g>
   <g id="text_14">
    <!-- Occupancy Over Time -->
    <g transform="translate(315.510625 153.825) scale(0.12 -0.12)">
     <use xlink:href="#DejaVuSans-4f"/>
     <use xlink:href="#DejaVuSans-63" x="78.710938"/>
     <use xlink:href="#DejaVuSans-63" x="133.691406"/>
     <use xlink:href="#DejaVuSans-75" x="188.671875"/>
     <use xlink:href="#DejaVuSans-70" x="252.050781"/>
     <use xlink:href="#DejaVuSans-61" x="315.527344"/>
     <use xlink:href="#DejaVuSans-6e" x="376.806641"/>
     <use xlink:href="#DejaVuSans-63" x="440.185547"/>
     <use xlink:href="#DejaVuSans-79" x="495.166016"/>
     <use xlink:href="#DejaVuSans-20" x="554.345703"/>
     <use xlink:href="#DejaVuSans-4f" x="586.132812"/>
     <use xlink:href="#DejaVuSans-76" x="664.84375"/>
     <use xlink:href="#DejaVuSans-65" x="724.023438"/>
     <use xlink:href="#DejaVuSans-72" x="785.546875"/>
     <use xlink:href="#DejaVuSans-20" x="826.660156"/>
     <use xlink:href="#DejaVuSans-54" x="858.447266"/>
     <use xlink:href="#DejaVuSans-69" x="916.40625"/>
     <use xlink:href="#DejaVuSans-6d" x="944.189453"/>
     <use xlink:href="#DejaVuSans-65" x="1041.601562"/>
    </g>
   </g>
  </g>
  <g id="axes_3">
   <g id="patch_12">
    <path d="M 54.2 399.655 
L 709.2 399.655 
L 709.2 294.21 
L 54.2 294.21 
z
" style="fill: #ffffff"/>
   </g>
   <g id="matplotlib.axis_5">
    <g id="xtick_11">
     <g id="line2d_43">
      <path d="M 83.972727 399.655 
L 83.972727 294.21 
" clip-path="url(#pd6467c7265)" style="fill: none; stroke: #b0b0b0; stroke-width: 0.8; stroke-linecap: square"/>
     </g>
     <g id="line2d_44">
      <g>
       <use xlink:href="#m0e0f07e728" x="83.972727" y="399.655" style="stroke: #000000; stroke-width: 0.8"/>
      </g>
     </g>
    </g>
    <g id="xtick_12">
     <g id="line2d_45">
      <path d="M 221.812618 399.655 
L 221.812618 294.21 
" clip-path="url(#pd6467c7265)" style="fill: none; stroke: #b0b0b0; stroke-width: 0.8; stroke-linecap: square"/>
     </g>
     <g id="line2d_46">
      <g>
       <use xlink:href="#m0e0f07e728" x="221.812618" y="399.655" style="stroke: #000000; stroke-width: 0.8"/>
      </g>
     </g>
    </g>
    <g id="xtick_13">
     <g id="line2d_47">
      <path d="M 359.652509 399.655 
L 359.652509 294.21 
" clip-path="url(#pd6467c7265)" style="fill: none; stroke: #b0b0b0; stroke-width: 0.8; stroke-linecap: square"/>
     </g>
     <g id="line2d_48">
      <g>
       <use xlink:href="#m0e0f07e728" x="359.652509" y="399.655" style="stroke: #000000; stroke-width: 0.8"/>
      </g>
     </g>
    </g>
    <g id="xtick_14">
     <g id="line2d_49">
      <path d="M 497.4924 399.655 
L 497.4924 294.21 
" clip-path="url(#pd6467c7265)" style="fill: none; stroke: #b0b0b0; stroke-width: 0.8; stroke-linecap: square"/>
     </g>
     <g id="line2d_50">
      <g>
       <use xlink:href="#m0e0f07e728" x="497.4924" y="399.655" style="stroke: #000000; stroke-width: 0.8"/>
      </g>
     </g>
    </g>
    <g id="xtick_15">
     <g id="line2d_51">
      <path d="M 635.332292 399.655 
L 635.332292 294.21 
" clip-path="url(#pd6467c7265)" style="fill: none; stroke: #b0b0b0; stroke-width: 0.8; stroke-linecap: square"/>
     </g>
     <g id="line2d_52">
      <g>
       <use xlink:href="#m0e0f07e728" x="635.332292" y="399.655" style="stroke: #000000; stroke-width: 0.8"/>
      </g>
     </g>
    </g>
   </g>
   <g id="matplotlib.axis_6">
    <g id="ytick_11">
     <g id="line2d_53">
      <path d="M 54.2 394.862045 
L 709.2 394.862045 
" clip-path="url(#pd6467c7265)" style="fill: none; stroke: #b0b0b0; stroke-width: 0.8; stroke-linecap: square"/>
     </g>
     <g id="line2d_54">
      <g>
       <use xlink:href="#mae59854aee" x="54.2" y="394.862045" style="stroke: #000000; stroke-width: 0.8"/>
      </g>
     </g>
     <g id="text_15">
      <!-- 0 -->
      <g transform="translate(40.8375 398.661264) scale(0.1 -0.1)">
       <use xlink:href="#DejaVuSans-30"/>
      </g>
     </g>
    </g>
    <g id="ytick_12">
     <g id="line2d_55">
      <path d="M 54.2 368.954183 
L 709.2 368.954183 
" clip-path="url(#pd6467c7265)" style="fill: none; stroke: #b0b0b0; stroke-width: 0.8; stroke-linecap: square"/>
     </g>
     <g id="line2d_56">
      <g>
       <use xlink:href="#mae59854aee" x="54.2" y="368.954183" style="stroke: #000000; stroke-width: 0.8"/>
      </g>
     </g>
     <g id="text_16">
      <!-- 1 -->
      <g transform="translate(40.8375 372.753402) scale(0.1 -0.1)">
       <use xlink:href="#DejaVuSans-31"/>
      </g>
     </g>
    </g>
    <g id="ytick_13">
     <g id="line2d_57">
      <path d="M 54.2 343.046321 
L 709.2 343.046321 
" clip-path="url(#pd6467c7265)" style="fill: none; stroke: #b0b0b0; stroke-width: 0.8; stroke-linecap: square"/>
     </g>
     <g id="line2d_58">
      <g>
       <use xlink:href="#mae59854aee" x="54.2" y="343.046321" style="stroke: #000000; stroke-width: 0.8"/>
      </g>
     </g>
     <g id="text_17">
      <!-- 2 -->
      <g transform="translate(40.8375 346.845539) scale(0.1 -0.1)">
       <use xlink:href="#DejaVuSans-32"/>
      </g>
     </g>
    </g>
    <g id="ytick_14">
     <g id="line2d_59">
      <path d="M 54.2 317.138458 
L 709.2 317.138458 
" clip-path="url(#pd6467c7265)" style="fill: none; stroke: #b0b0b0; stroke-width: 0.8; stroke-linecap: square"/>
     </g>
     <g id="line2d_60">
      <g>
       <use xlink:href="#mae59854aee" x="54.2" y="317.138458" style="stroke: #000000; stroke-width: 0.8"/>
      </g>
     </g>
     <g id="text_18">
      <!-- 3 -->
      <g transform="translate(40.8375 320.937677) scale(0.1 -0.1)">
       <defs>
        <path id="DejaVuSans-33" d="M 2597 2516 
Q 3050 2419 3304 2112 
Q 3559 1806 3559 1356 
Q 3559 666 3084 287 
Q 2609 -91 1734 -91 
Q 1441 -91 1130 -33 
Q 819 25 488 141 
L 488 750 
Q 750 597 1062 519 
Q 1375 441 1716 441 
Q 2309 441 2620 675 
Q 2931 909 2931 1356 
Q 2931 1769 2642 2001 
Q 2353 2234 1838 2234 
L 1294 2234 
L 1294 2753 
L 1863 2753 
Q 2328 2753 2575 2939 
Q 2822 3125 2822 3475 
Q 2822 3834 2567 4026 
Q 2313 4219 1838 4219 
Q 1578 4219 1281 4162 
Q 984 4106 628 3988 
L 628 4550 
Q 988 4650 1302 4700 
Q 1616 4750 1894 4750 
Q 2613 4750 3031 4423 
Q 3450 4097 3450 3541 
Q 3450 3153 3228 2886 
Q 3006 2619 2597 2516 
z
" transform="scale(0.015625)"/>
       </defs>
       <use xlink:href="#DejaVuSans-33"/>
      </g>
     </g>
    </g>
    <g id="text_19">
     <!-- Load (kW) -->
     <g transform="translate(34.757812 372.258281) rotate(-90) scale(0.1 -0.1)">
      <defs>
       <path id="DejaVuSans-4c" d="M 628 4666 
L 1259 4666 
L 1259 531 
L 3531 531 
L 3531 0 
L 628 0 
L 628 4666 
z
" transform="scale(0.015625)"/>
       <path id="DejaVuSans-64" d="M 2906 2969 
L 2906 4863 
L 3481 4863 
L 3481 0 
L 2906 0 
L 2906 525 
Q 2725 213 2448 61 
Q 2172 -91 1784 -91 
Q 1150 -91 751 415 
Q 353 922 353 1747 
Q 353 2572 751 3078 
Q 1150 3584 1784 3584 
Q 2172 3584 2448 3432 
Q 2725 3281 2906 2969 
z
M 947 1747 
Q 947 1113 1208 752 
Q 1469 391 1925 391 
Q 2381 391 2643 752 
Q 2906 1113 2906 1747 
Q 2906 2381 2643 2742 
Q 2381 3103 1925 3103 
Q 1469 3103 1208 2742 
Q 947 2381 947 1747 
z
" transform="scale(0.015625)"/>
       <path id="DejaVuSans-6b" d="M 581 4863 
L 1159 4863 
L 1159 1991 
L 2875 3500 
L 3609 3500 
L 1753 1863 
L 3688 0 
L 2938 0 
L 1159 1709 
L 1159 0 
L 581 0 
L 581 4863 
z
" transform="scale(0.015625)"/>
       <path id="DejaVuSans-57" d="M 213 4666 
L 850 4666 
L 1831 722 
L 2809 4666 
L 3519 4666 
L 4500 722 
L 5478 4666 
L 6119 4666 
L 4947 0 
L 4153 0 
L 3169 4050 
L 2175 0 
L 1381 0 
L 213 4666 
z
" transform="scale(0.015625)"/>
      </defs>
      <use xlink:href="#DejaVuSans-4c"/>
      <use xlink:href="#DejaVuSans-6f" x="53.962891"/>
      <use xlink:href="#DejaVuSans-61" x="115.144531"/>
      <use xlink:href="#DejaVuSans-64" x="176.423828"/>
      <use xlink:href="#DejaVuSans-20" x="239.900391"/>
      <use xlink:href="#DejaVuSans-28" x="271.6875"/>
      <use xlink:href="#DejaVuSans-6b" x="310.701172"/>
      <use xlink:href="#DejaVuSans-57" x="368.611328"/>
      <use xlink:href="#DejaVuSans-29" x="467.488281"/>
     </g>
    </g>
   </g>
   <g id="line2d_61">
    <path d="M 83.972727 394.862045 
L 93.332056 394.862045 
L 93.456112 299.002955 
L 93.676656 299.002955 
L 93.800712 394.862045 
L 97.880772 394.862045 
L 98.004828 299.002955 
L 98.32186 299.002955 
L 98.445916 394.862045 
L 113.8702 394.862045 
L 113.994256 299.002955 
L 115.289951 299.002955 
L 115.414006 394.862045 
L 117.316197 394.862045 
L 117.440253 299.002955 
L 118.060532 299.002955 
L 118.184588 394.862045 
L 136.751622 394.862045 
L 136.875677 299.002955 
L 137.413253 299.002955 
L 137.537309 394.862045 
L 140.611139 394.862045 
L 140.735194 299.002955 
L 142.747657 299.002955 
L 142.871713 394.862045 
L 212.563562 394.862045 
L 212.687618 299.002955 
L 213.142489 299.002955 
L 213.266545 394.862045 
L 216.147399 394.862045 
L 216.271455 299.002955 
L 216.560918 299.002955 
L 216.684974 394.862045 
L 217.250118 394.862045 
L 217.374174 299.002955 
L 217.718774 299.002955 
L 217.842829 394.862045 
L 232.274666 394.862045 
L 232.398722 299.002955 
L 232.77089 299.002955 
L 232.894946 394.862045 
L 236.823382 394.862045 
L 236.947438 299.002955 
L 237.429878 299.002955 
L 237.553934 394.862045 
L 252.81281 394.862045 
L 252.936866 299.002955 
L 253.529577 299.002955 
L 253.653633 394.862045 
L 256.258807 394.862045 
L 256.382863 299.002955 
L 257.278822 299.002955 
L 257.402878 394.862045 
L 275.694232 394.862045 
L 275.818288 299.002955 
L 276.259375 299.002955 
L 276.383431 394.862045 
L 279.553749 394.862045 
L 279.677805 299.002955 
L 280.311868 299.002955 
L 280.435924 394.862045 
L 351.506172 394.862045 
L 351.630228 299.002955 
L 351.94726 299.002955 
L 352.071315 394.862045 
L 355.090009 394.862045 
L 355.214065 299.002955 
L 355.503529 299.002955 
L 355.627585 394.862045 
L 356.192728 394.862045 
L 356.316784 299.002955 
L 356.523544 299.002955 
L 356.6476 394.862045 
L 371.217276 394.862045 
L 371.341332 299.002955 
L 371.561876 299.002955 
L 371.685932 394.862045 
L 375.765993 394.862045 
L 375.890049 299.002955 
L 377.158176 299.002955 
L 377.282231 394.862045 
L 391.75542 394.862045 
L 391.879476 299.002955 
L 392.361916 299.002955 
L 392.485971 394.862045 
L 395.201417 394.862045 
L 395.325473 299.002955 
L 395.559801 299.002955 
L 395.683857 394.862045 
L 414.636842 394.862045 
L 414.760898 299.002955 
L 415.201986 299.002955 
L 415.326041 394.862045 
L 418.496359 394.862045 
L 418.620415 299.002955 
L 419.77827 299.002955 
L 419.902326 394.862045 
L 490.448782 394.862045 
L 490.572838 299.002955 
L 490.931222 299.002955 
L 491.055278 394.862045 
L 494.032619 394.862045 
L 494.156675 299.002955 
L 494.446139 299.002955 
L 494.570195 394.862045 
L 495.135338 394.862045 
L 495.259394 299.002955 
L 495.893458 299.002955 
L 496.017514 394.862045 
L 510.159886 394.862045 
L 510.283942 299.002955 
L 510.683678 299.002955 
L 510.807734 394.862045 
L 514.708603 394.862045 
L 514.832659 299.002955 
L 515.315098 299.002955 
L 515.439154 394.862045 
L 530.69803 394.862045 
L 530.822086 299.002955 
L 531.649126 299.002955 
L 531.773181 394.862045 
L 534.144028 394.862045 
L 534.268083 299.002955 
L 534.971067 299.002955 
L 535.095123 394.862045 
L 553.579452 394.862045 
L 553.703508 299.002955 
L 554.103244 299.002955 
L 554.2273 394.862045 
L 557.438969 394.862045 
L 557.563025 299.002955 
L 558.155737 299.002955 
L 558.279792 394.862045 
L 629.391392 394.862045 
L 629.515448 299.002955 
L 630.066808 299.002955 
L 630.190864 394.862045 
L 632.975229 394.862045 
L 633.099285 299.002955 
L 633.388749 299.002955 
L 633.512805 394.862045 
L 634.077949 394.862045 
L 634.202004 299.002955 
L 634.546604 299.002955 
L 634.67066 394.862045 
L 649.102497 394.862045 
L 649.226553 299.002955 
L 649.626288 299.002955 
L 649.750344 394.862045 
L 653.651213 394.862045 
L 653.775269 299.002955 
L 654.340413 299.002955 
L 654.464468 394.862045 
L 669.64064 394.862045 
L 669.764696 299.002955 
L 670.522816 299.002955 
L 670.646872 394.862045 
L 673.086638 394.862045 
L 673.210694 299.002955 
L 674.134221 299.002955 
L 674.258277 394.862045 
L 679.427273 394.862045 
L 679.427273 394.862045 
" clip-path="url(#pd6467c7265)" style="fill: none; stroke: #ffa500; stroke-width: 1.5; stroke-linecap: square"/>
   </g>
   <g id="patch_13">
    <path d="M 54.2 399.655 
L 54.2 294.21 
" style="fill: none; stroke: #000000; stroke-width: 0.8; stroke-linejoin: miter; stroke-linecap: square"/>
   </g>
   <g id="patch_14">
    <path d="M 709.2 399.655 
L 709.2 294.21 
" style="fill: none; stroke: #000000; stroke-width: 0.8; stroke-linejoin: miter; stroke-linecap: square"/>
   </g>
   <g id="patch_15">
    <path d="M 54.2 399.655 
L 709.2 399.655 
" style="fill: none; stroke: #000000; stroke-width: 0.8; stroke-linejoin: miter; stroke-linecap: square"/>
   </g>
   <g id="patch_16">
    <path d="M 54.2 294.21 
L 709.2 294.21 
" style="fill: none; stroke: #000000; stroke-width: 0.8; stroke-linejoin: miter; stroke-linecap: square"/>
   </g>
   <g id="text_20">
    <!-- Load Profile Over Time -->
    <g transform="translate(313.8175 288.21) scale(0.12 -0.12)">
     <defs>
      <path id="DejaVuSans-50" d="M 1259 4147 
L 1259 2394 
L 2053 2394 
Q 2494 2394 2734 2622 
Q 2975 2850 2975 3272 
Q 2975 3691 2734 3919 
Q 2494 4147 2053 4147 
L 1259 4147 
z
M 628 4666 
L 2053 4666 
Q 2838 4666 3239 4311 
Q 3641 3956 3641 3272 
Q 3641 2581 3239 2228 
Q 2838 1875 2053 1875 
L 1259 1875 
L 1259 0 
L 628 0 
L 628 4666 
z
" transform="scale(0.015625)"/>
      <path id="DejaVuSans-6c" d="M 603 4863 
L 1178 4863 
L 1178 0 
L 603 0 
L 603 4863 
z
" transform="scale(0.015625)"/>
     </defs>
     <use xlink:href="#DejaVuSans-4c"/>
     <use xlink:href="#DejaVuSans-6f" x="53.962891"/>
     <use xlink:href="#DejaVuSans-61" x="115.144531"/>
     <use xlink:href="#DejaVuSans-64" x="176.423828"/>
     <use xlink:href="#DejaVuSans-20" x="239.900391"/>
     <use xlink:href="#DejaVuSans-50" x="271.6875"/>
     <use xlink:href="#DejaVuSans-72" x="330.240234"/>
     <use xlink:href="#DejaVuSans-6f" x="369.103516"/>
     <use xlink:href="#DejaVuSans-66" x="430.285156"/>
     <use xlink:href="#DejaVuSans-69" x="465.490234"/>
     <use xlink:href="#DejaVuSans-6c" x="493.273438"/>
     <use xlink:href="#DejaVuSans-65" x="521.056641"/>
     <use xlink:href="#DejaVuSans-20" x="582.580078"/>
     <use xlink:href="#DejaVuSans-4f" x="614.367188"/>
     <use xlink:href="#DejaVuSans-76" x="693.078125"/>
     <use xlink:href="#DejaVuSans-65" x="752.257812"/>
     <use xlink:href="#DejaVuSans-72" x="813.78125"/>
     <use xlink:href="#DejaVuSans-20" x="854.894531"/>
     <use xlink:href="#DejaVuSans-54" x="886.681641"/>
     <use xlink:href="#DejaVuSans-69" x="944.640625"/>
     <use xlink:href="#DejaVuSans-6d" x="972.423828"/>
     <use xlink:href="#DejaVuSans-65" x="1069.835938"/>
    </g>
   </g>
  </g>
  <g id="axes_4">
   <g id="patch_17">
    <path d="M 54.2 534.04 
L 709.2 534.04 
L 709.2 428.595 
L 54.2 428.595 
z
" style="fill: #ffffff"/>
   </g>
   <g id="matplotlib.axis_7">
    <g id="xtick_16">
     <g id="line2d_62">
      <path d="M 83.972727 534.04 
L 83.972727 428.595 
" clip-path="url(#pe3f00b3285)" style="fill: none; stroke: #b0b0b0; stroke-width: 0.8; stroke-linecap: square"/>
     </g>
     <g id="line2d_63">
      <g>
       <use xlink:href="#m0e0f07e728" x="83.972727" y="534.04" style="stroke: #000000; stroke-width: 0.8"/>
      </g>
     </g>
     <g id="text_21">
      <!-- 0 -->
      <g transform="translate(80.791477 548.638438) scale(0.1 -0.1)">
       <use xlink:href="#DejaVuSans-30"/>
      </g>
     </g>
    </g>
    <g id="xtick_17">
     <g id="line2d_64">
      <path d="M 221.812618 534.04 
L 221.812618 428.595 
" clip-path="url(#pe3f00b3285)" style="fill: none; stroke: #b0b0b0; stroke-width: 0.8; stroke-linecap: square"/>
     </g>
     <g id="line2d_65">
      <g>
       <use xlink:href="#m0e0f07e728" x="221.812618" y="534.04" style="stroke: #000000; stroke-width: 0.8"/>
      </g>
     </g>
     <g id="text_22">
      <!-- 10000 -->
      <g transform="translate(205.906368 548.638438) scale(0.1 -0.1)">
       <use xlink:href="#DejaVuSans-31"/>
       <use xlink:href="#DejaVuSans-30" x="63.623047"/>
       <use xlink:href="#DejaVuSans-30" x="127.246094"/>
       <use xlink:href="#DejaVuSans-30" x="190.869141"/>
       <use xlink:href="#DejaVuSans-30" x="254.492188"/>
      </g>
     </g>
    </g>
    <g id="xtick_18">
     <g id="line2d_66">
      <path d="M 359.652509 534.04 
L 359.652509 428.595 
" clip-path="url(#pe3f00b3285)" style="fill: none; stroke: #b0b0b0; stroke-width: 0.8; stroke-linecap: square"/>
     </g>
     <g id="line2d_67">
      <g>
       <use xlink:href="#m0e0f07e728" x="359.652509" y="534.04" style="stroke: #000000; stroke-width: 0.8"/>
      </g>
     </g>
     <g id="text_23">
      <!-- 20000 -->
      <g transform="translate(343.746259 548.638438) scale(0.1 -0.1)">
       <use xlink:href="#DejaVuSans-32"/>
       <use xlink:href="#DejaVuSans-30" x="63.623047"/>
       <use xlink:href="#DejaVuSans-30" x="127.246094"/>
       <use xlink:href="#DejaVuSans-30" x="190.869141"/>
       <use xlink:href="#DejaVuSans-30" x="254.492188"/>
      </g>
     </g>
    </g>
    <g id="xtick_19">
     <g id="line2d_68">
      <path d="M 497.4924 534.04 
L 497.4924 428.595 
" clip-path="url(#pe3f00b3285)" style="fill: none; stroke: #b0b0b0; stroke-width: 0.8; stroke-linecap: square"/>
     </g>
     <g id="line2d_69">
      <g>
       <use xlink:href="#m0e0f07e728" x="497.4924" y="534.04" style="stroke: #000000; stroke-width: 0.8"/>
      </g>
     </g>
     <g id="text_24">
      <!-- 30000 -->
      <g transform="translate(481.58615 548.638438) scale(0.1 -0.1)">
       <use xlink:href="#DejaVuSans-33"/>
       <use xlink:href="#DejaVuSans-30" x="63.623047"/>
       <use xlink:href="#DejaVuSans-30" x="127.246094"/>
       <use xlink:href="#DejaVuSans-30" x="190.869141"/>
       <use xlink:href="#DejaVuSans-30" x="254.492188"/>
      </g>
     </g>
    </g>
    <g id="xtick_20">
     <g id="line2d_70">
      <path d="M 635.332292 534.04 
L 635.332292 428.595 
" clip-path="url(#pe3f00b3285)" style="fill: none; stroke: #b0b0b0; stroke-width: 0.8; stroke-linecap: square"/>
     </g>
     <g id="line2d_71">
      <g>
       <use xlink:href="#m0e0f07e728" x="635.332292" y="534.04" style="stroke: #000000; stroke-width: 0.8"/>
      </g>
     </g>
     <g id="text_25">
      <!-- 40000 -->
      <g transform="translate(619.426042 548.638438) scale(0.1 -0.1)">
       <use xlink:href="#DejaVuSans-34"/>
       <use xlink:href="#DejaVuSans-30" x="63.623047"/>
       <use xlink:href="#DejaVuSans-30" x="127.246094"/>
       <use xlink:href="#DejaVuSans-30" x="190.869141"/>
       <use xlink:href="#DejaVuSans-30" x="254.492188"/>
      </g>
     </g>
    </g>
    <g id="text_26">
     <!-- Time [min] -->
     <g transform="translate(354.547656 562.316562) scale(0.1 -0.1)">
      <defs>
       <path id="DejaVuSans-5b" d="M 550 4863 
L 1875 4863 
L 1875 4416 
L 1125 4416 
L 1125 -397 
L 1875 -397 
L 1875 -844 
L 550 -844 
L 550 4863 
z
" transform="scale(0.015625)"/>
       <path id="DejaVuSans-5d" d="M 1947 4863 
L 1947 -844 
L 622 -844 
L 622 -397 
L 1369 -397 
L 1369 4416 
L 622 4416 
L 622 4863 
L 1947 4863 
z
" transform="scale(0.015625)"/>
      </defs>
      <use xlink:href="#DejaVuSans-54"/>
      <use xlink:href="#DejaVuSans-69" x="57.958984"/>
      <use xlink:href="#DejaVuSans-6d" x="85.742188"/>
      <use xlink:href="#DejaVuSans-65" x="183.154297"/>
      <use xlink:href="#DejaVuSans-20" x="244.677734"/>
      <use xlink:href="#DejaVuSans-5b" x="276.464844"/>
      <use xlink:href="#DejaVuSans-6d" x="315.478516"/>
      <use xlink:href="#DejaVuSans-69" x="412.890625"/>
      <use xlink:href="#DejaVuSans-6e" x="440.673828"/>
      <use xlink:href="#DejaVuSans-5d" x="504.052734"/>
     </g>
    </g>
   </g>
   <g id="matplotlib.axis_8">
    <g id="ytick_15">
     <g id="line2d_72">
      <path d="M 54.2 529.247045 
L 709.2 529.247045 
" clip-path="url(#pe3f00b3285)" style="fill: none; stroke: #b0b0b0; stroke-width: 0.8; stroke-linecap: square"/>
     </g>
     <g id="line2d_73">
      <g>
       <use xlink:href="#mae59854aee" x="54.2" y="529.247045" style="stroke: #000000; stroke-width: 0.8"/>
      </g>
     </g>
     <g id="text_27">
      <!-- 0.00 -->
      <g transform="translate(24.934375 533.046264) scale(0.1 -0.1)">
       <use xlink:href="#DejaVuSans-30"/>
       <use xlink:href="#DejaVuSans-2e" x="63.623047"/>
       <use xlink:href="#DejaVuSans-30" x="95.410156"/>
       <use xlink:href="#DejaVuSans-30" x="159.033203"/>
      </g>
     </g>
    </g>
    <g id="ytick_16">
     <g id="line2d_74">
      <path d="M 54.2 493.420921 
L 709.2 493.420921 
" clip-path="url(#pe3f00b3285)" style="fill: none; stroke: #b0b0b0; stroke-width: 0.8; stroke-linecap: square"/>
     </g>
     <g id="line2d_75">
      <g>
       <use xlink:href="#mae59854aee" x="54.2" y="493.420921" style="stroke: #000000; stroke-width: 0.8"/>
      </g>
     </g>
     <g id="text_28">
      <!-- 0.05 -->
      <g transform="translate(24.934375 497.220139) scale(0.1 -0.1)">
       <use xlink:href="#DejaVuSans-30"/>
       <use xlink:href="#DejaVuSans-2e" x="63.623047"/>
       <use xlink:href="#DejaVuSans-30" x="95.410156"/>
       <use xlink:href="#DejaVuSans-35" x="159.033203"/>
      </g>
     </g>
    </g>
    <g id="ytick_17">
     <g id="line2d_76">
      <path d="M 54.2 457.594796 
L 709.2 457.594796 
" clip-path="url(#pe3f00b3285)" style="fill: none; stroke: #b0b0b0; stroke-width: 0.8; stroke-linecap: square"/>
     </g>
     <g id="line2d_77">
      <g>
       <use xlink:href="#mae59854aee" x="54.2" y="457.594796" style="stroke: #000000; stroke-width: 0.8"/>
      </g>
     </g>
     <g id="text_29">
      <!-- 0.10 -->
      <g transform="translate(24.934375 461.394014) scale(0.1 -0.1)">
       <use xlink:href="#DejaVuSans-30"/>
       <use xlink:href="#DejaVuSans-2e" x="63.623047"/>
       <use xlink:href="#DejaVuSans-31" x="95.410156"/>
       <use xlink:href="#DejaVuSans-30" x="159.033203"/>
      </g>
     </g>
    </g>
    <g id="text_30">
     <!-- Charging -->
     <g transform="translate(18.854688 503.915937) rotate(-90) scale(0.1 -0.1)">
      <use xlink:href="#DejaVuSans-43"/>
      <use xlink:href="#DejaVuSans-68" x="69.824219"/>
      <use xlink:href="#DejaVuSans-61" x="133.203125"/>
      <use xlink:href="#DejaVuSans-72" x="194.482422"/>
      <use xlink:href="#DejaVuSans-67" x="233.845703"/>
      <use xlink:href="#DejaVuSans-69" x="297.322266"/>
      <use xlink:href="#DejaVuSans-6e" x="325.105469"/>
      <use xlink:href="#DejaVuSans-67" x="388.484375"/>
     </g>
    </g>
   </g>
   <g id="line2d_78">
    <path d="M 83.972727 529.247045 
L 96.433453 529.247045 
L 96.447237 495.466749 
L 96.543725 529.247045 
L 235.376064 529.247045 
L 235.389848 482.156691 
L 235.486336 529.247045 
L 252.46821 529.247045 
L 252.481994 481.3175 
L 252.578482 529.247045 
L 278.864549 529.247045 
L 278.878333 436.583258 
L 278.974821 529.247045 
L 391.41082 529.247045 
L 391.424604 481.3175 
L 391.521092 529.247045 
L 394.994657 529.247045 
L 395.008441 500.489318 
L 395.104929 529.247045 
L 513.261284 529.247045 
L 513.275068 482.105696 
L 513.371556 529.247045 
L 556.74977 529.247045 
L 556.763554 433.387955 
L 556.860042 529.247045 
L 652.203894 529.247045 
L 652.217678 475.837999 
L 652.314166 529.247045 
L 669.296041 529.247045 
L 669.309825 478.122197 
L 669.406313 529.247045 
L 679.427273 529.247045 
L 679.427273 529.247045 
" clip-path="url(#pe3f00b3285)" style="fill: none; stroke-dasharray: 5.55,2.4; stroke-dashoffset: 0; stroke: #800080; stroke-width: 1.5"/>
   </g>
   <g id="patch_18">
    <path d="M 54.2 534.04 
L 54.2 428.595 
" style="fill: none; stroke: #000000; stroke-width: 0.8; stroke-linejoin: miter; stroke-linecap: square"/>
   </g>
   <g id="patch_19">
    <path d="M 709.2 534.04 
L 709.2 428.595 
" style="fill: none; stroke: #000000; stroke-width: 0.8; stroke-linejoin: miter; stroke-linecap: square"/>
   </g>
   <g id="patch_20">
    <path d="M 54.2 534.04 
L 709.2 534.04 
" style="fill: none; stroke: #000000; stroke-width: 0.8; stroke-linejoin: miter; stroke-linecap: square"/>
   </g>
   <g id="patch_21">
    <path d="M 54.2 428.595 
L 709.2 428.595 
" style="fill: none; stroke: #000000; stroke-width: 0.8; stroke-linejoin: miter; stroke-linecap: square"/>
   </g>
   <g id="text_31">
    <!-- EV Charge while not home -->
    <g transform="translate(302.074375 422.595) scale(0.12 -0.12)">
     <defs>
      <path id="DejaVuSans-45" d="M 628 4666 
L 3578 4666 
L 3578 4134 
L 1259 4134 
L 1259 2753 
L 3481 2753 
L 3481 2222 
L 1259 2222 
L 1259 531 
L 3634 531 
L 3634 0 
L 628 0 
L 628 4666 
z
" transform="scale(0.015625)"/>
      <path id="DejaVuSans-56" d="M 1831 0 
L 50 4666 
L 709 4666 
L 2188 738 
L 3669 4666 
L 4325 4666 
L 2547 0 
L 1831 0 
z
" transform="scale(0.015625)"/>
      <path id="DejaVuSans-77" d="M 269 3500 
L 844 3500 
L 1563 769 
L 2278 3500 
L 2956 3500 
L 3675 769 
L 4391 3500 
L 4966 3500 
L 4050 0 
L 3372 0 
L 2619 2869 
L 1863 0 
L 1184 0 
L 269 3500 
z
" transform="scale(0.015625)"/>
     </defs>
     <use xlink:href="#DejaVuSans-45"/>
     <use xlink:href="#DejaVuSans-56" x="63.183594"/>
     <use xlink:href="#DejaVuSans-20" x="131.591797"/>
     <use xlink:href="#DejaVuSans-43" x="163.378906"/>
     <use xlink:href="#DejaVuSans-68" x="233.203125"/>
     <use xlink:href="#DejaVuSans-61" x="296.582031"/>
     <use xlink:href="#DejaVuSans-72" x="357.861328"/>
     <use xlink:href="#DejaVuSans-67" x="397.224609"/>
     <use xlink:href="#DejaVuSans-65" x="460.701172"/>
     <use xlink:href="#DejaVuSans-20" x="522.224609"/>
     <use xlink:href="#DejaVuSans-77" x="554.011719"/>
     <use xlink:href="#DejaVuSans-68" x="635.798828"/>
     <use xlink:href="#DejaVuSans-69" x="699.177734"/>
     <use xlink:href="#DejaVuSans-6c" x="726.960938"/>
     <use xlink:href="#DejaVuSans-65" x="754.744141"/>
     <use xlink:href="#DejaVuSans-20" x="816.267578"/>
     <use xlink:href="#DejaVuSans-6e" x="848.054688"/>
     <use xlink:href="#DejaVuSans-6f" x="911.433594"/>
     <use xlink:href="#DejaVuSans-74" x="972.615234"/>
     <use xlink:href="#DejaVuSans-20" x="1011.824219"/>
     <use xlink:href="#DejaVuSans-68" x="1043.611328"/>
     <use xlink:href="#DejaVuSans-6f" x="1106.990234"/>
     <use xlink:href="#DejaVuSans-6d" x="1168.171875"/>
     <use xlink:href="#DejaVuSans-65" x="1265.583984"/>
    </g>
   </g>
   <g id="legend_1">
    <g id="patch_22">
     <path d="M 616.854687 451.273125 
L 702.2 451.273125 
Q 704.2 451.273125 704.2 449.273125 
L 704.2 435.595 
Q 704.2 433.595 702.2 433.595 
L 616.854687 433.595 
Q 614.854687 433.595 614.854687 435.595 
L 614.854687 449.273125 
Q 614.854687 451.273125 616.854687 451.273125 
z
" style="fill: #ffffff; opacity: 0.8; stroke: #cccccc; stroke-linejoin: miter"/>
    </g>
    <g id="line2d_79">
     <path d="M 618.854687 441.693437 
L 628.854687 441.693437 
L 638.854687 441.693437 
" style="fill: none; stroke-dasharray: 5.55,2.4; stroke-dashoffset: 0; stroke: #800080; stroke-width: 1.5"/>
    </g>
    <g id="text_32">
     <!-- EV Refilled -->
     <g transform="translate(646.854687 445.193437) scale(0.1 -0.1)">
      <defs>
       <path id="DejaVuSans-52" d="M 2841 2188 
Q 3044 2119 3236 1894 
Q 3428 1669 3622 1275 
L 4263 0 
L 3584 0 
L 2988 1197 
Q 2756 1666 2539 1819 
Q 2322 1972 1947 1972 
L 1259 1972 
L 1259 0 
L 628 0 
L 628 4666 
L 2053 4666 
Q 2853 4666 3247 4331 
Q 3641 3997 3641 3322 
Q 3641 2881 3436 2590 
Q 3231 2300 2841 2188 
z
M 1259 4147 
L 1259 2491 
L 2053 2491 
Q 2509 2491 2742 2702 
Q 2975 2913 2975 3322 
Q 2975 3731 2742 3939 
Q 2509 4147 2053 4147 
L 1259 4147 
z
" transform="scale(0.015625)"/>
      </defs>
      <use xlink:href="#DejaVuSans-45"/>
      <use xlink:href="#DejaVuSans-56" x="63.183594"/>
      <use xlink:href="#DejaVuSans-20" x="131.591797"/>
      <use xlink:href="#DejaVuSans-52" x="163.378906"/>
      <use xlink:href="#DejaVuSans-65" x="228.361328"/>
      <use xlink:href="#DejaVuSans-66" x="289.884766"/>
      <use xlink:href="#DejaVuSans-69" x="325.089844"/>
      <use xlink:href="#DejaVuSans-6c" x="352.873047"/>
      <use xlink:href="#DejaVuSans-6c" x="380.65625"/>
      <use xlink:href="#DejaVuSans-65" x="408.439453"/>
      <use xlink:href="#DejaVuSans-64" x="469.962891"/>
     </g>
    </g>
   </g>
  </g>
 </g>
 <defs>
  <clipPath id="p186560f8fb">
   <rect x="54.2" y="25.44" width="655" height="105.445"/>
  </clipPath>
  <clipPath id="p9aa2aa40a8">
   <rect x="54.2" y="159.825" width="655" height="105.445"/>
  </clipPath>
  <clipPath id="pd6467c7265">
   <rect x="54.2" y="294.21" width="655" height="105.445"/>
  </clipPath>
  <clipPath id="pe3f00b3285">
   <rect x="54.2" y="428.595" width="655" height="105.445"/>
  </clipPath>
 </defs>
</svg>
